%TF.GenerationSoftware,KiCad,Pcbnew,5.1.9-73d0e3b20d~88~ubuntu20.04.1*%
%TF.CreationDate,2021-06-24T22:41:13-04:00*%
%TF.ProjectId,stm32_breakout,73746d33-325f-4627-9265-616b6f75742e,rev?*%
%TF.SameCoordinates,Original*%
%TF.FileFunction,Soldermask,Bot*%
%TF.FilePolarity,Negative*%
%FSLAX46Y46*%
G04 Gerber Fmt 4.6, Leading zero omitted, Abs format (unit mm)*
G04 Created by KiCad (PCBNEW 5.1.9-73d0e3b20d~88~ubuntu20.04.1) date 2021-06-24 22:41:13*
%MOMM*%
%LPD*%
G01*
G04 APERTURE LIST*
%ADD10R,0.600000X0.800000*%
%ADD11O,1.700000X1.700000*%
%ADD12R,1.700000X1.700000*%
G04 APERTURE END LIST*
D10*
%TO.C,U3*%
X132726000Y-86198000D03*
X132726000Y-84998000D03*
X130926000Y-84998000D03*
X130926000Y-86198000D03*
%TD*%
%TO.C,C1*%
G36*
G01*
X134841000Y-69964000D02*
X133891000Y-69964000D01*
G75*
G02*
X133641000Y-69714000I0J250000D01*
G01*
X133641000Y-69214000D01*
G75*
G02*
X133891000Y-68964000I250000J0D01*
G01*
X134841000Y-68964000D01*
G75*
G02*
X135091000Y-69214000I0J-250000D01*
G01*
X135091000Y-69714000D01*
G75*
G02*
X134841000Y-69964000I-250000J0D01*
G01*
G37*
G36*
G01*
X134841000Y-68064000D02*
X133891000Y-68064000D01*
G75*
G02*
X133641000Y-67814000I0J250000D01*
G01*
X133641000Y-67314000D01*
G75*
G02*
X133891000Y-67064000I250000J0D01*
G01*
X134841000Y-67064000D01*
G75*
G02*
X135091000Y-67314000I0J-250000D01*
G01*
X135091000Y-67814000D01*
G75*
G02*
X134841000Y-68064000I-250000J0D01*
G01*
G37*
%TD*%
%TO.C,C2*%
G36*
G01*
X130472200Y-68064000D02*
X129522200Y-68064000D01*
G75*
G02*
X129272200Y-67814000I0J250000D01*
G01*
X129272200Y-67314000D01*
G75*
G02*
X129522200Y-67064000I250000J0D01*
G01*
X130472200Y-67064000D01*
G75*
G02*
X130722200Y-67314000I0J-250000D01*
G01*
X130722200Y-67814000D01*
G75*
G02*
X130472200Y-68064000I-250000J0D01*
G01*
G37*
G36*
G01*
X130472200Y-69964000D02*
X129522200Y-69964000D01*
G75*
G02*
X129272200Y-69714000I0J250000D01*
G01*
X129272200Y-69214000D01*
G75*
G02*
X129522200Y-68964000I250000J0D01*
G01*
X130472200Y-68964000D01*
G75*
G02*
X130722200Y-69214000I0J-250000D01*
G01*
X130722200Y-69714000D01*
G75*
G02*
X130472200Y-69964000I-250000J0D01*
G01*
G37*
%TD*%
%TO.C,C3*%
G36*
G01*
X129573000Y-78174000D02*
X130523000Y-78174000D01*
G75*
G02*
X130773000Y-78424000I0J-250000D01*
G01*
X130773000Y-78924000D01*
G75*
G02*
X130523000Y-79174000I-250000J0D01*
G01*
X129573000Y-79174000D01*
G75*
G02*
X129323000Y-78924000I0J250000D01*
G01*
X129323000Y-78424000D01*
G75*
G02*
X129573000Y-78174000I250000J0D01*
G01*
G37*
G36*
G01*
X129573000Y-76274000D02*
X130523000Y-76274000D01*
G75*
G02*
X130773000Y-76524000I0J-250000D01*
G01*
X130773000Y-77024000D01*
G75*
G02*
X130523000Y-77274000I-250000J0D01*
G01*
X129573000Y-77274000D01*
G75*
G02*
X129323000Y-77024000I0J250000D01*
G01*
X129323000Y-76524000D01*
G75*
G02*
X129573000Y-76274000I250000J0D01*
G01*
G37*
%TD*%
%TO.C,C4*%
G36*
G01*
X133891000Y-78174000D02*
X134841000Y-78174000D01*
G75*
G02*
X135091000Y-78424000I0J-250000D01*
G01*
X135091000Y-78924000D01*
G75*
G02*
X134841000Y-79174000I-250000J0D01*
G01*
X133891000Y-79174000D01*
G75*
G02*
X133641000Y-78924000I0J250000D01*
G01*
X133641000Y-78424000D01*
G75*
G02*
X133891000Y-78174000I250000J0D01*
G01*
G37*
G36*
G01*
X133891000Y-76274000D02*
X134841000Y-76274000D01*
G75*
G02*
X135091000Y-76524000I0J-250000D01*
G01*
X135091000Y-77024000D01*
G75*
G02*
X134841000Y-77274000I-250000J0D01*
G01*
X133891000Y-77274000D01*
G75*
G02*
X133641000Y-77024000I0J250000D01*
G01*
X133641000Y-76524000D01*
G75*
G02*
X133891000Y-76274000I250000J0D01*
G01*
G37*
%TD*%
%TO.C,C5*%
G36*
G01*
X130523000Y-81592000D02*
X129573000Y-81592000D01*
G75*
G02*
X129323000Y-81342000I0J250000D01*
G01*
X129323000Y-80842000D01*
G75*
G02*
X129573000Y-80592000I250000J0D01*
G01*
X130523000Y-80592000D01*
G75*
G02*
X130773000Y-80842000I0J-250000D01*
G01*
X130773000Y-81342000D01*
G75*
G02*
X130523000Y-81592000I-250000J0D01*
G01*
G37*
G36*
G01*
X130523000Y-83492000D02*
X129573000Y-83492000D01*
G75*
G02*
X129323000Y-83242000I0J250000D01*
G01*
X129323000Y-82742000D01*
G75*
G02*
X129573000Y-82492000I250000J0D01*
G01*
X130523000Y-82492000D01*
G75*
G02*
X130773000Y-82742000I0J-250000D01*
G01*
X130773000Y-83242000D01*
G75*
G02*
X130523000Y-83492000I-250000J0D01*
G01*
G37*
%TD*%
%TO.C,C6*%
G36*
G01*
X134841000Y-83426000D02*
X133891000Y-83426000D01*
G75*
G02*
X133641000Y-83176000I0J250000D01*
G01*
X133641000Y-82676000D01*
G75*
G02*
X133891000Y-82426000I250000J0D01*
G01*
X134841000Y-82426000D01*
G75*
G02*
X135091000Y-82676000I0J-250000D01*
G01*
X135091000Y-83176000D01*
G75*
G02*
X134841000Y-83426000I-250000J0D01*
G01*
G37*
G36*
G01*
X134841000Y-81526000D02*
X133891000Y-81526000D01*
G75*
G02*
X133641000Y-81276000I0J250000D01*
G01*
X133641000Y-80776000D01*
G75*
G02*
X133891000Y-80526000I250000J0D01*
G01*
X134841000Y-80526000D01*
G75*
G02*
X135091000Y-80776000I0J-250000D01*
G01*
X135091000Y-81276000D01*
G75*
G02*
X134841000Y-81526000I-250000J0D01*
G01*
G37*
%TD*%
D11*
%TO.C,J2*%
X137922000Y-88646000D03*
X137922000Y-86106000D03*
X137922000Y-83566000D03*
X137922000Y-81026000D03*
X137922000Y-78486000D03*
X137922000Y-75946000D03*
X137922000Y-73406000D03*
X137922000Y-70866000D03*
X137922000Y-68326000D03*
D12*
X137922000Y-65786000D03*
%TD*%
%TO.C,J3*%
X126238000Y-66040000D03*
D11*
X126238000Y-68580000D03*
X126238000Y-71120000D03*
X126238000Y-73660000D03*
X126238000Y-76200000D03*
X126238000Y-78740000D03*
X126238000Y-81280000D03*
X126238000Y-83820000D03*
X126238000Y-86360000D03*
X126238000Y-88900000D03*
%TD*%
%TO.C,R1*%
G36*
G01*
X136553000Y-60763999D02*
X136553000Y-61664001D01*
G75*
G02*
X136303001Y-61914000I-249999J0D01*
G01*
X135777999Y-61914000D01*
G75*
G02*
X135528000Y-61664001I0J249999D01*
G01*
X135528000Y-60763999D01*
G75*
G02*
X135777999Y-60514000I249999J0D01*
G01*
X136303001Y-60514000D01*
G75*
G02*
X136553000Y-60763999I0J-249999D01*
G01*
G37*
G36*
G01*
X134728000Y-60763999D02*
X134728000Y-61664001D01*
G75*
G02*
X134478001Y-61914000I-249999J0D01*
G01*
X133952999Y-61914000D01*
G75*
G02*
X133703000Y-61664001I0J249999D01*
G01*
X133703000Y-60763999D01*
G75*
G02*
X133952999Y-60514000I249999J0D01*
G01*
X134478001Y-60514000D01*
G75*
G02*
X134728000Y-60763999I0J-249999D01*
G01*
G37*
%TD*%
%TO.C,R2*%
G36*
G01*
X134054001Y-90729500D02*
X133153999Y-90729500D01*
G75*
G02*
X132904000Y-90479501I0J249999D01*
G01*
X132904000Y-89954499D01*
G75*
G02*
X133153999Y-89704500I249999J0D01*
G01*
X134054001Y-89704500D01*
G75*
G02*
X134304000Y-89954499I0J-249999D01*
G01*
X134304000Y-90479501D01*
G75*
G02*
X134054001Y-90729500I-249999J0D01*
G01*
G37*
G36*
G01*
X134054001Y-88904500D02*
X133153999Y-88904500D01*
G75*
G02*
X132904000Y-88654501I0J249999D01*
G01*
X132904000Y-88129499D01*
G75*
G02*
X133153999Y-87879500I249999J0D01*
G01*
X134054001Y-87879500D01*
G75*
G02*
X134304000Y-88129499I0J-249999D01*
G01*
X134304000Y-88654501D01*
G75*
G02*
X134054001Y-88904500I-249999J0D01*
G01*
G37*
%TD*%
%TO.C,R3*%
G36*
G01*
X129851999Y-89704500D02*
X130752001Y-89704500D01*
G75*
G02*
X131002000Y-89954499I0J-249999D01*
G01*
X131002000Y-90479501D01*
G75*
G02*
X130752001Y-90729500I-249999J0D01*
G01*
X129851999Y-90729500D01*
G75*
G02*
X129602000Y-90479501I0J249999D01*
G01*
X129602000Y-89954499D01*
G75*
G02*
X129851999Y-89704500I249999J0D01*
G01*
G37*
G36*
G01*
X129851999Y-87879500D02*
X130752001Y-87879500D01*
G75*
G02*
X131002000Y-88129499I0J-249999D01*
G01*
X131002000Y-88654501D01*
G75*
G02*
X130752001Y-88904500I-249999J0D01*
G01*
X129851999Y-88904500D01*
G75*
G02*
X129602000Y-88654501I0J249999D01*
G01*
X129602000Y-88129499D01*
G75*
G02*
X129851999Y-87879500I249999J0D01*
G01*
G37*
%TD*%
M02*
