%TF.GenerationSoftware,KiCad,Pcbnew,5.1.9-73d0e3b20d~88~ubuntu20.04.1*%
%TF.CreationDate,2021-06-24T22:41:13-04:00*%
%TF.ProjectId,stm32_breakout,73746d33-325f-4627-9265-616b6f75742e,rev?*%
%TF.SameCoordinates,Original*%
%TF.FileFunction,Legend,Top*%
%TF.FilePolarity,Positive*%
%FSLAX46Y46*%
G04 Gerber Fmt 4.6, Leading zero omitted, Abs format (unit mm)*
G04 Created by KiCad (PCBNEW 5.1.9-73d0e3b20d~88~ubuntu20.04.1) date 2021-06-24 22:41:13*
%MOMM*%
%LPD*%
G01*
G04 APERTURE LIST*
%ADD10C,0.120000*%
%ADD11C,0.150000*%
G04 APERTURE END LIST*
D10*
%TO.C,D1*%
X137216000Y-59021000D02*
X137216000Y-61706000D01*
X139136000Y-59021000D02*
X137216000Y-59021000D01*
X139136000Y-61706000D02*
X139136000Y-59021000D01*
%TO.C,J1*%
X135890000Y-58360000D02*
X135890000Y-58620000D01*
X135890000Y-60900000D02*
X135890000Y-62670000D01*
X135890000Y-62670000D02*
X135510000Y-62670000D01*
X128270000Y-62670000D02*
X128270000Y-60900000D01*
X128270000Y-58620000D02*
X128270000Y-58360000D01*
X128270000Y-62670000D02*
X128650000Y-62670000D01*
%TO.C,J2*%
X136592000Y-67056000D02*
X139252000Y-67056000D01*
X136592000Y-67056000D02*
X136592000Y-89976000D01*
X136592000Y-89976000D02*
X139252000Y-89976000D01*
X139252000Y-67056000D02*
X139252000Y-89976000D01*
X139252000Y-64456000D02*
X139252000Y-65786000D01*
X137922000Y-64456000D02*
X139252000Y-64456000D01*
%TO.C,J3*%
X126238000Y-64710000D02*
X127568000Y-64710000D01*
X127568000Y-64710000D02*
X127568000Y-66040000D01*
X127568000Y-67310000D02*
X127568000Y-90230000D01*
X124908000Y-90230000D02*
X127568000Y-90230000D01*
X124908000Y-67310000D02*
X124908000Y-90230000D01*
X124908000Y-67310000D02*
X127568000Y-67310000D01*
%TO.C,U1*%
X135490000Y-64378000D02*
X135490000Y-70388000D01*
X128670000Y-66628000D02*
X128670000Y-70388000D01*
X135490000Y-70388000D02*
X134230000Y-70388000D01*
X128670000Y-70388000D02*
X129930000Y-70388000D01*
%TO.C,U2*%
X135465000Y-79756000D02*
X135465000Y-76156000D01*
X135465000Y-79756000D02*
X135465000Y-81956000D01*
X128695000Y-79756000D02*
X128695000Y-77556000D01*
X128695000Y-79756000D02*
X128695000Y-81956000D01*
%TO.C,D1*%
D11*
X137437904Y-58872380D02*
X137437904Y-57872380D01*
X137676000Y-57872380D01*
X137818857Y-57920000D01*
X137914095Y-58015238D01*
X137961714Y-58110476D01*
X138009333Y-58300952D01*
X138009333Y-58443809D01*
X137961714Y-58634285D01*
X137914095Y-58729523D01*
X137818857Y-58824761D01*
X137676000Y-58872380D01*
X137437904Y-58872380D01*
X138961714Y-58872380D02*
X138390285Y-58872380D01*
X138676000Y-58872380D02*
X138676000Y-57872380D01*
X138580761Y-58015238D01*
X138485523Y-58110476D01*
X138390285Y-58158095D01*
%TO.C,J1*%
X126158666Y-58126380D02*
X126158666Y-58840666D01*
X126111047Y-58983523D01*
X126015809Y-59078761D01*
X125872952Y-59126380D01*
X125777714Y-59126380D01*
X127158666Y-59126380D02*
X126587238Y-59126380D01*
X126872952Y-59126380D02*
X126872952Y-58126380D01*
X126777714Y-58269238D01*
X126682476Y-58364476D01*
X126587238Y-58412095D01*
%TO.C,J2*%
X137842666Y-62952380D02*
X137842666Y-63666666D01*
X137795047Y-63809523D01*
X137699809Y-63904761D01*
X137556952Y-63952380D01*
X137461714Y-63952380D01*
X138271238Y-63047619D02*
X138318857Y-63000000D01*
X138414095Y-62952380D01*
X138652190Y-62952380D01*
X138747428Y-63000000D01*
X138795047Y-63047619D01*
X138842666Y-63142857D01*
X138842666Y-63238095D01*
X138795047Y-63380952D01*
X138223619Y-63952380D01*
X138842666Y-63952380D01*
%TO.C,J3*%
X125904666Y-62952380D02*
X125904666Y-63666666D01*
X125857047Y-63809523D01*
X125761809Y-63904761D01*
X125618952Y-63952380D01*
X125523714Y-63952380D01*
X126285619Y-62952380D02*
X126904666Y-62952380D01*
X126571333Y-63333333D01*
X126714190Y-63333333D01*
X126809428Y-63380952D01*
X126857047Y-63428571D01*
X126904666Y-63523809D01*
X126904666Y-63761904D01*
X126857047Y-63857142D01*
X126809428Y-63904761D01*
X126714190Y-63952380D01*
X126428476Y-63952380D01*
X126333238Y-63904761D01*
X126285619Y-63857142D01*
%TO.C,U1*%
X131318095Y-73112380D02*
X131318095Y-73921904D01*
X131365714Y-74017142D01*
X131413333Y-74064761D01*
X131508571Y-74112380D01*
X131699047Y-74112380D01*
X131794285Y-74064761D01*
X131841904Y-74017142D01*
X131889523Y-73921904D01*
X131889523Y-73112380D01*
X132889523Y-74112380D02*
X132318095Y-74112380D01*
X132603809Y-74112380D02*
X132603809Y-73112380D01*
X132508571Y-73255238D01*
X132413333Y-73350476D01*
X132318095Y-73398095D01*
%TO.C,U2*%
X131318095Y-83780380D02*
X131318095Y-84589904D01*
X131365714Y-84685142D01*
X131413333Y-84732761D01*
X131508571Y-84780380D01*
X131699047Y-84780380D01*
X131794285Y-84732761D01*
X131841904Y-84685142D01*
X131889523Y-84589904D01*
X131889523Y-83780380D01*
X132318095Y-83875619D02*
X132365714Y-83828000D01*
X132460952Y-83780380D01*
X132699047Y-83780380D01*
X132794285Y-83828000D01*
X132841904Y-83875619D01*
X132889523Y-83970857D01*
X132889523Y-84066095D01*
X132841904Y-84208952D01*
X132270476Y-84780380D01*
X132889523Y-84780380D01*
%TD*%
M02*
