%TF.GenerationSoftware,KiCad,Pcbnew,5.1.9-73d0e3b20d~88~ubuntu20.04.1*%
%TF.CreationDate,2021-06-24T22:41:13-04:00*%
%TF.ProjectId,stm32_breakout,73746d33-325f-4627-9265-616b6f75742e,rev?*%
%TF.SameCoordinates,Original*%
%TF.FileFunction,Copper,L2,Bot*%
%TF.FilePolarity,Positive*%
%FSLAX46Y46*%
G04 Gerber Fmt 4.6, Leading zero omitted, Abs format (unit mm)*
G04 Created by KiCad (PCBNEW 5.1.9-73d0e3b20d~88~ubuntu20.04.1) date 2021-06-24 22:41:13*
%MOMM*%
%LPD*%
G01*
G04 APERTURE LIST*
%TA.AperFunction,SMDPad,CuDef*%
%ADD10R,0.600000X0.800000*%
%TD*%
%TA.AperFunction,ComponentPad*%
%ADD11O,1.700000X1.700000*%
%TD*%
%TA.AperFunction,ComponentPad*%
%ADD12R,1.700000X1.700000*%
%TD*%
%TA.AperFunction,ViaPad*%
%ADD13C,0.800000*%
%TD*%
%TA.AperFunction,Conductor*%
%ADD14C,0.250000*%
%TD*%
%TA.AperFunction,Conductor*%
%ADD15C,0.254000*%
%TD*%
%TA.AperFunction,Conductor*%
%ADD16C,0.100000*%
%TD*%
G04 APERTURE END LIST*
D10*
%TO.P,U3,2*%
%TO.N,GND*%
X132726000Y-86198000D03*
%TO.P,U3,3*%
%TO.N,/PA0-CK_IN*%
X132726000Y-84998000D03*
%TO.P,U3,4*%
%TO.N,+3V3*%
X130926000Y-84998000D03*
%TO.P,U3,1*%
%TO.N,Net-(R2-Pad2)*%
X130926000Y-86198000D03*
%TD*%
%TO.P,C1,1*%
%TO.N,GND*%
%TA.AperFunction,SMDPad,CuDef*%
G36*
G01*
X134841000Y-69964000D02*
X133891000Y-69964000D01*
G75*
G02*
X133641000Y-69714000I0J250000D01*
G01*
X133641000Y-69214000D01*
G75*
G02*
X133891000Y-68964000I250000J0D01*
G01*
X134841000Y-68964000D01*
G75*
G02*
X135091000Y-69214000I0J-250000D01*
G01*
X135091000Y-69714000D01*
G75*
G02*
X134841000Y-69964000I-250000J0D01*
G01*
G37*
%TD.AperFunction*%
%TO.P,C1,2*%
%TO.N,Net-(C1-Pad2)*%
%TA.AperFunction,SMDPad,CuDef*%
G36*
G01*
X134841000Y-68064000D02*
X133891000Y-68064000D01*
G75*
G02*
X133641000Y-67814000I0J250000D01*
G01*
X133641000Y-67314000D01*
G75*
G02*
X133891000Y-67064000I250000J0D01*
G01*
X134841000Y-67064000D01*
G75*
G02*
X135091000Y-67314000I0J-250000D01*
G01*
X135091000Y-67814000D01*
G75*
G02*
X134841000Y-68064000I-250000J0D01*
G01*
G37*
%TD.AperFunction*%
%TD*%
%TO.P,C2,2*%
%TO.N,+3V3*%
%TA.AperFunction,SMDPad,CuDef*%
G36*
G01*
X130472200Y-68064000D02*
X129522200Y-68064000D01*
G75*
G02*
X129272200Y-67814000I0J250000D01*
G01*
X129272200Y-67314000D01*
G75*
G02*
X129522200Y-67064000I250000J0D01*
G01*
X130472200Y-67064000D01*
G75*
G02*
X130722200Y-67314000I0J-250000D01*
G01*
X130722200Y-67814000D01*
G75*
G02*
X130472200Y-68064000I-250000J0D01*
G01*
G37*
%TD.AperFunction*%
%TO.P,C2,1*%
%TO.N,GND*%
%TA.AperFunction,SMDPad,CuDef*%
G36*
G01*
X130472200Y-69964000D02*
X129522200Y-69964000D01*
G75*
G02*
X129272200Y-69714000I0J250000D01*
G01*
X129272200Y-69214000D01*
G75*
G02*
X129522200Y-68964000I250000J0D01*
G01*
X130472200Y-68964000D01*
G75*
G02*
X130722200Y-69214000I0J-250000D01*
G01*
X130722200Y-69714000D01*
G75*
G02*
X130472200Y-69964000I-250000J0D01*
G01*
G37*
%TD.AperFunction*%
%TD*%
%TO.P,C3,2*%
%TO.N,+3V3*%
%TA.AperFunction,SMDPad,CuDef*%
G36*
G01*
X129573000Y-78174000D02*
X130523000Y-78174000D01*
G75*
G02*
X130773000Y-78424000I0J-250000D01*
G01*
X130773000Y-78924000D01*
G75*
G02*
X130523000Y-79174000I-250000J0D01*
G01*
X129573000Y-79174000D01*
G75*
G02*
X129323000Y-78924000I0J250000D01*
G01*
X129323000Y-78424000D01*
G75*
G02*
X129573000Y-78174000I250000J0D01*
G01*
G37*
%TD.AperFunction*%
%TO.P,C3,1*%
%TO.N,GND*%
%TA.AperFunction,SMDPad,CuDef*%
G36*
G01*
X129573000Y-76274000D02*
X130523000Y-76274000D01*
G75*
G02*
X130773000Y-76524000I0J-250000D01*
G01*
X130773000Y-77024000D01*
G75*
G02*
X130523000Y-77274000I-250000J0D01*
G01*
X129573000Y-77274000D01*
G75*
G02*
X129323000Y-77024000I0J250000D01*
G01*
X129323000Y-76524000D01*
G75*
G02*
X129573000Y-76274000I250000J0D01*
G01*
G37*
%TD.AperFunction*%
%TD*%
%TO.P,C4,2*%
%TO.N,+3V3*%
%TA.AperFunction,SMDPad,CuDef*%
G36*
G01*
X133891000Y-78174000D02*
X134841000Y-78174000D01*
G75*
G02*
X135091000Y-78424000I0J-250000D01*
G01*
X135091000Y-78924000D01*
G75*
G02*
X134841000Y-79174000I-250000J0D01*
G01*
X133891000Y-79174000D01*
G75*
G02*
X133641000Y-78924000I0J250000D01*
G01*
X133641000Y-78424000D01*
G75*
G02*
X133891000Y-78174000I250000J0D01*
G01*
G37*
%TD.AperFunction*%
%TO.P,C4,1*%
%TO.N,GND*%
%TA.AperFunction,SMDPad,CuDef*%
G36*
G01*
X133891000Y-76274000D02*
X134841000Y-76274000D01*
G75*
G02*
X135091000Y-76524000I0J-250000D01*
G01*
X135091000Y-77024000D01*
G75*
G02*
X134841000Y-77274000I-250000J0D01*
G01*
X133891000Y-77274000D01*
G75*
G02*
X133641000Y-77024000I0J250000D01*
G01*
X133641000Y-76524000D01*
G75*
G02*
X133891000Y-76274000I250000J0D01*
G01*
G37*
%TD.AperFunction*%
%TD*%
%TO.P,C5,2*%
%TO.N,+3V3*%
%TA.AperFunction,SMDPad,CuDef*%
G36*
G01*
X130523000Y-81592000D02*
X129573000Y-81592000D01*
G75*
G02*
X129323000Y-81342000I0J250000D01*
G01*
X129323000Y-80842000D01*
G75*
G02*
X129573000Y-80592000I250000J0D01*
G01*
X130523000Y-80592000D01*
G75*
G02*
X130773000Y-80842000I0J-250000D01*
G01*
X130773000Y-81342000D01*
G75*
G02*
X130523000Y-81592000I-250000J0D01*
G01*
G37*
%TD.AperFunction*%
%TO.P,C5,1*%
%TO.N,GND*%
%TA.AperFunction,SMDPad,CuDef*%
G36*
G01*
X130523000Y-83492000D02*
X129573000Y-83492000D01*
G75*
G02*
X129323000Y-83242000I0J250000D01*
G01*
X129323000Y-82742000D01*
G75*
G02*
X129573000Y-82492000I250000J0D01*
G01*
X130523000Y-82492000D01*
G75*
G02*
X130773000Y-82742000I0J-250000D01*
G01*
X130773000Y-83242000D01*
G75*
G02*
X130523000Y-83492000I-250000J0D01*
G01*
G37*
%TD.AperFunction*%
%TD*%
%TO.P,C6,1*%
%TO.N,GND*%
%TA.AperFunction,SMDPad,CuDef*%
G36*
G01*
X134841000Y-83426000D02*
X133891000Y-83426000D01*
G75*
G02*
X133641000Y-83176000I0J250000D01*
G01*
X133641000Y-82676000D01*
G75*
G02*
X133891000Y-82426000I250000J0D01*
G01*
X134841000Y-82426000D01*
G75*
G02*
X135091000Y-82676000I0J-250000D01*
G01*
X135091000Y-83176000D01*
G75*
G02*
X134841000Y-83426000I-250000J0D01*
G01*
G37*
%TD.AperFunction*%
%TO.P,C6,2*%
%TO.N,+3V3*%
%TA.AperFunction,SMDPad,CuDef*%
G36*
G01*
X134841000Y-81526000D02*
X133891000Y-81526000D01*
G75*
G02*
X133641000Y-81276000I0J250000D01*
G01*
X133641000Y-80776000D01*
G75*
G02*
X133891000Y-80526000I250000J0D01*
G01*
X134841000Y-80526000D01*
G75*
G02*
X135091000Y-80776000I0J-250000D01*
G01*
X135091000Y-81276000D01*
G75*
G02*
X134841000Y-81526000I-250000J0D01*
G01*
G37*
%TD.AperFunction*%
%TD*%
D11*
%TO.P,J2,10*%
%TO.N,+3V3*%
X137922000Y-88646000D03*
%TO.P,J2,9*%
%TO.N,/PA9*%
X137922000Y-86106000D03*
%TO.P,J2,8*%
%TO.N,/PA10*%
X137922000Y-83566000D03*
%TO.P,J2,7*%
%TO.N,/PA14*%
X137922000Y-81026000D03*
%TO.P,J2,6*%
%TO.N,/PA13*%
X137922000Y-78486000D03*
%TO.P,J2,5*%
%TO.N,/PB9-BOOT0*%
X137922000Y-75946000D03*
%TO.P,J2,4*%
%TO.N,/PC14-OSC32IN*%
X137922000Y-73406000D03*
%TO.P,J2,3*%
%TO.N,/PC15-OSC32_OUT*%
X137922000Y-70866000D03*
%TO.P,J2,2*%
%TO.N,/NRST*%
X137922000Y-68326000D03*
D12*
%TO.P,J2,1*%
%TO.N,Net-(J2-Pad1)*%
X137922000Y-65786000D03*
%TD*%
%TO.P,J3,1*%
%TO.N,/PA0-CK_IN*%
X126238000Y-66040000D03*
D11*
%TO.P,J3,2*%
%TO.N,/PA1*%
X126238000Y-68580000D03*
%TO.P,J3,3*%
%TO.N,/PA2*%
X126238000Y-71120000D03*
%TO.P,J3,4*%
%TO.N,/PA3*%
X126238000Y-73660000D03*
%TO.P,J3,5*%
%TO.N,/PA4*%
X126238000Y-76200000D03*
%TO.P,J3,6*%
%TO.N,/PA6*%
X126238000Y-78740000D03*
%TO.P,J3,7*%
%TO.N,/PA5*%
X126238000Y-81280000D03*
%TO.P,J3,8*%
%TO.N,/PA7*%
X126238000Y-83820000D03*
%TO.P,J3,9*%
%TO.N,/PB1*%
X126238000Y-86360000D03*
%TO.P,J3,10*%
%TO.N,GND*%
X126238000Y-88900000D03*
%TD*%
%TO.P,R1,1*%
%TO.N,Net-(D1-Pad2)*%
%TA.AperFunction,SMDPad,CuDef*%
G36*
G01*
X136553000Y-60763999D02*
X136553000Y-61664001D01*
G75*
G02*
X136303001Y-61914000I-249999J0D01*
G01*
X135777999Y-61914000D01*
G75*
G02*
X135528000Y-61664001I0J249999D01*
G01*
X135528000Y-60763999D01*
G75*
G02*
X135777999Y-60514000I249999J0D01*
G01*
X136303001Y-60514000D01*
G75*
G02*
X136553000Y-60763999I0J-249999D01*
G01*
G37*
%TD.AperFunction*%
%TO.P,R1,2*%
%TO.N,Net-(C1-Pad2)*%
%TA.AperFunction,SMDPad,CuDef*%
G36*
G01*
X134728000Y-60763999D02*
X134728000Y-61664001D01*
G75*
G02*
X134478001Y-61914000I-249999J0D01*
G01*
X133952999Y-61914000D01*
G75*
G02*
X133703000Y-61664001I0J249999D01*
G01*
X133703000Y-60763999D01*
G75*
G02*
X133952999Y-60514000I249999J0D01*
G01*
X134478001Y-60514000D01*
G75*
G02*
X134728000Y-60763999I0J-249999D01*
G01*
G37*
%TD.AperFunction*%
%TD*%
%TO.P,R2,1*%
%TO.N,+3V3*%
%TA.AperFunction,SMDPad,CuDef*%
G36*
G01*
X134054001Y-90729500D02*
X133153999Y-90729500D01*
G75*
G02*
X132904000Y-90479501I0J249999D01*
G01*
X132904000Y-89954499D01*
G75*
G02*
X133153999Y-89704500I249999J0D01*
G01*
X134054001Y-89704500D01*
G75*
G02*
X134304000Y-89954499I0J-249999D01*
G01*
X134304000Y-90479501D01*
G75*
G02*
X134054001Y-90729500I-249999J0D01*
G01*
G37*
%TD.AperFunction*%
%TO.P,R2,2*%
%TO.N,Net-(R2-Pad2)*%
%TA.AperFunction,SMDPad,CuDef*%
G36*
G01*
X134054001Y-88904500D02*
X133153999Y-88904500D01*
G75*
G02*
X132904000Y-88654501I0J249999D01*
G01*
X132904000Y-88129499D01*
G75*
G02*
X133153999Y-87879500I249999J0D01*
G01*
X134054001Y-87879500D01*
G75*
G02*
X134304000Y-88129499I0J-249999D01*
G01*
X134304000Y-88654501D01*
G75*
G02*
X134054001Y-88904500I-249999J0D01*
G01*
G37*
%TD.AperFunction*%
%TD*%
%TO.P,R3,2*%
%TO.N,GND*%
%TA.AperFunction,SMDPad,CuDef*%
G36*
G01*
X129851999Y-89704500D02*
X130752001Y-89704500D01*
G75*
G02*
X131002000Y-89954499I0J-249999D01*
G01*
X131002000Y-90479501D01*
G75*
G02*
X130752001Y-90729500I-249999J0D01*
G01*
X129851999Y-90729500D01*
G75*
G02*
X129602000Y-90479501I0J249999D01*
G01*
X129602000Y-89954499D01*
G75*
G02*
X129851999Y-89704500I249999J0D01*
G01*
G37*
%TD.AperFunction*%
%TO.P,R3,1*%
%TO.N,Net-(R2-Pad2)*%
%TA.AperFunction,SMDPad,CuDef*%
G36*
G01*
X129851999Y-87879500D02*
X130752001Y-87879500D01*
G75*
G02*
X131002000Y-88129499I0J-249999D01*
G01*
X131002000Y-88654501D01*
G75*
G02*
X130752001Y-88904500I-249999J0D01*
G01*
X129851999Y-88904500D01*
G75*
G02*
X129602000Y-88654501I0J249999D01*
G01*
X129602000Y-88129499D01*
G75*
G02*
X129851999Y-87879500I249999J0D01*
G01*
G37*
%TD.AperFunction*%
%TD*%
D13*
%TO.N,GND*%
X128422400Y-90424000D03*
X135077200Y-85191600D03*
X128879600Y-85445600D03*
X136194800Y-74523600D03*
X127762000Y-77266800D03*
X132008800Y-69464000D03*
%TO.N,+3V3*%
X132892800Y-79806800D03*
X132283200Y-67716400D03*
%TO.N,Net-(D1-Pad2)*%
X136651972Y-62992000D03*
%TO.N,/NRST*%
X133413850Y-73438417D03*
%TO.N,/PA0-CK_IN*%
X132080006Y-74676006D03*
%TO.N,/PA1*%
X130302000Y-73406000D03*
%TO.N,Net-(C1-Pad2)*%
X127457200Y-64008000D03*
%TD*%
D14*
%TO.N,GND*%
X130302000Y-90217000D02*
X128629400Y-90217000D01*
X128629400Y-90217000D02*
X128422400Y-90424000D01*
X134366000Y-82926000D02*
X134366000Y-84429600D01*
X134366000Y-84429600D02*
X134823200Y-84886800D01*
X130048000Y-82992000D02*
X130048000Y-84277200D01*
X130048000Y-84277200D02*
X128879600Y-85445600D01*
X136194800Y-74945200D02*
X136194800Y-74523600D01*
X134366000Y-76774000D02*
X136194800Y-74945200D01*
X130048000Y-76774000D02*
X128204000Y-76774000D01*
X127762000Y-77216000D02*
X127762000Y-77266800D01*
X128204000Y-76774000D02*
X127762000Y-77216000D01*
X134070800Y-86198000D02*
X135077200Y-85191600D01*
X132726000Y-86198000D02*
X134070800Y-86198000D01*
X129997200Y-69464000D02*
X132008800Y-69464000D01*
X132008800Y-69464000D02*
X134366000Y-69464000D01*
%TO.N,Net-(D1-Pad2)*%
X136040500Y-61214000D02*
X136040500Y-62380528D01*
X136040500Y-62380528D02*
X136651972Y-62992000D01*
%TO.N,/NRST*%
X137922000Y-68326000D02*
X133413850Y-72834150D01*
X133413850Y-72834150D02*
X133413850Y-73438417D01*
%TO.N,/PA0-CK_IN*%
X132080006Y-84352006D02*
X132726000Y-84998000D01*
X132080006Y-74676006D02*
X132080006Y-84352006D01*
X131470400Y-73304400D02*
X131470400Y-74066400D01*
X131470400Y-74066400D02*
X132080006Y-74676006D01*
X127914400Y-69748400D02*
X131470400Y-73304400D01*
X127914400Y-68072000D02*
X127914400Y-69748400D01*
X126238000Y-66395600D02*
X127914400Y-68072000D01*
X126238000Y-66040000D02*
X126238000Y-66395600D01*
%TO.N,/PA1*%
X130302000Y-73406000D02*
X126238000Y-69342000D01*
X126238000Y-69342000D02*
X126238000Y-68580000D01*
%TO.N,Net-(R2-Pad2)*%
X133604000Y-88392000D02*
X130302000Y-88392000D01*
X130302000Y-86822000D02*
X130926000Y-86198000D01*
X130302000Y-88392000D02*
X130302000Y-86822000D01*
%TO.N,Net-(C1-Pad2)*%
X130251200Y-61214000D02*
X127457200Y-64008000D01*
X134215500Y-61214000D02*
X130251200Y-61214000D01*
X131927600Y-64008000D02*
X127457200Y-64008000D01*
X134366000Y-66446400D02*
X131927600Y-64008000D01*
X134366000Y-67564000D02*
X134366000Y-66446400D01*
%TD*%
D15*
%TO.N,+3V3*%
X139269000Y-63478832D02*
X139269000Y-63478833D01*
X139269001Y-88037296D01*
X139193641Y-87879080D01*
X139019588Y-87645731D01*
X138803355Y-87450822D01*
X138553252Y-87301843D01*
X138390832Y-87244228D01*
X138505097Y-87196898D01*
X138706717Y-87062180D01*
X138878180Y-86890717D01*
X139012898Y-86689097D01*
X139105693Y-86465069D01*
X139153000Y-86227243D01*
X139153000Y-85984757D01*
X139105693Y-85746931D01*
X139012898Y-85522903D01*
X138878180Y-85321283D01*
X138706717Y-85149820D01*
X138505097Y-85015102D01*
X138281069Y-84922307D01*
X138043243Y-84875000D01*
X137800757Y-84875000D01*
X137562931Y-84922307D01*
X137338903Y-85015102D01*
X137137283Y-85149820D01*
X136965820Y-85321283D01*
X136831102Y-85522903D01*
X136738307Y-85746931D01*
X136691000Y-85984757D01*
X136691000Y-86227243D01*
X136738307Y-86465069D01*
X136831102Y-86689097D01*
X136965820Y-86890717D01*
X137137283Y-87062180D01*
X137338903Y-87196898D01*
X137453168Y-87244228D01*
X137290748Y-87301843D01*
X137040645Y-87450822D01*
X136824412Y-87645731D01*
X136650359Y-87879080D01*
X136525175Y-88141901D01*
X136480524Y-88289110D01*
X136601845Y-88519000D01*
X137795000Y-88519000D01*
X137795000Y-88499000D01*
X138049000Y-88499000D01*
X138049000Y-88519000D01*
X138069000Y-88519000D01*
X138069000Y-88773000D01*
X138049000Y-88773000D01*
X138049000Y-89966814D01*
X138278891Y-90087481D01*
X138553252Y-89990157D01*
X138803355Y-89841178D01*
X139019588Y-89646269D01*
X139193641Y-89412920D01*
X139269001Y-89254704D01*
X139269001Y-91009000D01*
X134874623Y-91009000D01*
X134893502Y-90973680D01*
X134929812Y-90853982D01*
X134942072Y-90729500D01*
X134939000Y-90502750D01*
X134780250Y-90344000D01*
X133731000Y-90344000D01*
X133731000Y-90364000D01*
X133477000Y-90364000D01*
X133477000Y-90344000D01*
X132427750Y-90344000D01*
X132269000Y-90502750D01*
X132265928Y-90729500D01*
X132278188Y-90853982D01*
X132314498Y-90973680D01*
X132333377Y-91009000D01*
X131097396Y-91009000D01*
X131103589Y-91005690D01*
X131199488Y-90926988D01*
X131278190Y-90831089D01*
X131336671Y-90721679D01*
X131372683Y-90602962D01*
X131384843Y-90479501D01*
X131384843Y-89954499D01*
X131372683Y-89831038D01*
X131336671Y-89712321D01*
X131278190Y-89602911D01*
X131199488Y-89507012D01*
X131103589Y-89428310D01*
X130994179Y-89369829D01*
X130875462Y-89333817D01*
X130752001Y-89321657D01*
X129851999Y-89321657D01*
X129728538Y-89333817D01*
X129609821Y-89369829D01*
X129500411Y-89428310D01*
X129404512Y-89507012D01*
X129325810Y-89602911D01*
X129268035Y-89711000D01*
X128741917Y-89711000D01*
X128650209Y-89673013D01*
X128499322Y-89643000D01*
X128345478Y-89643000D01*
X128194591Y-89673013D01*
X128052458Y-89731887D01*
X127924541Y-89817358D01*
X127815758Y-89926141D01*
X127730287Y-90054058D01*
X127671413Y-90196191D01*
X127641400Y-90347078D01*
X127641400Y-90500922D01*
X127671413Y-90651809D01*
X127730287Y-90793942D01*
X127815758Y-90921859D01*
X127902899Y-91009000D01*
X124891000Y-91009000D01*
X124891000Y-88778757D01*
X125007000Y-88778757D01*
X125007000Y-89021243D01*
X125054307Y-89259069D01*
X125147102Y-89483097D01*
X125281820Y-89684717D01*
X125453283Y-89856180D01*
X125654903Y-89990898D01*
X125878931Y-90083693D01*
X126116757Y-90131000D01*
X126359243Y-90131000D01*
X126597069Y-90083693D01*
X126821097Y-89990898D01*
X127022717Y-89856180D01*
X127194180Y-89684717D01*
X127328898Y-89483097D01*
X127421693Y-89259069D01*
X127469000Y-89021243D01*
X127469000Y-88778757D01*
X127421693Y-88540931D01*
X127328898Y-88316903D01*
X127194180Y-88115283D01*
X127022717Y-87943820D01*
X126821097Y-87809102D01*
X126597069Y-87716307D01*
X126359243Y-87669000D01*
X126116757Y-87669000D01*
X125878931Y-87716307D01*
X125654903Y-87809102D01*
X125453283Y-87943820D01*
X125281820Y-88115283D01*
X125147102Y-88316903D01*
X125054307Y-88540931D01*
X125007000Y-88778757D01*
X124891000Y-88778757D01*
X124891000Y-86238757D01*
X125007000Y-86238757D01*
X125007000Y-86481243D01*
X125054307Y-86719069D01*
X125147102Y-86943097D01*
X125281820Y-87144717D01*
X125453283Y-87316180D01*
X125654903Y-87450898D01*
X125878931Y-87543693D01*
X126116757Y-87591000D01*
X126359243Y-87591000D01*
X126597069Y-87543693D01*
X126821097Y-87450898D01*
X127022717Y-87316180D01*
X127194180Y-87144717D01*
X127328898Y-86943097D01*
X127421693Y-86719069D01*
X127469000Y-86481243D01*
X127469000Y-86238757D01*
X127421693Y-86000931D01*
X127328898Y-85776903D01*
X127194180Y-85575283D01*
X127022717Y-85403820D01*
X126970124Y-85368678D01*
X128098600Y-85368678D01*
X128098600Y-85522522D01*
X128128613Y-85673409D01*
X128187487Y-85815542D01*
X128272958Y-85943459D01*
X128381741Y-86052242D01*
X128509658Y-86137713D01*
X128651791Y-86196587D01*
X128802678Y-86226600D01*
X128956522Y-86226600D01*
X129107409Y-86196587D01*
X129249542Y-86137713D01*
X129377459Y-86052242D01*
X129486242Y-85943459D01*
X129571713Y-85815542D01*
X129630587Y-85673409D01*
X129660600Y-85522522D01*
X129660600Y-85380191D01*
X129991000Y-85049792D01*
X129991000Y-85125002D01*
X130149748Y-85125002D01*
X129991000Y-85283750D01*
X129987928Y-85398000D01*
X130000188Y-85522482D01*
X130036498Y-85642180D01*
X130095463Y-85752494D01*
X130174815Y-85849185D01*
X130243157Y-85905272D01*
X130243157Y-86165252D01*
X129961780Y-86446629D01*
X129942474Y-86462473D01*
X129879242Y-86539521D01*
X129869618Y-86557527D01*
X129832255Y-86627426D01*
X129803322Y-86722808D01*
X129793553Y-86822000D01*
X129796001Y-86846856D01*
X129796001Y-87502172D01*
X129728538Y-87508817D01*
X129609821Y-87544829D01*
X129500411Y-87603310D01*
X129404512Y-87682012D01*
X129325810Y-87777911D01*
X129267329Y-87887321D01*
X129231317Y-88006038D01*
X129219157Y-88129499D01*
X129219157Y-88654501D01*
X129231317Y-88777962D01*
X129267329Y-88896679D01*
X129325810Y-89006089D01*
X129404512Y-89101988D01*
X129500411Y-89180690D01*
X129609821Y-89239171D01*
X129728538Y-89275183D01*
X129851999Y-89287343D01*
X130752001Y-89287343D01*
X130875462Y-89275183D01*
X130994179Y-89239171D01*
X131103589Y-89180690D01*
X131199488Y-89101988D01*
X131278190Y-89006089D01*
X131335965Y-88898000D01*
X132570035Y-88898000D01*
X132627810Y-89006089D01*
X132705754Y-89101064D01*
X132659820Y-89114998D01*
X132549506Y-89173963D01*
X132452815Y-89253315D01*
X132373463Y-89350006D01*
X132314498Y-89460320D01*
X132278188Y-89580018D01*
X132265928Y-89704500D01*
X132269000Y-89931250D01*
X132427750Y-90090000D01*
X133477000Y-90090000D01*
X133477000Y-90070000D01*
X133731000Y-90070000D01*
X133731000Y-90090000D01*
X134780250Y-90090000D01*
X134939000Y-89931250D01*
X134942072Y-89704500D01*
X134929812Y-89580018D01*
X134893502Y-89460320D01*
X134834537Y-89350006D01*
X134755185Y-89253315D01*
X134658494Y-89173963D01*
X134548180Y-89114998D01*
X134502246Y-89101064D01*
X134580190Y-89006089D01*
X134581899Y-89002890D01*
X136480524Y-89002890D01*
X136525175Y-89150099D01*
X136650359Y-89412920D01*
X136824412Y-89646269D01*
X137040645Y-89841178D01*
X137290748Y-89990157D01*
X137565109Y-90087481D01*
X137795000Y-89966814D01*
X137795000Y-88773000D01*
X136601845Y-88773000D01*
X136480524Y-89002890D01*
X134581899Y-89002890D01*
X134638671Y-88896679D01*
X134674683Y-88777962D01*
X134686843Y-88654501D01*
X134686843Y-88129499D01*
X134674683Y-88006038D01*
X134638671Y-87887321D01*
X134580190Y-87777911D01*
X134501488Y-87682012D01*
X134405589Y-87603310D01*
X134296179Y-87544829D01*
X134177462Y-87508817D01*
X134054001Y-87496657D01*
X133153999Y-87496657D01*
X133030538Y-87508817D01*
X132911821Y-87544829D01*
X132802411Y-87603310D01*
X132706512Y-87682012D01*
X132627810Y-87777911D01*
X132570035Y-87886000D01*
X131335965Y-87886000D01*
X131278190Y-87777911D01*
X131199488Y-87682012D01*
X131103589Y-87603310D01*
X130994179Y-87544829D01*
X130875462Y-87508817D01*
X130808000Y-87502172D01*
X130808000Y-87031591D01*
X130858748Y-86980843D01*
X131226000Y-86980843D01*
X131300689Y-86973487D01*
X131372508Y-86951701D01*
X131438696Y-86916322D01*
X131496711Y-86868711D01*
X131544322Y-86810696D01*
X131579701Y-86744508D01*
X131601487Y-86672689D01*
X131608843Y-86598000D01*
X131608843Y-85905272D01*
X131677185Y-85849185D01*
X131756537Y-85752494D01*
X131815502Y-85642180D01*
X131851812Y-85522482D01*
X131864072Y-85398000D01*
X131861000Y-85283750D01*
X131702250Y-85125000D01*
X131053000Y-85125000D01*
X131053000Y-85145000D01*
X130799000Y-85145000D01*
X130799000Y-85125000D01*
X130779000Y-85125000D01*
X130779000Y-84871000D01*
X130799000Y-84871000D01*
X130799000Y-84121750D01*
X130640250Y-83963000D01*
X130626000Y-83959928D01*
X130554000Y-83967019D01*
X130554000Y-83871790D01*
X130646462Y-83862683D01*
X130765179Y-83826671D01*
X130874589Y-83768190D01*
X130970488Y-83689488D01*
X131049190Y-83593589D01*
X131107671Y-83484179D01*
X131143683Y-83365462D01*
X131155843Y-83242000D01*
X131155843Y-82742000D01*
X131143683Y-82618538D01*
X131107671Y-82499821D01*
X131049190Y-82390411D01*
X130970488Y-82294512D01*
X130879220Y-82219611D01*
X130897482Y-82217812D01*
X131017180Y-82181502D01*
X131127494Y-82122537D01*
X131224185Y-82043185D01*
X131303537Y-81946494D01*
X131362502Y-81836180D01*
X131398812Y-81716482D01*
X131411072Y-81592000D01*
X131408000Y-81377750D01*
X131249250Y-81219000D01*
X130175000Y-81219000D01*
X130175000Y-81239000D01*
X129921000Y-81239000D01*
X129921000Y-81219000D01*
X128846750Y-81219000D01*
X128688000Y-81377750D01*
X128684928Y-81592000D01*
X128697188Y-81716482D01*
X128733498Y-81836180D01*
X128792463Y-81946494D01*
X128871815Y-82043185D01*
X128968506Y-82122537D01*
X129078820Y-82181502D01*
X129198518Y-82217812D01*
X129216780Y-82219611D01*
X129125512Y-82294512D01*
X129046810Y-82390411D01*
X128988329Y-82499821D01*
X128952317Y-82618538D01*
X128940157Y-82742000D01*
X128940157Y-83242000D01*
X128952317Y-83365462D01*
X128988329Y-83484179D01*
X129046810Y-83593589D01*
X129125512Y-83689488D01*
X129221411Y-83768190D01*
X129330821Y-83826671D01*
X129449538Y-83862683D01*
X129542001Y-83871790D01*
X129542001Y-84067607D01*
X128945009Y-84664600D01*
X128802678Y-84664600D01*
X128651791Y-84694613D01*
X128509658Y-84753487D01*
X128381741Y-84838958D01*
X128272958Y-84947741D01*
X128187487Y-85075658D01*
X128128613Y-85217791D01*
X128098600Y-85368678D01*
X126970124Y-85368678D01*
X126821097Y-85269102D01*
X126597069Y-85176307D01*
X126359243Y-85129000D01*
X126116757Y-85129000D01*
X125878931Y-85176307D01*
X125654903Y-85269102D01*
X125453283Y-85403820D01*
X125281820Y-85575283D01*
X125147102Y-85776903D01*
X125054307Y-86000931D01*
X125007000Y-86238757D01*
X124891000Y-86238757D01*
X124891000Y-83698757D01*
X125007000Y-83698757D01*
X125007000Y-83941243D01*
X125054307Y-84179069D01*
X125147102Y-84403097D01*
X125281820Y-84604717D01*
X125453283Y-84776180D01*
X125654903Y-84910898D01*
X125878931Y-85003693D01*
X126116757Y-85051000D01*
X126359243Y-85051000D01*
X126597069Y-85003693D01*
X126821097Y-84910898D01*
X127022717Y-84776180D01*
X127194180Y-84604717D01*
X127328898Y-84403097D01*
X127421693Y-84179069D01*
X127469000Y-83941243D01*
X127469000Y-83698757D01*
X127421693Y-83460931D01*
X127328898Y-83236903D01*
X127194180Y-83035283D01*
X127022717Y-82863820D01*
X126821097Y-82729102D01*
X126597069Y-82636307D01*
X126359243Y-82589000D01*
X126116757Y-82589000D01*
X125878931Y-82636307D01*
X125654903Y-82729102D01*
X125453283Y-82863820D01*
X125281820Y-83035283D01*
X125147102Y-83236903D01*
X125054307Y-83460931D01*
X125007000Y-83698757D01*
X124891000Y-83698757D01*
X124891000Y-81158757D01*
X125007000Y-81158757D01*
X125007000Y-81401243D01*
X125054307Y-81639069D01*
X125147102Y-81863097D01*
X125281820Y-82064717D01*
X125453283Y-82236180D01*
X125654903Y-82370898D01*
X125878931Y-82463693D01*
X126116757Y-82511000D01*
X126359243Y-82511000D01*
X126597069Y-82463693D01*
X126821097Y-82370898D01*
X127022717Y-82236180D01*
X127194180Y-82064717D01*
X127328898Y-81863097D01*
X127421693Y-81639069D01*
X127469000Y-81401243D01*
X127469000Y-81158757D01*
X127421693Y-80920931D01*
X127328898Y-80696903D01*
X127258805Y-80592000D01*
X128684928Y-80592000D01*
X128688000Y-80806250D01*
X128846750Y-80965000D01*
X129921000Y-80965000D01*
X129921000Y-80115750D01*
X130175000Y-80115750D01*
X130175000Y-80965000D01*
X131249250Y-80965000D01*
X131408000Y-80806250D01*
X131411072Y-80592000D01*
X131398812Y-80467518D01*
X131362502Y-80347820D01*
X131303537Y-80237506D01*
X131224185Y-80140815D01*
X131127494Y-80061463D01*
X131017180Y-80002498D01*
X130897482Y-79966188D01*
X130773000Y-79953928D01*
X130333750Y-79957000D01*
X130175000Y-80115750D01*
X129921000Y-80115750D01*
X129762250Y-79957000D01*
X129323000Y-79953928D01*
X129198518Y-79966188D01*
X129078820Y-80002498D01*
X128968506Y-80061463D01*
X128871815Y-80140815D01*
X128792463Y-80237506D01*
X128733498Y-80347820D01*
X128697188Y-80467518D01*
X128684928Y-80592000D01*
X127258805Y-80592000D01*
X127194180Y-80495283D01*
X127022717Y-80323820D01*
X126821097Y-80189102D01*
X126597069Y-80096307D01*
X126359243Y-80049000D01*
X126116757Y-80049000D01*
X125878931Y-80096307D01*
X125654903Y-80189102D01*
X125453283Y-80323820D01*
X125281820Y-80495283D01*
X125147102Y-80696903D01*
X125054307Y-80920931D01*
X125007000Y-81158757D01*
X124891000Y-81158757D01*
X124891000Y-78618757D01*
X125007000Y-78618757D01*
X125007000Y-78861243D01*
X125054307Y-79099069D01*
X125147102Y-79323097D01*
X125281820Y-79524717D01*
X125453283Y-79696180D01*
X125654903Y-79830898D01*
X125878931Y-79923693D01*
X126116757Y-79971000D01*
X126359243Y-79971000D01*
X126597069Y-79923693D01*
X126821097Y-79830898D01*
X127022717Y-79696180D01*
X127194180Y-79524717D01*
X127328898Y-79323097D01*
X127390655Y-79174000D01*
X128684928Y-79174000D01*
X128697188Y-79298482D01*
X128733498Y-79418180D01*
X128792463Y-79528494D01*
X128871815Y-79625185D01*
X128968506Y-79704537D01*
X129078820Y-79763502D01*
X129198518Y-79799812D01*
X129323000Y-79812072D01*
X129762250Y-79809000D01*
X129921000Y-79650250D01*
X129921000Y-78801000D01*
X130175000Y-78801000D01*
X130175000Y-79650250D01*
X130333750Y-79809000D01*
X130773000Y-79812072D01*
X130897482Y-79799812D01*
X131017180Y-79763502D01*
X131127494Y-79704537D01*
X131224185Y-79625185D01*
X131303537Y-79528494D01*
X131362502Y-79418180D01*
X131398812Y-79298482D01*
X131411072Y-79174000D01*
X131408000Y-78959750D01*
X131249250Y-78801000D01*
X130175000Y-78801000D01*
X129921000Y-78801000D01*
X128846750Y-78801000D01*
X128688000Y-78959750D01*
X128684928Y-79174000D01*
X127390655Y-79174000D01*
X127421693Y-79099069D01*
X127469000Y-78861243D01*
X127469000Y-78618757D01*
X127421693Y-78380931D01*
X127328898Y-78156903D01*
X127194180Y-77955283D01*
X127022717Y-77783820D01*
X126821097Y-77649102D01*
X126597069Y-77556307D01*
X126359243Y-77509000D01*
X126116757Y-77509000D01*
X125878931Y-77556307D01*
X125654903Y-77649102D01*
X125453283Y-77783820D01*
X125281820Y-77955283D01*
X125147102Y-78156903D01*
X125054307Y-78380931D01*
X125007000Y-78618757D01*
X124891000Y-78618757D01*
X124891000Y-76078757D01*
X125007000Y-76078757D01*
X125007000Y-76321243D01*
X125054307Y-76559069D01*
X125147102Y-76783097D01*
X125281820Y-76984717D01*
X125453283Y-77156180D01*
X125654903Y-77290898D01*
X125878931Y-77383693D01*
X126116757Y-77431000D01*
X126359243Y-77431000D01*
X126597069Y-77383693D01*
X126821097Y-77290898D01*
X126982336Y-77183162D01*
X126981000Y-77189878D01*
X126981000Y-77343722D01*
X127011013Y-77494609D01*
X127069887Y-77636742D01*
X127155358Y-77764659D01*
X127264141Y-77873442D01*
X127392058Y-77958913D01*
X127534191Y-78017787D01*
X127685078Y-78047800D01*
X127838922Y-78047800D01*
X127989809Y-78017787D01*
X128131942Y-77958913D01*
X128259859Y-77873442D01*
X128368642Y-77764659D01*
X128454113Y-77636742D01*
X128512987Y-77494609D01*
X128543000Y-77343722D01*
X128543000Y-77280000D01*
X128995716Y-77280000D01*
X129046810Y-77375589D01*
X129125512Y-77471488D01*
X129216780Y-77546389D01*
X129198518Y-77548188D01*
X129078820Y-77584498D01*
X128968506Y-77643463D01*
X128871815Y-77722815D01*
X128792463Y-77819506D01*
X128733498Y-77929820D01*
X128697188Y-78049518D01*
X128684928Y-78174000D01*
X128688000Y-78388250D01*
X128846750Y-78547000D01*
X129921000Y-78547000D01*
X129921000Y-78527000D01*
X130175000Y-78527000D01*
X130175000Y-78547000D01*
X131249250Y-78547000D01*
X131408000Y-78388250D01*
X131411072Y-78174000D01*
X131398812Y-78049518D01*
X131362502Y-77929820D01*
X131303537Y-77819506D01*
X131224185Y-77722815D01*
X131127494Y-77643463D01*
X131017180Y-77584498D01*
X130897482Y-77548188D01*
X130879220Y-77546389D01*
X130970488Y-77471488D01*
X131049190Y-77375589D01*
X131107671Y-77266179D01*
X131143683Y-77147462D01*
X131155843Y-77024000D01*
X131155843Y-76524000D01*
X131143683Y-76400538D01*
X131107671Y-76281821D01*
X131049190Y-76172411D01*
X130970488Y-76076512D01*
X130874589Y-75997810D01*
X130765179Y-75939329D01*
X130646462Y-75903317D01*
X130523000Y-75891157D01*
X129573000Y-75891157D01*
X129449538Y-75903317D01*
X129330821Y-75939329D01*
X129221411Y-75997810D01*
X129125512Y-76076512D01*
X129046810Y-76172411D01*
X128995716Y-76268000D01*
X128228845Y-76268000D01*
X128203999Y-76265553D01*
X128179153Y-76268000D01*
X128179146Y-76268000D01*
X128114694Y-76274348D01*
X128104806Y-76275322D01*
X128083382Y-76281821D01*
X128009425Y-76304255D01*
X127921521Y-76351241D01*
X127844473Y-76414473D01*
X127828629Y-76433779D01*
X127776608Y-76485800D01*
X127685078Y-76485800D01*
X127534191Y-76515813D01*
X127420022Y-76563104D01*
X127421693Y-76559069D01*
X127469000Y-76321243D01*
X127469000Y-76078757D01*
X127421693Y-75840931D01*
X127328898Y-75616903D01*
X127194180Y-75415283D01*
X127022717Y-75243820D01*
X126821097Y-75109102D01*
X126597069Y-75016307D01*
X126359243Y-74969000D01*
X126116757Y-74969000D01*
X125878931Y-75016307D01*
X125654903Y-75109102D01*
X125453283Y-75243820D01*
X125281820Y-75415283D01*
X125147102Y-75616903D01*
X125054307Y-75840931D01*
X125007000Y-76078757D01*
X124891000Y-76078757D01*
X124891000Y-73538757D01*
X125007000Y-73538757D01*
X125007000Y-73781243D01*
X125054307Y-74019069D01*
X125147102Y-74243097D01*
X125281820Y-74444717D01*
X125453283Y-74616180D01*
X125654903Y-74750898D01*
X125878931Y-74843693D01*
X126116757Y-74891000D01*
X126359243Y-74891000D01*
X126597069Y-74843693D01*
X126821097Y-74750898D01*
X127022717Y-74616180D01*
X127194180Y-74444717D01*
X127328898Y-74243097D01*
X127421693Y-74019069D01*
X127469000Y-73781243D01*
X127469000Y-73538757D01*
X127421693Y-73300931D01*
X127328898Y-73076903D01*
X127194180Y-72875283D01*
X127022717Y-72703820D01*
X126821097Y-72569102D01*
X126597069Y-72476307D01*
X126359243Y-72429000D01*
X126116757Y-72429000D01*
X125878931Y-72476307D01*
X125654903Y-72569102D01*
X125453283Y-72703820D01*
X125281820Y-72875283D01*
X125147102Y-73076903D01*
X125054307Y-73300931D01*
X125007000Y-73538757D01*
X124891000Y-73538757D01*
X124891000Y-65190000D01*
X125005157Y-65190000D01*
X125005157Y-66890000D01*
X125012513Y-66964689D01*
X125034299Y-67036508D01*
X125069678Y-67102696D01*
X125117289Y-67160711D01*
X125175304Y-67208322D01*
X125241492Y-67243701D01*
X125313311Y-67265487D01*
X125388000Y-67272843D01*
X126399652Y-67272843D01*
X126504753Y-67377944D01*
X126359243Y-67349000D01*
X126116757Y-67349000D01*
X125878931Y-67396307D01*
X125654903Y-67489102D01*
X125453283Y-67623820D01*
X125281820Y-67795283D01*
X125147102Y-67996903D01*
X125054307Y-68220931D01*
X125007000Y-68458757D01*
X125007000Y-68701243D01*
X125054307Y-68939069D01*
X125147102Y-69163097D01*
X125281820Y-69364717D01*
X125453283Y-69536180D01*
X125654903Y-69670898D01*
X125878931Y-69763693D01*
X125960284Y-69779875D01*
X126077265Y-69896856D01*
X125878931Y-69936307D01*
X125654903Y-70029102D01*
X125453283Y-70163820D01*
X125281820Y-70335283D01*
X125147102Y-70536903D01*
X125054307Y-70760931D01*
X125007000Y-70998757D01*
X125007000Y-71241243D01*
X125054307Y-71479069D01*
X125147102Y-71703097D01*
X125281820Y-71904717D01*
X125453283Y-72076180D01*
X125654903Y-72210898D01*
X125878931Y-72303693D01*
X126116757Y-72351000D01*
X126359243Y-72351000D01*
X126597069Y-72303693D01*
X126821097Y-72210898D01*
X127022717Y-72076180D01*
X127194180Y-71904717D01*
X127328898Y-71703097D01*
X127421693Y-71479069D01*
X127461144Y-71280736D01*
X129521000Y-73340592D01*
X129521000Y-73482922D01*
X129551013Y-73633809D01*
X129609887Y-73775942D01*
X129695358Y-73903859D01*
X129804141Y-74012642D01*
X129932058Y-74098113D01*
X130074191Y-74156987D01*
X130225078Y-74187000D01*
X130378922Y-74187000D01*
X130529809Y-74156987D01*
X130671942Y-74098113D01*
X130799859Y-74012642D01*
X130908642Y-73903859D01*
X130964401Y-73820410D01*
X130964401Y-74041544D01*
X130961953Y-74066400D01*
X130971722Y-74165592D01*
X131000655Y-74260974D01*
X131000656Y-74260975D01*
X131047642Y-74348879D01*
X131110874Y-74425927D01*
X131130180Y-74441771D01*
X131299006Y-74610597D01*
X131299006Y-74752928D01*
X131329019Y-74903815D01*
X131387893Y-75045948D01*
X131473364Y-75173865D01*
X131574006Y-75274507D01*
X131574007Y-84063996D01*
X131470180Y-84008498D01*
X131350482Y-83972188D01*
X131226000Y-83959928D01*
X131211750Y-83963000D01*
X131053000Y-84121750D01*
X131053000Y-84871000D01*
X131702250Y-84871000D01*
X131792829Y-84780421D01*
X132043157Y-85030748D01*
X132043157Y-85398000D01*
X132050513Y-85472689D01*
X132072299Y-85544508D01*
X132100892Y-85598000D01*
X132072299Y-85651492D01*
X132050513Y-85723311D01*
X132043157Y-85798000D01*
X132043157Y-86598000D01*
X132050513Y-86672689D01*
X132072299Y-86744508D01*
X132107678Y-86810696D01*
X132155289Y-86868711D01*
X132213304Y-86916322D01*
X132279492Y-86951701D01*
X132351311Y-86973487D01*
X132426000Y-86980843D01*
X133026000Y-86980843D01*
X133100689Y-86973487D01*
X133172508Y-86951701D01*
X133238696Y-86916322D01*
X133296711Y-86868711D01*
X133344322Y-86810696D01*
X133379701Y-86744508D01*
X133391989Y-86704000D01*
X134045954Y-86704000D01*
X134070800Y-86706447D01*
X134095646Y-86704000D01*
X134095654Y-86704000D01*
X134169993Y-86696678D01*
X134265375Y-86667745D01*
X134353279Y-86620759D01*
X134430327Y-86557527D01*
X134446176Y-86538215D01*
X135011792Y-85972600D01*
X135154122Y-85972600D01*
X135305009Y-85942587D01*
X135447142Y-85883713D01*
X135575059Y-85798242D01*
X135683842Y-85689459D01*
X135769313Y-85561542D01*
X135828187Y-85419409D01*
X135858200Y-85268522D01*
X135858200Y-85114678D01*
X135828187Y-84963791D01*
X135769313Y-84821658D01*
X135683842Y-84693741D01*
X135575059Y-84584958D01*
X135447142Y-84499487D01*
X135305009Y-84440613D01*
X135154122Y-84410600D01*
X135062592Y-84410600D01*
X134872000Y-84220009D01*
X134872000Y-83805790D01*
X134964462Y-83796683D01*
X135083179Y-83760671D01*
X135192589Y-83702190D01*
X135288488Y-83623488D01*
X135367190Y-83527589D01*
X135411464Y-83444757D01*
X136691000Y-83444757D01*
X136691000Y-83687243D01*
X136738307Y-83925069D01*
X136831102Y-84149097D01*
X136965820Y-84350717D01*
X137137283Y-84522180D01*
X137338903Y-84656898D01*
X137562931Y-84749693D01*
X137800757Y-84797000D01*
X138043243Y-84797000D01*
X138281069Y-84749693D01*
X138505097Y-84656898D01*
X138706717Y-84522180D01*
X138878180Y-84350717D01*
X139012898Y-84149097D01*
X139105693Y-83925069D01*
X139153000Y-83687243D01*
X139153000Y-83444757D01*
X139105693Y-83206931D01*
X139012898Y-82982903D01*
X138878180Y-82781283D01*
X138706717Y-82609820D01*
X138505097Y-82475102D01*
X138281069Y-82382307D01*
X138043243Y-82335000D01*
X137800757Y-82335000D01*
X137562931Y-82382307D01*
X137338903Y-82475102D01*
X137137283Y-82609820D01*
X136965820Y-82781283D01*
X136831102Y-82982903D01*
X136738307Y-83206931D01*
X136691000Y-83444757D01*
X135411464Y-83444757D01*
X135425671Y-83418179D01*
X135461683Y-83299462D01*
X135473843Y-83176000D01*
X135473843Y-82676000D01*
X135461683Y-82552538D01*
X135425671Y-82433821D01*
X135367190Y-82324411D01*
X135288488Y-82228512D01*
X135197220Y-82153611D01*
X135215482Y-82151812D01*
X135335180Y-82115502D01*
X135445494Y-82056537D01*
X135542185Y-81977185D01*
X135621537Y-81880494D01*
X135680502Y-81770180D01*
X135716812Y-81650482D01*
X135729072Y-81526000D01*
X135726000Y-81311750D01*
X135567250Y-81153000D01*
X134493000Y-81153000D01*
X134493000Y-81173000D01*
X134239000Y-81173000D01*
X134239000Y-81153000D01*
X133164750Y-81153000D01*
X133006000Y-81311750D01*
X133002928Y-81526000D01*
X133015188Y-81650482D01*
X133051498Y-81770180D01*
X133110463Y-81880494D01*
X133189815Y-81977185D01*
X133286506Y-82056537D01*
X133396820Y-82115502D01*
X133516518Y-82151812D01*
X133534780Y-82153611D01*
X133443512Y-82228512D01*
X133364810Y-82324411D01*
X133306329Y-82433821D01*
X133270317Y-82552538D01*
X133258157Y-82676000D01*
X133258157Y-83176000D01*
X133270317Y-83299462D01*
X133306329Y-83418179D01*
X133364810Y-83527589D01*
X133443512Y-83623488D01*
X133539411Y-83702190D01*
X133648821Y-83760671D01*
X133767538Y-83796683D01*
X133860001Y-83805790D01*
X133860001Y-84404744D01*
X133857553Y-84429600D01*
X133867322Y-84528792D01*
X133896255Y-84624174D01*
X133896256Y-84624175D01*
X133943242Y-84712079D01*
X134006474Y-84789127D01*
X134025780Y-84804971D01*
X134302718Y-85081910D01*
X134296200Y-85114678D01*
X134296200Y-85257008D01*
X133861209Y-85692000D01*
X133391989Y-85692000D01*
X133379701Y-85651492D01*
X133351108Y-85598000D01*
X133379701Y-85544508D01*
X133401487Y-85472689D01*
X133408843Y-85398000D01*
X133408843Y-84598000D01*
X133401487Y-84523311D01*
X133379701Y-84451492D01*
X133344322Y-84385304D01*
X133296711Y-84327289D01*
X133238696Y-84279678D01*
X133172508Y-84244299D01*
X133100689Y-84222513D01*
X133026000Y-84215157D01*
X132658748Y-84215157D01*
X132586006Y-84142415D01*
X132586006Y-80904757D01*
X136691000Y-80904757D01*
X136691000Y-81147243D01*
X136738307Y-81385069D01*
X136831102Y-81609097D01*
X136965820Y-81810717D01*
X137137283Y-81982180D01*
X137338903Y-82116898D01*
X137562931Y-82209693D01*
X137800757Y-82257000D01*
X138043243Y-82257000D01*
X138281069Y-82209693D01*
X138505097Y-82116898D01*
X138706717Y-81982180D01*
X138878180Y-81810717D01*
X139012898Y-81609097D01*
X139105693Y-81385069D01*
X139153000Y-81147243D01*
X139153000Y-80904757D01*
X139105693Y-80666931D01*
X139012898Y-80442903D01*
X138878180Y-80241283D01*
X138706717Y-80069820D01*
X138505097Y-79935102D01*
X138281069Y-79842307D01*
X138043243Y-79795000D01*
X137800757Y-79795000D01*
X137562931Y-79842307D01*
X137338903Y-79935102D01*
X137137283Y-80069820D01*
X136965820Y-80241283D01*
X136831102Y-80442903D01*
X136738307Y-80666931D01*
X136691000Y-80904757D01*
X132586006Y-80904757D01*
X132586006Y-80526000D01*
X133002928Y-80526000D01*
X133006000Y-80740250D01*
X133164750Y-80899000D01*
X134239000Y-80899000D01*
X134239000Y-80049750D01*
X134493000Y-80049750D01*
X134493000Y-80899000D01*
X135567250Y-80899000D01*
X135726000Y-80740250D01*
X135729072Y-80526000D01*
X135716812Y-80401518D01*
X135680502Y-80281820D01*
X135621537Y-80171506D01*
X135542185Y-80074815D01*
X135445494Y-79995463D01*
X135335180Y-79936498D01*
X135215482Y-79900188D01*
X135091000Y-79887928D01*
X134651750Y-79891000D01*
X134493000Y-80049750D01*
X134239000Y-80049750D01*
X134080250Y-79891000D01*
X133641000Y-79887928D01*
X133516518Y-79900188D01*
X133396820Y-79936498D01*
X133286506Y-79995463D01*
X133189815Y-80074815D01*
X133110463Y-80171506D01*
X133051498Y-80281820D01*
X133015188Y-80401518D01*
X133002928Y-80526000D01*
X132586006Y-80526000D01*
X132586006Y-79174000D01*
X133002928Y-79174000D01*
X133015188Y-79298482D01*
X133051498Y-79418180D01*
X133110463Y-79528494D01*
X133189815Y-79625185D01*
X133286506Y-79704537D01*
X133396820Y-79763502D01*
X133516518Y-79799812D01*
X133641000Y-79812072D01*
X134080250Y-79809000D01*
X134239000Y-79650250D01*
X134239000Y-78801000D01*
X134493000Y-78801000D01*
X134493000Y-79650250D01*
X134651750Y-79809000D01*
X135091000Y-79812072D01*
X135215482Y-79799812D01*
X135335180Y-79763502D01*
X135445494Y-79704537D01*
X135542185Y-79625185D01*
X135621537Y-79528494D01*
X135680502Y-79418180D01*
X135716812Y-79298482D01*
X135729072Y-79174000D01*
X135726000Y-78959750D01*
X135567250Y-78801000D01*
X134493000Y-78801000D01*
X134239000Y-78801000D01*
X133164750Y-78801000D01*
X133006000Y-78959750D01*
X133002928Y-79174000D01*
X132586006Y-79174000D01*
X132586006Y-78174000D01*
X133002928Y-78174000D01*
X133006000Y-78388250D01*
X133164750Y-78547000D01*
X134239000Y-78547000D01*
X134239000Y-78527000D01*
X134493000Y-78527000D01*
X134493000Y-78547000D01*
X135567250Y-78547000D01*
X135726000Y-78388250D01*
X135726336Y-78364757D01*
X136691000Y-78364757D01*
X136691000Y-78607243D01*
X136738307Y-78845069D01*
X136831102Y-79069097D01*
X136965820Y-79270717D01*
X137137283Y-79442180D01*
X137338903Y-79576898D01*
X137562931Y-79669693D01*
X137800757Y-79717000D01*
X138043243Y-79717000D01*
X138281069Y-79669693D01*
X138505097Y-79576898D01*
X138706717Y-79442180D01*
X138878180Y-79270717D01*
X139012898Y-79069097D01*
X139105693Y-78845069D01*
X139153000Y-78607243D01*
X139153000Y-78364757D01*
X139105693Y-78126931D01*
X139012898Y-77902903D01*
X138878180Y-77701283D01*
X138706717Y-77529820D01*
X138505097Y-77395102D01*
X138281069Y-77302307D01*
X138043243Y-77255000D01*
X137800757Y-77255000D01*
X137562931Y-77302307D01*
X137338903Y-77395102D01*
X137137283Y-77529820D01*
X136965820Y-77701283D01*
X136831102Y-77902903D01*
X136738307Y-78126931D01*
X136691000Y-78364757D01*
X135726336Y-78364757D01*
X135729072Y-78174000D01*
X135716812Y-78049518D01*
X135680502Y-77929820D01*
X135621537Y-77819506D01*
X135542185Y-77722815D01*
X135445494Y-77643463D01*
X135335180Y-77584498D01*
X135215482Y-77548188D01*
X135197220Y-77546389D01*
X135288488Y-77471488D01*
X135367190Y-77375589D01*
X135425671Y-77266179D01*
X135461683Y-77147462D01*
X135473843Y-77024000D01*
X135473843Y-76524000D01*
X135461683Y-76400538D01*
X135460140Y-76395451D01*
X136030834Y-75824757D01*
X136691000Y-75824757D01*
X136691000Y-76067243D01*
X136738307Y-76305069D01*
X136831102Y-76529097D01*
X136965820Y-76730717D01*
X137137283Y-76902180D01*
X137338903Y-77036898D01*
X137562931Y-77129693D01*
X137800757Y-77177000D01*
X138043243Y-77177000D01*
X138281069Y-77129693D01*
X138505097Y-77036898D01*
X138706717Y-76902180D01*
X138878180Y-76730717D01*
X139012898Y-76529097D01*
X139105693Y-76305069D01*
X139153000Y-76067243D01*
X139153000Y-75824757D01*
X139105693Y-75586931D01*
X139012898Y-75362903D01*
X138878180Y-75161283D01*
X138706717Y-74989820D01*
X138505097Y-74855102D01*
X138281069Y-74762307D01*
X138043243Y-74715000D01*
X137800757Y-74715000D01*
X137562931Y-74762307D01*
X137338903Y-74855102D01*
X137137283Y-74989820D01*
X136965820Y-75161283D01*
X136831102Y-75362903D01*
X136738307Y-75586931D01*
X136691000Y-75824757D01*
X136030834Y-75824757D01*
X136535020Y-75320572D01*
X136554327Y-75304727D01*
X136617559Y-75227679D01*
X136656852Y-75154167D01*
X136692659Y-75130242D01*
X136801442Y-75021459D01*
X136886913Y-74893542D01*
X136945787Y-74751409D01*
X136975800Y-74600522D01*
X136975800Y-74446678D01*
X136945787Y-74295791D01*
X136886913Y-74153658D01*
X136801442Y-74025741D01*
X136692659Y-73916958D01*
X136564742Y-73831487D01*
X136422609Y-73772613D01*
X136271722Y-73742600D01*
X136117878Y-73742600D01*
X135966991Y-73772613D01*
X135824858Y-73831487D01*
X135696941Y-73916958D01*
X135588158Y-74025741D01*
X135502687Y-74153658D01*
X135443813Y-74295791D01*
X135413800Y-74446678D01*
X135413800Y-74600522D01*
X135443813Y-74751409D01*
X135502687Y-74893542D01*
X135513974Y-74910434D01*
X134533252Y-75891157D01*
X133891000Y-75891157D01*
X133767538Y-75903317D01*
X133648821Y-75939329D01*
X133539411Y-75997810D01*
X133443512Y-76076512D01*
X133364810Y-76172411D01*
X133306329Y-76281821D01*
X133270317Y-76400538D01*
X133258157Y-76524000D01*
X133258157Y-77024000D01*
X133270317Y-77147462D01*
X133306329Y-77266179D01*
X133364810Y-77375589D01*
X133443512Y-77471488D01*
X133534780Y-77546389D01*
X133516518Y-77548188D01*
X133396820Y-77584498D01*
X133286506Y-77643463D01*
X133189815Y-77722815D01*
X133110463Y-77819506D01*
X133051498Y-77929820D01*
X133015188Y-78049518D01*
X133002928Y-78174000D01*
X132586006Y-78174000D01*
X132586006Y-75274507D01*
X132686648Y-75173865D01*
X132772119Y-75045948D01*
X132830993Y-74903815D01*
X132861006Y-74752928D01*
X132861006Y-74599084D01*
X132830993Y-74448197D01*
X132772119Y-74306064D01*
X132686648Y-74178147D01*
X132577865Y-74069364D01*
X132449948Y-73983893D01*
X132307815Y-73925019D01*
X132156928Y-73895006D01*
X132014597Y-73895006D01*
X131976400Y-73856809D01*
X131976400Y-73361495D01*
X132632850Y-73361495D01*
X132632850Y-73515339D01*
X132662863Y-73666226D01*
X132721737Y-73808359D01*
X132807208Y-73936276D01*
X132915991Y-74045059D01*
X133043908Y-74130530D01*
X133186041Y-74189404D01*
X133336928Y-74219417D01*
X133490772Y-74219417D01*
X133641659Y-74189404D01*
X133783792Y-74130530D01*
X133911709Y-74045059D01*
X134020492Y-73936276D01*
X134105963Y-73808359D01*
X134164837Y-73666226D01*
X134194850Y-73515339D01*
X134194850Y-73361495D01*
X134179587Y-73284757D01*
X136691000Y-73284757D01*
X136691000Y-73527243D01*
X136738307Y-73765069D01*
X136831102Y-73989097D01*
X136965820Y-74190717D01*
X137137283Y-74362180D01*
X137338903Y-74496898D01*
X137562931Y-74589693D01*
X137800757Y-74637000D01*
X138043243Y-74637000D01*
X138281069Y-74589693D01*
X138505097Y-74496898D01*
X138706717Y-74362180D01*
X138878180Y-74190717D01*
X139012898Y-73989097D01*
X139105693Y-73765069D01*
X139153000Y-73527243D01*
X139153000Y-73284757D01*
X139105693Y-73046931D01*
X139012898Y-72822903D01*
X138878180Y-72621283D01*
X138706717Y-72449820D01*
X138505097Y-72315102D01*
X138281069Y-72222307D01*
X138043243Y-72175000D01*
X137800757Y-72175000D01*
X137562931Y-72222307D01*
X137338903Y-72315102D01*
X137137283Y-72449820D01*
X136965820Y-72621283D01*
X136831102Y-72822903D01*
X136738307Y-73046931D01*
X136691000Y-73284757D01*
X134179587Y-73284757D01*
X134164837Y-73210608D01*
X134105963Y-73068475D01*
X134021510Y-72942081D01*
X136218834Y-70744757D01*
X136691000Y-70744757D01*
X136691000Y-70987243D01*
X136738307Y-71225069D01*
X136831102Y-71449097D01*
X136965820Y-71650717D01*
X137137283Y-71822180D01*
X137338903Y-71956898D01*
X137562931Y-72049693D01*
X137800757Y-72097000D01*
X138043243Y-72097000D01*
X138281069Y-72049693D01*
X138505097Y-71956898D01*
X138706717Y-71822180D01*
X138878180Y-71650717D01*
X139012898Y-71449097D01*
X139105693Y-71225069D01*
X139153000Y-70987243D01*
X139153000Y-70744757D01*
X139105693Y-70506931D01*
X139012898Y-70282903D01*
X138878180Y-70081283D01*
X138706717Y-69909820D01*
X138505097Y-69775102D01*
X138281069Y-69682307D01*
X138043243Y-69635000D01*
X137800757Y-69635000D01*
X137562931Y-69682307D01*
X137338903Y-69775102D01*
X137137283Y-69909820D01*
X136965820Y-70081283D01*
X136831102Y-70282903D01*
X136738307Y-70506931D01*
X136691000Y-70744757D01*
X136218834Y-70744757D01*
X137485834Y-69477758D01*
X137562931Y-69509693D01*
X137800757Y-69557000D01*
X138043243Y-69557000D01*
X138281069Y-69509693D01*
X138505097Y-69416898D01*
X138706717Y-69282180D01*
X138878180Y-69110717D01*
X139012898Y-68909097D01*
X139105693Y-68685069D01*
X139153000Y-68447243D01*
X139153000Y-68204757D01*
X139105693Y-67966931D01*
X139012898Y-67742903D01*
X138878180Y-67541283D01*
X138706717Y-67369820D01*
X138505097Y-67235102D01*
X138281069Y-67142307D01*
X138043243Y-67095000D01*
X137800757Y-67095000D01*
X137562931Y-67142307D01*
X137338903Y-67235102D01*
X137137283Y-67369820D01*
X136965820Y-67541283D01*
X136831102Y-67742903D01*
X136738307Y-67966931D01*
X136691000Y-68204757D01*
X136691000Y-68447243D01*
X136738307Y-68685069D01*
X136770242Y-68762166D01*
X133073635Y-72458774D01*
X133054323Y-72474623D01*
X132991091Y-72551671D01*
X132944105Y-72639576D01*
X132915172Y-72734958D01*
X132907850Y-72809297D01*
X132907850Y-72809304D01*
X132905403Y-72834150D01*
X132906139Y-72841627D01*
X132807208Y-72940558D01*
X132721737Y-73068475D01*
X132662863Y-73210608D01*
X132632850Y-73361495D01*
X131976400Y-73361495D01*
X131976400Y-73329245D01*
X131978847Y-73304399D01*
X131976400Y-73279553D01*
X131976400Y-73279546D01*
X131969078Y-73205207D01*
X131940145Y-73109825D01*
X131893159Y-73021921D01*
X131829927Y-72944873D01*
X131810620Y-72929028D01*
X128420400Y-69538809D01*
X128420400Y-68096854D01*
X128422848Y-68072000D01*
X128422061Y-68064000D01*
X128634128Y-68064000D01*
X128646388Y-68188482D01*
X128682698Y-68308180D01*
X128741663Y-68418494D01*
X128821015Y-68515185D01*
X128917706Y-68594537D01*
X129028020Y-68653502D01*
X129147718Y-68689812D01*
X129165980Y-68691611D01*
X129074712Y-68766512D01*
X128996010Y-68862411D01*
X128937529Y-68971821D01*
X128901517Y-69090538D01*
X128889357Y-69214000D01*
X128889357Y-69714000D01*
X128901517Y-69837462D01*
X128937529Y-69956179D01*
X128996010Y-70065589D01*
X129074712Y-70161488D01*
X129170611Y-70240190D01*
X129280021Y-70298671D01*
X129398738Y-70334683D01*
X129522200Y-70346843D01*
X130472200Y-70346843D01*
X130595662Y-70334683D01*
X130714379Y-70298671D01*
X130823789Y-70240190D01*
X130919688Y-70161488D01*
X130998390Y-70065589D01*
X131049484Y-69970000D01*
X131410299Y-69970000D01*
X131510941Y-70070642D01*
X131638858Y-70156113D01*
X131780991Y-70214987D01*
X131931878Y-70245000D01*
X132085722Y-70245000D01*
X132236609Y-70214987D01*
X132378742Y-70156113D01*
X132506659Y-70070642D01*
X132607301Y-69970000D01*
X133313716Y-69970000D01*
X133364810Y-70065589D01*
X133443512Y-70161488D01*
X133539411Y-70240190D01*
X133648821Y-70298671D01*
X133767538Y-70334683D01*
X133891000Y-70346843D01*
X134841000Y-70346843D01*
X134964462Y-70334683D01*
X135083179Y-70298671D01*
X135192589Y-70240190D01*
X135288488Y-70161488D01*
X135367190Y-70065589D01*
X135425671Y-69956179D01*
X135461683Y-69837462D01*
X135473843Y-69714000D01*
X135473843Y-69214000D01*
X135461683Y-69090538D01*
X135425671Y-68971821D01*
X135367190Y-68862411D01*
X135288488Y-68766512D01*
X135192589Y-68687810D01*
X135083179Y-68629329D01*
X134964462Y-68593317D01*
X134841000Y-68581157D01*
X133891000Y-68581157D01*
X133767538Y-68593317D01*
X133648821Y-68629329D01*
X133539411Y-68687810D01*
X133443512Y-68766512D01*
X133364810Y-68862411D01*
X133313716Y-68958000D01*
X132607301Y-68958000D01*
X132506659Y-68857358D01*
X132378742Y-68771887D01*
X132236609Y-68713013D01*
X132085722Y-68683000D01*
X131931878Y-68683000D01*
X131780991Y-68713013D01*
X131638858Y-68771887D01*
X131510941Y-68857358D01*
X131410299Y-68958000D01*
X131049484Y-68958000D01*
X130998390Y-68862411D01*
X130919688Y-68766512D01*
X130828420Y-68691611D01*
X130846682Y-68689812D01*
X130966380Y-68653502D01*
X131076694Y-68594537D01*
X131173385Y-68515185D01*
X131252737Y-68418494D01*
X131311702Y-68308180D01*
X131348012Y-68188482D01*
X131360272Y-68064000D01*
X131357200Y-67849750D01*
X131198450Y-67691000D01*
X130124200Y-67691000D01*
X130124200Y-67711000D01*
X129870200Y-67711000D01*
X129870200Y-67691000D01*
X128795950Y-67691000D01*
X128637200Y-67849750D01*
X128634128Y-68064000D01*
X128422061Y-68064000D01*
X128413078Y-67972807D01*
X128384145Y-67877425D01*
X128357364Y-67827322D01*
X128337159Y-67789521D01*
X128273927Y-67712473D01*
X128254620Y-67696628D01*
X127621992Y-67064000D01*
X128634128Y-67064000D01*
X128637200Y-67278250D01*
X128795950Y-67437000D01*
X129870200Y-67437000D01*
X129870200Y-66587750D01*
X130124200Y-66587750D01*
X130124200Y-67437000D01*
X131198450Y-67437000D01*
X131357200Y-67278250D01*
X131360272Y-67064000D01*
X131348012Y-66939518D01*
X131311702Y-66819820D01*
X131252737Y-66709506D01*
X131173385Y-66612815D01*
X131076694Y-66533463D01*
X130966380Y-66474498D01*
X130846682Y-66438188D01*
X130722200Y-66425928D01*
X130282950Y-66429000D01*
X130124200Y-66587750D01*
X129870200Y-66587750D01*
X129711450Y-66429000D01*
X129272200Y-66425928D01*
X129147718Y-66438188D01*
X129028020Y-66474498D01*
X128917706Y-66533463D01*
X128821015Y-66612815D01*
X128741663Y-66709506D01*
X128682698Y-66819820D01*
X128646388Y-66939518D01*
X128634128Y-67064000D01*
X127621992Y-67064000D01*
X127468794Y-66910803D01*
X127470843Y-66890000D01*
X127470843Y-65190000D01*
X127463487Y-65115311D01*
X127441701Y-65043492D01*
X127406322Y-64977304D01*
X127358711Y-64919289D01*
X127300696Y-64871678D01*
X127234508Y-64836299D01*
X127162689Y-64814513D01*
X127088000Y-64807157D01*
X125388000Y-64807157D01*
X125313311Y-64814513D01*
X125241492Y-64836299D01*
X125175304Y-64871678D01*
X125117289Y-64919289D01*
X125069678Y-64977304D01*
X125034299Y-65043492D01*
X125012513Y-65115311D01*
X125005157Y-65190000D01*
X124891000Y-65190000D01*
X124891000Y-63931078D01*
X126676200Y-63931078D01*
X126676200Y-64084922D01*
X126706213Y-64235809D01*
X126765087Y-64377942D01*
X126850558Y-64505859D01*
X126959341Y-64614642D01*
X127087258Y-64700113D01*
X127229391Y-64758987D01*
X127380278Y-64789000D01*
X127534122Y-64789000D01*
X127685009Y-64758987D01*
X127827142Y-64700113D01*
X127955059Y-64614642D01*
X128055701Y-64514000D01*
X131718009Y-64514000D01*
X133860001Y-66655993D01*
X133860001Y-66684210D01*
X133767538Y-66693317D01*
X133648821Y-66729329D01*
X133539411Y-66787810D01*
X133443512Y-66866512D01*
X133364810Y-66962411D01*
X133306329Y-67071821D01*
X133270317Y-67190538D01*
X133258157Y-67314000D01*
X133258157Y-67814000D01*
X133270317Y-67937462D01*
X133306329Y-68056179D01*
X133364810Y-68165589D01*
X133443512Y-68261488D01*
X133539411Y-68340190D01*
X133648821Y-68398671D01*
X133767538Y-68434683D01*
X133891000Y-68446843D01*
X134841000Y-68446843D01*
X134964462Y-68434683D01*
X135083179Y-68398671D01*
X135192589Y-68340190D01*
X135288488Y-68261488D01*
X135367190Y-68165589D01*
X135425671Y-68056179D01*
X135461683Y-67937462D01*
X135473843Y-67814000D01*
X135473843Y-67314000D01*
X135461683Y-67190538D01*
X135425671Y-67071821D01*
X135367190Y-66962411D01*
X135288488Y-66866512D01*
X135192589Y-66787810D01*
X135083179Y-66729329D01*
X134964462Y-66693317D01*
X134872000Y-66684210D01*
X134872000Y-66471245D01*
X134874447Y-66446399D01*
X134872000Y-66421553D01*
X134872000Y-66421546D01*
X134864678Y-66347207D01*
X134835745Y-66251825D01*
X134788759Y-66163921D01*
X134725527Y-66086873D01*
X134706220Y-66071028D01*
X133571192Y-64936000D01*
X136689157Y-64936000D01*
X136689157Y-66636000D01*
X136696513Y-66710689D01*
X136718299Y-66782508D01*
X136753678Y-66848696D01*
X136801289Y-66906711D01*
X136859304Y-66954322D01*
X136925492Y-66989701D01*
X136997311Y-67011487D01*
X137072000Y-67018843D01*
X138772000Y-67018843D01*
X138846689Y-67011487D01*
X138918508Y-66989701D01*
X138984696Y-66954322D01*
X139042711Y-66906711D01*
X139090322Y-66848696D01*
X139125701Y-66782508D01*
X139147487Y-66710689D01*
X139154843Y-66636000D01*
X139154843Y-64936000D01*
X139147487Y-64861311D01*
X139125701Y-64789492D01*
X139090322Y-64723304D01*
X139042711Y-64665289D01*
X138984696Y-64617678D01*
X138918508Y-64582299D01*
X138846689Y-64560513D01*
X138772000Y-64553157D01*
X137072000Y-64553157D01*
X136997311Y-64560513D01*
X136925492Y-64582299D01*
X136859304Y-64617678D01*
X136801289Y-64665289D01*
X136753678Y-64723304D01*
X136718299Y-64789492D01*
X136696513Y-64861311D01*
X136689157Y-64936000D01*
X133571192Y-64936000D01*
X132302976Y-63667785D01*
X132287127Y-63648473D01*
X132210079Y-63585241D01*
X132122175Y-63538255D01*
X132026793Y-63509322D01*
X131952454Y-63502000D01*
X131952446Y-63502000D01*
X131927600Y-63499553D01*
X131902754Y-63502000D01*
X128678791Y-63502000D01*
X130460792Y-61720000D01*
X133325672Y-61720000D01*
X133332317Y-61787462D01*
X133368329Y-61906179D01*
X133426810Y-62015589D01*
X133505512Y-62111488D01*
X133601411Y-62190190D01*
X133710821Y-62248671D01*
X133829538Y-62284683D01*
X133952999Y-62296843D01*
X134478001Y-62296843D01*
X134601462Y-62284683D01*
X134720179Y-62248671D01*
X134829589Y-62190190D01*
X134925488Y-62111488D01*
X135004190Y-62015589D01*
X135062671Y-61906179D01*
X135098683Y-61787462D01*
X135110843Y-61664001D01*
X135110843Y-60763999D01*
X135145157Y-60763999D01*
X135145157Y-61664001D01*
X135157317Y-61787462D01*
X135193329Y-61906179D01*
X135251810Y-62015589D01*
X135330512Y-62111488D01*
X135426411Y-62190190D01*
X135534501Y-62247965D01*
X135534501Y-62355672D01*
X135532053Y-62380528D01*
X135541822Y-62479720D01*
X135570755Y-62575102D01*
X135570756Y-62575103D01*
X135617742Y-62663007D01*
X135680974Y-62740055D01*
X135700280Y-62755899D01*
X135870972Y-62926591D01*
X135870972Y-63068922D01*
X135900985Y-63219809D01*
X135959859Y-63361942D01*
X136045330Y-63489859D01*
X136154113Y-63598642D01*
X136282030Y-63684113D01*
X136424163Y-63742987D01*
X136575050Y-63773000D01*
X136728894Y-63773000D01*
X136879781Y-63742987D01*
X137021914Y-63684113D01*
X137149831Y-63598642D01*
X137258614Y-63489859D01*
X137344085Y-63361942D01*
X137402959Y-63219809D01*
X137432972Y-63068922D01*
X137432972Y-62915078D01*
X137402959Y-62764191D01*
X137344085Y-62622058D01*
X137258614Y-62494141D01*
X137149831Y-62385358D01*
X137021914Y-62299887D01*
X136879781Y-62241013D01*
X136728894Y-62211000D01*
X136615656Y-62211000D01*
X136654589Y-62190190D01*
X136750488Y-62111488D01*
X136829190Y-62015589D01*
X136887671Y-61906179D01*
X136923683Y-61787462D01*
X136935843Y-61664001D01*
X136935843Y-60763999D01*
X136923683Y-60640538D01*
X136887671Y-60521821D01*
X136829190Y-60412411D01*
X136750488Y-60316512D01*
X136654589Y-60237810D01*
X136545179Y-60179329D01*
X136426462Y-60143317D01*
X136303001Y-60131157D01*
X135777999Y-60131157D01*
X135654538Y-60143317D01*
X135535821Y-60179329D01*
X135426411Y-60237810D01*
X135330512Y-60316512D01*
X135251810Y-60412411D01*
X135193329Y-60521821D01*
X135157317Y-60640538D01*
X135145157Y-60763999D01*
X135110843Y-60763999D01*
X135098683Y-60640538D01*
X135062671Y-60521821D01*
X135004190Y-60412411D01*
X134925488Y-60316512D01*
X134829589Y-60237810D01*
X134720179Y-60179329D01*
X134601462Y-60143317D01*
X134478001Y-60131157D01*
X133952999Y-60131157D01*
X133829538Y-60143317D01*
X133710821Y-60179329D01*
X133601411Y-60237810D01*
X133505512Y-60316512D01*
X133426810Y-60412411D01*
X133368329Y-60521821D01*
X133332317Y-60640538D01*
X133325672Y-60708000D01*
X130276054Y-60708000D01*
X130251200Y-60705552D01*
X130226346Y-60708000D01*
X130152007Y-60715322D01*
X130056625Y-60744255D01*
X129968721Y-60791241D01*
X129891673Y-60854473D01*
X129875828Y-60873780D01*
X127522609Y-63227000D01*
X127380278Y-63227000D01*
X127229391Y-63257013D01*
X127087258Y-63315887D01*
X126959341Y-63401358D01*
X126850558Y-63510141D01*
X126765087Y-63638058D01*
X126706213Y-63780191D01*
X126676200Y-63931078D01*
X124891000Y-63931078D01*
X124891000Y-58031000D01*
X139269001Y-58031000D01*
X139269000Y-63478832D01*
%TA.AperFunction,Conductor*%
D16*
G36*
X139269000Y-63478832D02*
G01*
X139269000Y-63478833D01*
X139269001Y-88037296D01*
X139193641Y-87879080D01*
X139019588Y-87645731D01*
X138803355Y-87450822D01*
X138553252Y-87301843D01*
X138390832Y-87244228D01*
X138505097Y-87196898D01*
X138706717Y-87062180D01*
X138878180Y-86890717D01*
X139012898Y-86689097D01*
X139105693Y-86465069D01*
X139153000Y-86227243D01*
X139153000Y-85984757D01*
X139105693Y-85746931D01*
X139012898Y-85522903D01*
X138878180Y-85321283D01*
X138706717Y-85149820D01*
X138505097Y-85015102D01*
X138281069Y-84922307D01*
X138043243Y-84875000D01*
X137800757Y-84875000D01*
X137562931Y-84922307D01*
X137338903Y-85015102D01*
X137137283Y-85149820D01*
X136965820Y-85321283D01*
X136831102Y-85522903D01*
X136738307Y-85746931D01*
X136691000Y-85984757D01*
X136691000Y-86227243D01*
X136738307Y-86465069D01*
X136831102Y-86689097D01*
X136965820Y-86890717D01*
X137137283Y-87062180D01*
X137338903Y-87196898D01*
X137453168Y-87244228D01*
X137290748Y-87301843D01*
X137040645Y-87450822D01*
X136824412Y-87645731D01*
X136650359Y-87879080D01*
X136525175Y-88141901D01*
X136480524Y-88289110D01*
X136601845Y-88519000D01*
X137795000Y-88519000D01*
X137795000Y-88499000D01*
X138049000Y-88499000D01*
X138049000Y-88519000D01*
X138069000Y-88519000D01*
X138069000Y-88773000D01*
X138049000Y-88773000D01*
X138049000Y-89966814D01*
X138278891Y-90087481D01*
X138553252Y-89990157D01*
X138803355Y-89841178D01*
X139019588Y-89646269D01*
X139193641Y-89412920D01*
X139269001Y-89254704D01*
X139269001Y-91009000D01*
X134874623Y-91009000D01*
X134893502Y-90973680D01*
X134929812Y-90853982D01*
X134942072Y-90729500D01*
X134939000Y-90502750D01*
X134780250Y-90344000D01*
X133731000Y-90344000D01*
X133731000Y-90364000D01*
X133477000Y-90364000D01*
X133477000Y-90344000D01*
X132427750Y-90344000D01*
X132269000Y-90502750D01*
X132265928Y-90729500D01*
X132278188Y-90853982D01*
X132314498Y-90973680D01*
X132333377Y-91009000D01*
X131097396Y-91009000D01*
X131103589Y-91005690D01*
X131199488Y-90926988D01*
X131278190Y-90831089D01*
X131336671Y-90721679D01*
X131372683Y-90602962D01*
X131384843Y-90479501D01*
X131384843Y-89954499D01*
X131372683Y-89831038D01*
X131336671Y-89712321D01*
X131278190Y-89602911D01*
X131199488Y-89507012D01*
X131103589Y-89428310D01*
X130994179Y-89369829D01*
X130875462Y-89333817D01*
X130752001Y-89321657D01*
X129851999Y-89321657D01*
X129728538Y-89333817D01*
X129609821Y-89369829D01*
X129500411Y-89428310D01*
X129404512Y-89507012D01*
X129325810Y-89602911D01*
X129268035Y-89711000D01*
X128741917Y-89711000D01*
X128650209Y-89673013D01*
X128499322Y-89643000D01*
X128345478Y-89643000D01*
X128194591Y-89673013D01*
X128052458Y-89731887D01*
X127924541Y-89817358D01*
X127815758Y-89926141D01*
X127730287Y-90054058D01*
X127671413Y-90196191D01*
X127641400Y-90347078D01*
X127641400Y-90500922D01*
X127671413Y-90651809D01*
X127730287Y-90793942D01*
X127815758Y-90921859D01*
X127902899Y-91009000D01*
X124891000Y-91009000D01*
X124891000Y-88778757D01*
X125007000Y-88778757D01*
X125007000Y-89021243D01*
X125054307Y-89259069D01*
X125147102Y-89483097D01*
X125281820Y-89684717D01*
X125453283Y-89856180D01*
X125654903Y-89990898D01*
X125878931Y-90083693D01*
X126116757Y-90131000D01*
X126359243Y-90131000D01*
X126597069Y-90083693D01*
X126821097Y-89990898D01*
X127022717Y-89856180D01*
X127194180Y-89684717D01*
X127328898Y-89483097D01*
X127421693Y-89259069D01*
X127469000Y-89021243D01*
X127469000Y-88778757D01*
X127421693Y-88540931D01*
X127328898Y-88316903D01*
X127194180Y-88115283D01*
X127022717Y-87943820D01*
X126821097Y-87809102D01*
X126597069Y-87716307D01*
X126359243Y-87669000D01*
X126116757Y-87669000D01*
X125878931Y-87716307D01*
X125654903Y-87809102D01*
X125453283Y-87943820D01*
X125281820Y-88115283D01*
X125147102Y-88316903D01*
X125054307Y-88540931D01*
X125007000Y-88778757D01*
X124891000Y-88778757D01*
X124891000Y-86238757D01*
X125007000Y-86238757D01*
X125007000Y-86481243D01*
X125054307Y-86719069D01*
X125147102Y-86943097D01*
X125281820Y-87144717D01*
X125453283Y-87316180D01*
X125654903Y-87450898D01*
X125878931Y-87543693D01*
X126116757Y-87591000D01*
X126359243Y-87591000D01*
X126597069Y-87543693D01*
X126821097Y-87450898D01*
X127022717Y-87316180D01*
X127194180Y-87144717D01*
X127328898Y-86943097D01*
X127421693Y-86719069D01*
X127469000Y-86481243D01*
X127469000Y-86238757D01*
X127421693Y-86000931D01*
X127328898Y-85776903D01*
X127194180Y-85575283D01*
X127022717Y-85403820D01*
X126970124Y-85368678D01*
X128098600Y-85368678D01*
X128098600Y-85522522D01*
X128128613Y-85673409D01*
X128187487Y-85815542D01*
X128272958Y-85943459D01*
X128381741Y-86052242D01*
X128509658Y-86137713D01*
X128651791Y-86196587D01*
X128802678Y-86226600D01*
X128956522Y-86226600D01*
X129107409Y-86196587D01*
X129249542Y-86137713D01*
X129377459Y-86052242D01*
X129486242Y-85943459D01*
X129571713Y-85815542D01*
X129630587Y-85673409D01*
X129660600Y-85522522D01*
X129660600Y-85380191D01*
X129991000Y-85049792D01*
X129991000Y-85125002D01*
X130149748Y-85125002D01*
X129991000Y-85283750D01*
X129987928Y-85398000D01*
X130000188Y-85522482D01*
X130036498Y-85642180D01*
X130095463Y-85752494D01*
X130174815Y-85849185D01*
X130243157Y-85905272D01*
X130243157Y-86165252D01*
X129961780Y-86446629D01*
X129942474Y-86462473D01*
X129879242Y-86539521D01*
X129869618Y-86557527D01*
X129832255Y-86627426D01*
X129803322Y-86722808D01*
X129793553Y-86822000D01*
X129796001Y-86846856D01*
X129796001Y-87502172D01*
X129728538Y-87508817D01*
X129609821Y-87544829D01*
X129500411Y-87603310D01*
X129404512Y-87682012D01*
X129325810Y-87777911D01*
X129267329Y-87887321D01*
X129231317Y-88006038D01*
X129219157Y-88129499D01*
X129219157Y-88654501D01*
X129231317Y-88777962D01*
X129267329Y-88896679D01*
X129325810Y-89006089D01*
X129404512Y-89101988D01*
X129500411Y-89180690D01*
X129609821Y-89239171D01*
X129728538Y-89275183D01*
X129851999Y-89287343D01*
X130752001Y-89287343D01*
X130875462Y-89275183D01*
X130994179Y-89239171D01*
X131103589Y-89180690D01*
X131199488Y-89101988D01*
X131278190Y-89006089D01*
X131335965Y-88898000D01*
X132570035Y-88898000D01*
X132627810Y-89006089D01*
X132705754Y-89101064D01*
X132659820Y-89114998D01*
X132549506Y-89173963D01*
X132452815Y-89253315D01*
X132373463Y-89350006D01*
X132314498Y-89460320D01*
X132278188Y-89580018D01*
X132265928Y-89704500D01*
X132269000Y-89931250D01*
X132427750Y-90090000D01*
X133477000Y-90090000D01*
X133477000Y-90070000D01*
X133731000Y-90070000D01*
X133731000Y-90090000D01*
X134780250Y-90090000D01*
X134939000Y-89931250D01*
X134942072Y-89704500D01*
X134929812Y-89580018D01*
X134893502Y-89460320D01*
X134834537Y-89350006D01*
X134755185Y-89253315D01*
X134658494Y-89173963D01*
X134548180Y-89114998D01*
X134502246Y-89101064D01*
X134580190Y-89006089D01*
X134581899Y-89002890D01*
X136480524Y-89002890D01*
X136525175Y-89150099D01*
X136650359Y-89412920D01*
X136824412Y-89646269D01*
X137040645Y-89841178D01*
X137290748Y-89990157D01*
X137565109Y-90087481D01*
X137795000Y-89966814D01*
X137795000Y-88773000D01*
X136601845Y-88773000D01*
X136480524Y-89002890D01*
X134581899Y-89002890D01*
X134638671Y-88896679D01*
X134674683Y-88777962D01*
X134686843Y-88654501D01*
X134686843Y-88129499D01*
X134674683Y-88006038D01*
X134638671Y-87887321D01*
X134580190Y-87777911D01*
X134501488Y-87682012D01*
X134405589Y-87603310D01*
X134296179Y-87544829D01*
X134177462Y-87508817D01*
X134054001Y-87496657D01*
X133153999Y-87496657D01*
X133030538Y-87508817D01*
X132911821Y-87544829D01*
X132802411Y-87603310D01*
X132706512Y-87682012D01*
X132627810Y-87777911D01*
X132570035Y-87886000D01*
X131335965Y-87886000D01*
X131278190Y-87777911D01*
X131199488Y-87682012D01*
X131103589Y-87603310D01*
X130994179Y-87544829D01*
X130875462Y-87508817D01*
X130808000Y-87502172D01*
X130808000Y-87031591D01*
X130858748Y-86980843D01*
X131226000Y-86980843D01*
X131300689Y-86973487D01*
X131372508Y-86951701D01*
X131438696Y-86916322D01*
X131496711Y-86868711D01*
X131544322Y-86810696D01*
X131579701Y-86744508D01*
X131601487Y-86672689D01*
X131608843Y-86598000D01*
X131608843Y-85905272D01*
X131677185Y-85849185D01*
X131756537Y-85752494D01*
X131815502Y-85642180D01*
X131851812Y-85522482D01*
X131864072Y-85398000D01*
X131861000Y-85283750D01*
X131702250Y-85125000D01*
X131053000Y-85125000D01*
X131053000Y-85145000D01*
X130799000Y-85145000D01*
X130799000Y-85125000D01*
X130779000Y-85125000D01*
X130779000Y-84871000D01*
X130799000Y-84871000D01*
X130799000Y-84121750D01*
X130640250Y-83963000D01*
X130626000Y-83959928D01*
X130554000Y-83967019D01*
X130554000Y-83871790D01*
X130646462Y-83862683D01*
X130765179Y-83826671D01*
X130874589Y-83768190D01*
X130970488Y-83689488D01*
X131049190Y-83593589D01*
X131107671Y-83484179D01*
X131143683Y-83365462D01*
X131155843Y-83242000D01*
X131155843Y-82742000D01*
X131143683Y-82618538D01*
X131107671Y-82499821D01*
X131049190Y-82390411D01*
X130970488Y-82294512D01*
X130879220Y-82219611D01*
X130897482Y-82217812D01*
X131017180Y-82181502D01*
X131127494Y-82122537D01*
X131224185Y-82043185D01*
X131303537Y-81946494D01*
X131362502Y-81836180D01*
X131398812Y-81716482D01*
X131411072Y-81592000D01*
X131408000Y-81377750D01*
X131249250Y-81219000D01*
X130175000Y-81219000D01*
X130175000Y-81239000D01*
X129921000Y-81239000D01*
X129921000Y-81219000D01*
X128846750Y-81219000D01*
X128688000Y-81377750D01*
X128684928Y-81592000D01*
X128697188Y-81716482D01*
X128733498Y-81836180D01*
X128792463Y-81946494D01*
X128871815Y-82043185D01*
X128968506Y-82122537D01*
X129078820Y-82181502D01*
X129198518Y-82217812D01*
X129216780Y-82219611D01*
X129125512Y-82294512D01*
X129046810Y-82390411D01*
X128988329Y-82499821D01*
X128952317Y-82618538D01*
X128940157Y-82742000D01*
X128940157Y-83242000D01*
X128952317Y-83365462D01*
X128988329Y-83484179D01*
X129046810Y-83593589D01*
X129125512Y-83689488D01*
X129221411Y-83768190D01*
X129330821Y-83826671D01*
X129449538Y-83862683D01*
X129542001Y-83871790D01*
X129542001Y-84067607D01*
X128945009Y-84664600D01*
X128802678Y-84664600D01*
X128651791Y-84694613D01*
X128509658Y-84753487D01*
X128381741Y-84838958D01*
X128272958Y-84947741D01*
X128187487Y-85075658D01*
X128128613Y-85217791D01*
X128098600Y-85368678D01*
X126970124Y-85368678D01*
X126821097Y-85269102D01*
X126597069Y-85176307D01*
X126359243Y-85129000D01*
X126116757Y-85129000D01*
X125878931Y-85176307D01*
X125654903Y-85269102D01*
X125453283Y-85403820D01*
X125281820Y-85575283D01*
X125147102Y-85776903D01*
X125054307Y-86000931D01*
X125007000Y-86238757D01*
X124891000Y-86238757D01*
X124891000Y-83698757D01*
X125007000Y-83698757D01*
X125007000Y-83941243D01*
X125054307Y-84179069D01*
X125147102Y-84403097D01*
X125281820Y-84604717D01*
X125453283Y-84776180D01*
X125654903Y-84910898D01*
X125878931Y-85003693D01*
X126116757Y-85051000D01*
X126359243Y-85051000D01*
X126597069Y-85003693D01*
X126821097Y-84910898D01*
X127022717Y-84776180D01*
X127194180Y-84604717D01*
X127328898Y-84403097D01*
X127421693Y-84179069D01*
X127469000Y-83941243D01*
X127469000Y-83698757D01*
X127421693Y-83460931D01*
X127328898Y-83236903D01*
X127194180Y-83035283D01*
X127022717Y-82863820D01*
X126821097Y-82729102D01*
X126597069Y-82636307D01*
X126359243Y-82589000D01*
X126116757Y-82589000D01*
X125878931Y-82636307D01*
X125654903Y-82729102D01*
X125453283Y-82863820D01*
X125281820Y-83035283D01*
X125147102Y-83236903D01*
X125054307Y-83460931D01*
X125007000Y-83698757D01*
X124891000Y-83698757D01*
X124891000Y-81158757D01*
X125007000Y-81158757D01*
X125007000Y-81401243D01*
X125054307Y-81639069D01*
X125147102Y-81863097D01*
X125281820Y-82064717D01*
X125453283Y-82236180D01*
X125654903Y-82370898D01*
X125878931Y-82463693D01*
X126116757Y-82511000D01*
X126359243Y-82511000D01*
X126597069Y-82463693D01*
X126821097Y-82370898D01*
X127022717Y-82236180D01*
X127194180Y-82064717D01*
X127328898Y-81863097D01*
X127421693Y-81639069D01*
X127469000Y-81401243D01*
X127469000Y-81158757D01*
X127421693Y-80920931D01*
X127328898Y-80696903D01*
X127258805Y-80592000D01*
X128684928Y-80592000D01*
X128688000Y-80806250D01*
X128846750Y-80965000D01*
X129921000Y-80965000D01*
X129921000Y-80115750D01*
X130175000Y-80115750D01*
X130175000Y-80965000D01*
X131249250Y-80965000D01*
X131408000Y-80806250D01*
X131411072Y-80592000D01*
X131398812Y-80467518D01*
X131362502Y-80347820D01*
X131303537Y-80237506D01*
X131224185Y-80140815D01*
X131127494Y-80061463D01*
X131017180Y-80002498D01*
X130897482Y-79966188D01*
X130773000Y-79953928D01*
X130333750Y-79957000D01*
X130175000Y-80115750D01*
X129921000Y-80115750D01*
X129762250Y-79957000D01*
X129323000Y-79953928D01*
X129198518Y-79966188D01*
X129078820Y-80002498D01*
X128968506Y-80061463D01*
X128871815Y-80140815D01*
X128792463Y-80237506D01*
X128733498Y-80347820D01*
X128697188Y-80467518D01*
X128684928Y-80592000D01*
X127258805Y-80592000D01*
X127194180Y-80495283D01*
X127022717Y-80323820D01*
X126821097Y-80189102D01*
X126597069Y-80096307D01*
X126359243Y-80049000D01*
X126116757Y-80049000D01*
X125878931Y-80096307D01*
X125654903Y-80189102D01*
X125453283Y-80323820D01*
X125281820Y-80495283D01*
X125147102Y-80696903D01*
X125054307Y-80920931D01*
X125007000Y-81158757D01*
X124891000Y-81158757D01*
X124891000Y-78618757D01*
X125007000Y-78618757D01*
X125007000Y-78861243D01*
X125054307Y-79099069D01*
X125147102Y-79323097D01*
X125281820Y-79524717D01*
X125453283Y-79696180D01*
X125654903Y-79830898D01*
X125878931Y-79923693D01*
X126116757Y-79971000D01*
X126359243Y-79971000D01*
X126597069Y-79923693D01*
X126821097Y-79830898D01*
X127022717Y-79696180D01*
X127194180Y-79524717D01*
X127328898Y-79323097D01*
X127390655Y-79174000D01*
X128684928Y-79174000D01*
X128697188Y-79298482D01*
X128733498Y-79418180D01*
X128792463Y-79528494D01*
X128871815Y-79625185D01*
X128968506Y-79704537D01*
X129078820Y-79763502D01*
X129198518Y-79799812D01*
X129323000Y-79812072D01*
X129762250Y-79809000D01*
X129921000Y-79650250D01*
X129921000Y-78801000D01*
X130175000Y-78801000D01*
X130175000Y-79650250D01*
X130333750Y-79809000D01*
X130773000Y-79812072D01*
X130897482Y-79799812D01*
X131017180Y-79763502D01*
X131127494Y-79704537D01*
X131224185Y-79625185D01*
X131303537Y-79528494D01*
X131362502Y-79418180D01*
X131398812Y-79298482D01*
X131411072Y-79174000D01*
X131408000Y-78959750D01*
X131249250Y-78801000D01*
X130175000Y-78801000D01*
X129921000Y-78801000D01*
X128846750Y-78801000D01*
X128688000Y-78959750D01*
X128684928Y-79174000D01*
X127390655Y-79174000D01*
X127421693Y-79099069D01*
X127469000Y-78861243D01*
X127469000Y-78618757D01*
X127421693Y-78380931D01*
X127328898Y-78156903D01*
X127194180Y-77955283D01*
X127022717Y-77783820D01*
X126821097Y-77649102D01*
X126597069Y-77556307D01*
X126359243Y-77509000D01*
X126116757Y-77509000D01*
X125878931Y-77556307D01*
X125654903Y-77649102D01*
X125453283Y-77783820D01*
X125281820Y-77955283D01*
X125147102Y-78156903D01*
X125054307Y-78380931D01*
X125007000Y-78618757D01*
X124891000Y-78618757D01*
X124891000Y-76078757D01*
X125007000Y-76078757D01*
X125007000Y-76321243D01*
X125054307Y-76559069D01*
X125147102Y-76783097D01*
X125281820Y-76984717D01*
X125453283Y-77156180D01*
X125654903Y-77290898D01*
X125878931Y-77383693D01*
X126116757Y-77431000D01*
X126359243Y-77431000D01*
X126597069Y-77383693D01*
X126821097Y-77290898D01*
X126982336Y-77183162D01*
X126981000Y-77189878D01*
X126981000Y-77343722D01*
X127011013Y-77494609D01*
X127069887Y-77636742D01*
X127155358Y-77764659D01*
X127264141Y-77873442D01*
X127392058Y-77958913D01*
X127534191Y-78017787D01*
X127685078Y-78047800D01*
X127838922Y-78047800D01*
X127989809Y-78017787D01*
X128131942Y-77958913D01*
X128259859Y-77873442D01*
X128368642Y-77764659D01*
X128454113Y-77636742D01*
X128512987Y-77494609D01*
X128543000Y-77343722D01*
X128543000Y-77280000D01*
X128995716Y-77280000D01*
X129046810Y-77375589D01*
X129125512Y-77471488D01*
X129216780Y-77546389D01*
X129198518Y-77548188D01*
X129078820Y-77584498D01*
X128968506Y-77643463D01*
X128871815Y-77722815D01*
X128792463Y-77819506D01*
X128733498Y-77929820D01*
X128697188Y-78049518D01*
X128684928Y-78174000D01*
X128688000Y-78388250D01*
X128846750Y-78547000D01*
X129921000Y-78547000D01*
X129921000Y-78527000D01*
X130175000Y-78527000D01*
X130175000Y-78547000D01*
X131249250Y-78547000D01*
X131408000Y-78388250D01*
X131411072Y-78174000D01*
X131398812Y-78049518D01*
X131362502Y-77929820D01*
X131303537Y-77819506D01*
X131224185Y-77722815D01*
X131127494Y-77643463D01*
X131017180Y-77584498D01*
X130897482Y-77548188D01*
X130879220Y-77546389D01*
X130970488Y-77471488D01*
X131049190Y-77375589D01*
X131107671Y-77266179D01*
X131143683Y-77147462D01*
X131155843Y-77024000D01*
X131155843Y-76524000D01*
X131143683Y-76400538D01*
X131107671Y-76281821D01*
X131049190Y-76172411D01*
X130970488Y-76076512D01*
X130874589Y-75997810D01*
X130765179Y-75939329D01*
X130646462Y-75903317D01*
X130523000Y-75891157D01*
X129573000Y-75891157D01*
X129449538Y-75903317D01*
X129330821Y-75939329D01*
X129221411Y-75997810D01*
X129125512Y-76076512D01*
X129046810Y-76172411D01*
X128995716Y-76268000D01*
X128228845Y-76268000D01*
X128203999Y-76265553D01*
X128179153Y-76268000D01*
X128179146Y-76268000D01*
X128114694Y-76274348D01*
X128104806Y-76275322D01*
X128083382Y-76281821D01*
X128009425Y-76304255D01*
X127921521Y-76351241D01*
X127844473Y-76414473D01*
X127828629Y-76433779D01*
X127776608Y-76485800D01*
X127685078Y-76485800D01*
X127534191Y-76515813D01*
X127420022Y-76563104D01*
X127421693Y-76559069D01*
X127469000Y-76321243D01*
X127469000Y-76078757D01*
X127421693Y-75840931D01*
X127328898Y-75616903D01*
X127194180Y-75415283D01*
X127022717Y-75243820D01*
X126821097Y-75109102D01*
X126597069Y-75016307D01*
X126359243Y-74969000D01*
X126116757Y-74969000D01*
X125878931Y-75016307D01*
X125654903Y-75109102D01*
X125453283Y-75243820D01*
X125281820Y-75415283D01*
X125147102Y-75616903D01*
X125054307Y-75840931D01*
X125007000Y-76078757D01*
X124891000Y-76078757D01*
X124891000Y-73538757D01*
X125007000Y-73538757D01*
X125007000Y-73781243D01*
X125054307Y-74019069D01*
X125147102Y-74243097D01*
X125281820Y-74444717D01*
X125453283Y-74616180D01*
X125654903Y-74750898D01*
X125878931Y-74843693D01*
X126116757Y-74891000D01*
X126359243Y-74891000D01*
X126597069Y-74843693D01*
X126821097Y-74750898D01*
X127022717Y-74616180D01*
X127194180Y-74444717D01*
X127328898Y-74243097D01*
X127421693Y-74019069D01*
X127469000Y-73781243D01*
X127469000Y-73538757D01*
X127421693Y-73300931D01*
X127328898Y-73076903D01*
X127194180Y-72875283D01*
X127022717Y-72703820D01*
X126821097Y-72569102D01*
X126597069Y-72476307D01*
X126359243Y-72429000D01*
X126116757Y-72429000D01*
X125878931Y-72476307D01*
X125654903Y-72569102D01*
X125453283Y-72703820D01*
X125281820Y-72875283D01*
X125147102Y-73076903D01*
X125054307Y-73300931D01*
X125007000Y-73538757D01*
X124891000Y-73538757D01*
X124891000Y-65190000D01*
X125005157Y-65190000D01*
X125005157Y-66890000D01*
X125012513Y-66964689D01*
X125034299Y-67036508D01*
X125069678Y-67102696D01*
X125117289Y-67160711D01*
X125175304Y-67208322D01*
X125241492Y-67243701D01*
X125313311Y-67265487D01*
X125388000Y-67272843D01*
X126399652Y-67272843D01*
X126504753Y-67377944D01*
X126359243Y-67349000D01*
X126116757Y-67349000D01*
X125878931Y-67396307D01*
X125654903Y-67489102D01*
X125453283Y-67623820D01*
X125281820Y-67795283D01*
X125147102Y-67996903D01*
X125054307Y-68220931D01*
X125007000Y-68458757D01*
X125007000Y-68701243D01*
X125054307Y-68939069D01*
X125147102Y-69163097D01*
X125281820Y-69364717D01*
X125453283Y-69536180D01*
X125654903Y-69670898D01*
X125878931Y-69763693D01*
X125960284Y-69779875D01*
X126077265Y-69896856D01*
X125878931Y-69936307D01*
X125654903Y-70029102D01*
X125453283Y-70163820D01*
X125281820Y-70335283D01*
X125147102Y-70536903D01*
X125054307Y-70760931D01*
X125007000Y-70998757D01*
X125007000Y-71241243D01*
X125054307Y-71479069D01*
X125147102Y-71703097D01*
X125281820Y-71904717D01*
X125453283Y-72076180D01*
X125654903Y-72210898D01*
X125878931Y-72303693D01*
X126116757Y-72351000D01*
X126359243Y-72351000D01*
X126597069Y-72303693D01*
X126821097Y-72210898D01*
X127022717Y-72076180D01*
X127194180Y-71904717D01*
X127328898Y-71703097D01*
X127421693Y-71479069D01*
X127461144Y-71280736D01*
X129521000Y-73340592D01*
X129521000Y-73482922D01*
X129551013Y-73633809D01*
X129609887Y-73775942D01*
X129695358Y-73903859D01*
X129804141Y-74012642D01*
X129932058Y-74098113D01*
X130074191Y-74156987D01*
X130225078Y-74187000D01*
X130378922Y-74187000D01*
X130529809Y-74156987D01*
X130671942Y-74098113D01*
X130799859Y-74012642D01*
X130908642Y-73903859D01*
X130964401Y-73820410D01*
X130964401Y-74041544D01*
X130961953Y-74066400D01*
X130971722Y-74165592D01*
X131000655Y-74260974D01*
X131000656Y-74260975D01*
X131047642Y-74348879D01*
X131110874Y-74425927D01*
X131130180Y-74441771D01*
X131299006Y-74610597D01*
X131299006Y-74752928D01*
X131329019Y-74903815D01*
X131387893Y-75045948D01*
X131473364Y-75173865D01*
X131574006Y-75274507D01*
X131574007Y-84063996D01*
X131470180Y-84008498D01*
X131350482Y-83972188D01*
X131226000Y-83959928D01*
X131211750Y-83963000D01*
X131053000Y-84121750D01*
X131053000Y-84871000D01*
X131702250Y-84871000D01*
X131792829Y-84780421D01*
X132043157Y-85030748D01*
X132043157Y-85398000D01*
X132050513Y-85472689D01*
X132072299Y-85544508D01*
X132100892Y-85598000D01*
X132072299Y-85651492D01*
X132050513Y-85723311D01*
X132043157Y-85798000D01*
X132043157Y-86598000D01*
X132050513Y-86672689D01*
X132072299Y-86744508D01*
X132107678Y-86810696D01*
X132155289Y-86868711D01*
X132213304Y-86916322D01*
X132279492Y-86951701D01*
X132351311Y-86973487D01*
X132426000Y-86980843D01*
X133026000Y-86980843D01*
X133100689Y-86973487D01*
X133172508Y-86951701D01*
X133238696Y-86916322D01*
X133296711Y-86868711D01*
X133344322Y-86810696D01*
X133379701Y-86744508D01*
X133391989Y-86704000D01*
X134045954Y-86704000D01*
X134070800Y-86706447D01*
X134095646Y-86704000D01*
X134095654Y-86704000D01*
X134169993Y-86696678D01*
X134265375Y-86667745D01*
X134353279Y-86620759D01*
X134430327Y-86557527D01*
X134446176Y-86538215D01*
X135011792Y-85972600D01*
X135154122Y-85972600D01*
X135305009Y-85942587D01*
X135447142Y-85883713D01*
X135575059Y-85798242D01*
X135683842Y-85689459D01*
X135769313Y-85561542D01*
X135828187Y-85419409D01*
X135858200Y-85268522D01*
X135858200Y-85114678D01*
X135828187Y-84963791D01*
X135769313Y-84821658D01*
X135683842Y-84693741D01*
X135575059Y-84584958D01*
X135447142Y-84499487D01*
X135305009Y-84440613D01*
X135154122Y-84410600D01*
X135062592Y-84410600D01*
X134872000Y-84220009D01*
X134872000Y-83805790D01*
X134964462Y-83796683D01*
X135083179Y-83760671D01*
X135192589Y-83702190D01*
X135288488Y-83623488D01*
X135367190Y-83527589D01*
X135411464Y-83444757D01*
X136691000Y-83444757D01*
X136691000Y-83687243D01*
X136738307Y-83925069D01*
X136831102Y-84149097D01*
X136965820Y-84350717D01*
X137137283Y-84522180D01*
X137338903Y-84656898D01*
X137562931Y-84749693D01*
X137800757Y-84797000D01*
X138043243Y-84797000D01*
X138281069Y-84749693D01*
X138505097Y-84656898D01*
X138706717Y-84522180D01*
X138878180Y-84350717D01*
X139012898Y-84149097D01*
X139105693Y-83925069D01*
X139153000Y-83687243D01*
X139153000Y-83444757D01*
X139105693Y-83206931D01*
X139012898Y-82982903D01*
X138878180Y-82781283D01*
X138706717Y-82609820D01*
X138505097Y-82475102D01*
X138281069Y-82382307D01*
X138043243Y-82335000D01*
X137800757Y-82335000D01*
X137562931Y-82382307D01*
X137338903Y-82475102D01*
X137137283Y-82609820D01*
X136965820Y-82781283D01*
X136831102Y-82982903D01*
X136738307Y-83206931D01*
X136691000Y-83444757D01*
X135411464Y-83444757D01*
X135425671Y-83418179D01*
X135461683Y-83299462D01*
X135473843Y-83176000D01*
X135473843Y-82676000D01*
X135461683Y-82552538D01*
X135425671Y-82433821D01*
X135367190Y-82324411D01*
X135288488Y-82228512D01*
X135197220Y-82153611D01*
X135215482Y-82151812D01*
X135335180Y-82115502D01*
X135445494Y-82056537D01*
X135542185Y-81977185D01*
X135621537Y-81880494D01*
X135680502Y-81770180D01*
X135716812Y-81650482D01*
X135729072Y-81526000D01*
X135726000Y-81311750D01*
X135567250Y-81153000D01*
X134493000Y-81153000D01*
X134493000Y-81173000D01*
X134239000Y-81173000D01*
X134239000Y-81153000D01*
X133164750Y-81153000D01*
X133006000Y-81311750D01*
X133002928Y-81526000D01*
X133015188Y-81650482D01*
X133051498Y-81770180D01*
X133110463Y-81880494D01*
X133189815Y-81977185D01*
X133286506Y-82056537D01*
X133396820Y-82115502D01*
X133516518Y-82151812D01*
X133534780Y-82153611D01*
X133443512Y-82228512D01*
X133364810Y-82324411D01*
X133306329Y-82433821D01*
X133270317Y-82552538D01*
X133258157Y-82676000D01*
X133258157Y-83176000D01*
X133270317Y-83299462D01*
X133306329Y-83418179D01*
X133364810Y-83527589D01*
X133443512Y-83623488D01*
X133539411Y-83702190D01*
X133648821Y-83760671D01*
X133767538Y-83796683D01*
X133860001Y-83805790D01*
X133860001Y-84404744D01*
X133857553Y-84429600D01*
X133867322Y-84528792D01*
X133896255Y-84624174D01*
X133896256Y-84624175D01*
X133943242Y-84712079D01*
X134006474Y-84789127D01*
X134025780Y-84804971D01*
X134302718Y-85081910D01*
X134296200Y-85114678D01*
X134296200Y-85257008D01*
X133861209Y-85692000D01*
X133391989Y-85692000D01*
X133379701Y-85651492D01*
X133351108Y-85598000D01*
X133379701Y-85544508D01*
X133401487Y-85472689D01*
X133408843Y-85398000D01*
X133408843Y-84598000D01*
X133401487Y-84523311D01*
X133379701Y-84451492D01*
X133344322Y-84385304D01*
X133296711Y-84327289D01*
X133238696Y-84279678D01*
X133172508Y-84244299D01*
X133100689Y-84222513D01*
X133026000Y-84215157D01*
X132658748Y-84215157D01*
X132586006Y-84142415D01*
X132586006Y-80904757D01*
X136691000Y-80904757D01*
X136691000Y-81147243D01*
X136738307Y-81385069D01*
X136831102Y-81609097D01*
X136965820Y-81810717D01*
X137137283Y-81982180D01*
X137338903Y-82116898D01*
X137562931Y-82209693D01*
X137800757Y-82257000D01*
X138043243Y-82257000D01*
X138281069Y-82209693D01*
X138505097Y-82116898D01*
X138706717Y-81982180D01*
X138878180Y-81810717D01*
X139012898Y-81609097D01*
X139105693Y-81385069D01*
X139153000Y-81147243D01*
X139153000Y-80904757D01*
X139105693Y-80666931D01*
X139012898Y-80442903D01*
X138878180Y-80241283D01*
X138706717Y-80069820D01*
X138505097Y-79935102D01*
X138281069Y-79842307D01*
X138043243Y-79795000D01*
X137800757Y-79795000D01*
X137562931Y-79842307D01*
X137338903Y-79935102D01*
X137137283Y-80069820D01*
X136965820Y-80241283D01*
X136831102Y-80442903D01*
X136738307Y-80666931D01*
X136691000Y-80904757D01*
X132586006Y-80904757D01*
X132586006Y-80526000D01*
X133002928Y-80526000D01*
X133006000Y-80740250D01*
X133164750Y-80899000D01*
X134239000Y-80899000D01*
X134239000Y-80049750D01*
X134493000Y-80049750D01*
X134493000Y-80899000D01*
X135567250Y-80899000D01*
X135726000Y-80740250D01*
X135729072Y-80526000D01*
X135716812Y-80401518D01*
X135680502Y-80281820D01*
X135621537Y-80171506D01*
X135542185Y-80074815D01*
X135445494Y-79995463D01*
X135335180Y-79936498D01*
X135215482Y-79900188D01*
X135091000Y-79887928D01*
X134651750Y-79891000D01*
X134493000Y-80049750D01*
X134239000Y-80049750D01*
X134080250Y-79891000D01*
X133641000Y-79887928D01*
X133516518Y-79900188D01*
X133396820Y-79936498D01*
X133286506Y-79995463D01*
X133189815Y-80074815D01*
X133110463Y-80171506D01*
X133051498Y-80281820D01*
X133015188Y-80401518D01*
X133002928Y-80526000D01*
X132586006Y-80526000D01*
X132586006Y-79174000D01*
X133002928Y-79174000D01*
X133015188Y-79298482D01*
X133051498Y-79418180D01*
X133110463Y-79528494D01*
X133189815Y-79625185D01*
X133286506Y-79704537D01*
X133396820Y-79763502D01*
X133516518Y-79799812D01*
X133641000Y-79812072D01*
X134080250Y-79809000D01*
X134239000Y-79650250D01*
X134239000Y-78801000D01*
X134493000Y-78801000D01*
X134493000Y-79650250D01*
X134651750Y-79809000D01*
X135091000Y-79812072D01*
X135215482Y-79799812D01*
X135335180Y-79763502D01*
X135445494Y-79704537D01*
X135542185Y-79625185D01*
X135621537Y-79528494D01*
X135680502Y-79418180D01*
X135716812Y-79298482D01*
X135729072Y-79174000D01*
X135726000Y-78959750D01*
X135567250Y-78801000D01*
X134493000Y-78801000D01*
X134239000Y-78801000D01*
X133164750Y-78801000D01*
X133006000Y-78959750D01*
X133002928Y-79174000D01*
X132586006Y-79174000D01*
X132586006Y-78174000D01*
X133002928Y-78174000D01*
X133006000Y-78388250D01*
X133164750Y-78547000D01*
X134239000Y-78547000D01*
X134239000Y-78527000D01*
X134493000Y-78527000D01*
X134493000Y-78547000D01*
X135567250Y-78547000D01*
X135726000Y-78388250D01*
X135726336Y-78364757D01*
X136691000Y-78364757D01*
X136691000Y-78607243D01*
X136738307Y-78845069D01*
X136831102Y-79069097D01*
X136965820Y-79270717D01*
X137137283Y-79442180D01*
X137338903Y-79576898D01*
X137562931Y-79669693D01*
X137800757Y-79717000D01*
X138043243Y-79717000D01*
X138281069Y-79669693D01*
X138505097Y-79576898D01*
X138706717Y-79442180D01*
X138878180Y-79270717D01*
X139012898Y-79069097D01*
X139105693Y-78845069D01*
X139153000Y-78607243D01*
X139153000Y-78364757D01*
X139105693Y-78126931D01*
X139012898Y-77902903D01*
X138878180Y-77701283D01*
X138706717Y-77529820D01*
X138505097Y-77395102D01*
X138281069Y-77302307D01*
X138043243Y-77255000D01*
X137800757Y-77255000D01*
X137562931Y-77302307D01*
X137338903Y-77395102D01*
X137137283Y-77529820D01*
X136965820Y-77701283D01*
X136831102Y-77902903D01*
X136738307Y-78126931D01*
X136691000Y-78364757D01*
X135726336Y-78364757D01*
X135729072Y-78174000D01*
X135716812Y-78049518D01*
X135680502Y-77929820D01*
X135621537Y-77819506D01*
X135542185Y-77722815D01*
X135445494Y-77643463D01*
X135335180Y-77584498D01*
X135215482Y-77548188D01*
X135197220Y-77546389D01*
X135288488Y-77471488D01*
X135367190Y-77375589D01*
X135425671Y-77266179D01*
X135461683Y-77147462D01*
X135473843Y-77024000D01*
X135473843Y-76524000D01*
X135461683Y-76400538D01*
X135460140Y-76395451D01*
X136030834Y-75824757D01*
X136691000Y-75824757D01*
X136691000Y-76067243D01*
X136738307Y-76305069D01*
X136831102Y-76529097D01*
X136965820Y-76730717D01*
X137137283Y-76902180D01*
X137338903Y-77036898D01*
X137562931Y-77129693D01*
X137800757Y-77177000D01*
X138043243Y-77177000D01*
X138281069Y-77129693D01*
X138505097Y-77036898D01*
X138706717Y-76902180D01*
X138878180Y-76730717D01*
X139012898Y-76529097D01*
X139105693Y-76305069D01*
X139153000Y-76067243D01*
X139153000Y-75824757D01*
X139105693Y-75586931D01*
X139012898Y-75362903D01*
X138878180Y-75161283D01*
X138706717Y-74989820D01*
X138505097Y-74855102D01*
X138281069Y-74762307D01*
X138043243Y-74715000D01*
X137800757Y-74715000D01*
X137562931Y-74762307D01*
X137338903Y-74855102D01*
X137137283Y-74989820D01*
X136965820Y-75161283D01*
X136831102Y-75362903D01*
X136738307Y-75586931D01*
X136691000Y-75824757D01*
X136030834Y-75824757D01*
X136535020Y-75320572D01*
X136554327Y-75304727D01*
X136617559Y-75227679D01*
X136656852Y-75154167D01*
X136692659Y-75130242D01*
X136801442Y-75021459D01*
X136886913Y-74893542D01*
X136945787Y-74751409D01*
X136975800Y-74600522D01*
X136975800Y-74446678D01*
X136945787Y-74295791D01*
X136886913Y-74153658D01*
X136801442Y-74025741D01*
X136692659Y-73916958D01*
X136564742Y-73831487D01*
X136422609Y-73772613D01*
X136271722Y-73742600D01*
X136117878Y-73742600D01*
X135966991Y-73772613D01*
X135824858Y-73831487D01*
X135696941Y-73916958D01*
X135588158Y-74025741D01*
X135502687Y-74153658D01*
X135443813Y-74295791D01*
X135413800Y-74446678D01*
X135413800Y-74600522D01*
X135443813Y-74751409D01*
X135502687Y-74893542D01*
X135513974Y-74910434D01*
X134533252Y-75891157D01*
X133891000Y-75891157D01*
X133767538Y-75903317D01*
X133648821Y-75939329D01*
X133539411Y-75997810D01*
X133443512Y-76076512D01*
X133364810Y-76172411D01*
X133306329Y-76281821D01*
X133270317Y-76400538D01*
X133258157Y-76524000D01*
X133258157Y-77024000D01*
X133270317Y-77147462D01*
X133306329Y-77266179D01*
X133364810Y-77375589D01*
X133443512Y-77471488D01*
X133534780Y-77546389D01*
X133516518Y-77548188D01*
X133396820Y-77584498D01*
X133286506Y-77643463D01*
X133189815Y-77722815D01*
X133110463Y-77819506D01*
X133051498Y-77929820D01*
X133015188Y-78049518D01*
X133002928Y-78174000D01*
X132586006Y-78174000D01*
X132586006Y-75274507D01*
X132686648Y-75173865D01*
X132772119Y-75045948D01*
X132830993Y-74903815D01*
X132861006Y-74752928D01*
X132861006Y-74599084D01*
X132830993Y-74448197D01*
X132772119Y-74306064D01*
X132686648Y-74178147D01*
X132577865Y-74069364D01*
X132449948Y-73983893D01*
X132307815Y-73925019D01*
X132156928Y-73895006D01*
X132014597Y-73895006D01*
X131976400Y-73856809D01*
X131976400Y-73361495D01*
X132632850Y-73361495D01*
X132632850Y-73515339D01*
X132662863Y-73666226D01*
X132721737Y-73808359D01*
X132807208Y-73936276D01*
X132915991Y-74045059D01*
X133043908Y-74130530D01*
X133186041Y-74189404D01*
X133336928Y-74219417D01*
X133490772Y-74219417D01*
X133641659Y-74189404D01*
X133783792Y-74130530D01*
X133911709Y-74045059D01*
X134020492Y-73936276D01*
X134105963Y-73808359D01*
X134164837Y-73666226D01*
X134194850Y-73515339D01*
X134194850Y-73361495D01*
X134179587Y-73284757D01*
X136691000Y-73284757D01*
X136691000Y-73527243D01*
X136738307Y-73765069D01*
X136831102Y-73989097D01*
X136965820Y-74190717D01*
X137137283Y-74362180D01*
X137338903Y-74496898D01*
X137562931Y-74589693D01*
X137800757Y-74637000D01*
X138043243Y-74637000D01*
X138281069Y-74589693D01*
X138505097Y-74496898D01*
X138706717Y-74362180D01*
X138878180Y-74190717D01*
X139012898Y-73989097D01*
X139105693Y-73765069D01*
X139153000Y-73527243D01*
X139153000Y-73284757D01*
X139105693Y-73046931D01*
X139012898Y-72822903D01*
X138878180Y-72621283D01*
X138706717Y-72449820D01*
X138505097Y-72315102D01*
X138281069Y-72222307D01*
X138043243Y-72175000D01*
X137800757Y-72175000D01*
X137562931Y-72222307D01*
X137338903Y-72315102D01*
X137137283Y-72449820D01*
X136965820Y-72621283D01*
X136831102Y-72822903D01*
X136738307Y-73046931D01*
X136691000Y-73284757D01*
X134179587Y-73284757D01*
X134164837Y-73210608D01*
X134105963Y-73068475D01*
X134021510Y-72942081D01*
X136218834Y-70744757D01*
X136691000Y-70744757D01*
X136691000Y-70987243D01*
X136738307Y-71225069D01*
X136831102Y-71449097D01*
X136965820Y-71650717D01*
X137137283Y-71822180D01*
X137338903Y-71956898D01*
X137562931Y-72049693D01*
X137800757Y-72097000D01*
X138043243Y-72097000D01*
X138281069Y-72049693D01*
X138505097Y-71956898D01*
X138706717Y-71822180D01*
X138878180Y-71650717D01*
X139012898Y-71449097D01*
X139105693Y-71225069D01*
X139153000Y-70987243D01*
X139153000Y-70744757D01*
X139105693Y-70506931D01*
X139012898Y-70282903D01*
X138878180Y-70081283D01*
X138706717Y-69909820D01*
X138505097Y-69775102D01*
X138281069Y-69682307D01*
X138043243Y-69635000D01*
X137800757Y-69635000D01*
X137562931Y-69682307D01*
X137338903Y-69775102D01*
X137137283Y-69909820D01*
X136965820Y-70081283D01*
X136831102Y-70282903D01*
X136738307Y-70506931D01*
X136691000Y-70744757D01*
X136218834Y-70744757D01*
X137485834Y-69477758D01*
X137562931Y-69509693D01*
X137800757Y-69557000D01*
X138043243Y-69557000D01*
X138281069Y-69509693D01*
X138505097Y-69416898D01*
X138706717Y-69282180D01*
X138878180Y-69110717D01*
X139012898Y-68909097D01*
X139105693Y-68685069D01*
X139153000Y-68447243D01*
X139153000Y-68204757D01*
X139105693Y-67966931D01*
X139012898Y-67742903D01*
X138878180Y-67541283D01*
X138706717Y-67369820D01*
X138505097Y-67235102D01*
X138281069Y-67142307D01*
X138043243Y-67095000D01*
X137800757Y-67095000D01*
X137562931Y-67142307D01*
X137338903Y-67235102D01*
X137137283Y-67369820D01*
X136965820Y-67541283D01*
X136831102Y-67742903D01*
X136738307Y-67966931D01*
X136691000Y-68204757D01*
X136691000Y-68447243D01*
X136738307Y-68685069D01*
X136770242Y-68762166D01*
X133073635Y-72458774D01*
X133054323Y-72474623D01*
X132991091Y-72551671D01*
X132944105Y-72639576D01*
X132915172Y-72734958D01*
X132907850Y-72809297D01*
X132907850Y-72809304D01*
X132905403Y-72834150D01*
X132906139Y-72841627D01*
X132807208Y-72940558D01*
X132721737Y-73068475D01*
X132662863Y-73210608D01*
X132632850Y-73361495D01*
X131976400Y-73361495D01*
X131976400Y-73329245D01*
X131978847Y-73304399D01*
X131976400Y-73279553D01*
X131976400Y-73279546D01*
X131969078Y-73205207D01*
X131940145Y-73109825D01*
X131893159Y-73021921D01*
X131829927Y-72944873D01*
X131810620Y-72929028D01*
X128420400Y-69538809D01*
X128420400Y-68096854D01*
X128422848Y-68072000D01*
X128422061Y-68064000D01*
X128634128Y-68064000D01*
X128646388Y-68188482D01*
X128682698Y-68308180D01*
X128741663Y-68418494D01*
X128821015Y-68515185D01*
X128917706Y-68594537D01*
X129028020Y-68653502D01*
X129147718Y-68689812D01*
X129165980Y-68691611D01*
X129074712Y-68766512D01*
X128996010Y-68862411D01*
X128937529Y-68971821D01*
X128901517Y-69090538D01*
X128889357Y-69214000D01*
X128889357Y-69714000D01*
X128901517Y-69837462D01*
X128937529Y-69956179D01*
X128996010Y-70065589D01*
X129074712Y-70161488D01*
X129170611Y-70240190D01*
X129280021Y-70298671D01*
X129398738Y-70334683D01*
X129522200Y-70346843D01*
X130472200Y-70346843D01*
X130595662Y-70334683D01*
X130714379Y-70298671D01*
X130823789Y-70240190D01*
X130919688Y-70161488D01*
X130998390Y-70065589D01*
X131049484Y-69970000D01*
X131410299Y-69970000D01*
X131510941Y-70070642D01*
X131638858Y-70156113D01*
X131780991Y-70214987D01*
X131931878Y-70245000D01*
X132085722Y-70245000D01*
X132236609Y-70214987D01*
X132378742Y-70156113D01*
X132506659Y-70070642D01*
X132607301Y-69970000D01*
X133313716Y-69970000D01*
X133364810Y-70065589D01*
X133443512Y-70161488D01*
X133539411Y-70240190D01*
X133648821Y-70298671D01*
X133767538Y-70334683D01*
X133891000Y-70346843D01*
X134841000Y-70346843D01*
X134964462Y-70334683D01*
X135083179Y-70298671D01*
X135192589Y-70240190D01*
X135288488Y-70161488D01*
X135367190Y-70065589D01*
X135425671Y-69956179D01*
X135461683Y-69837462D01*
X135473843Y-69714000D01*
X135473843Y-69214000D01*
X135461683Y-69090538D01*
X135425671Y-68971821D01*
X135367190Y-68862411D01*
X135288488Y-68766512D01*
X135192589Y-68687810D01*
X135083179Y-68629329D01*
X134964462Y-68593317D01*
X134841000Y-68581157D01*
X133891000Y-68581157D01*
X133767538Y-68593317D01*
X133648821Y-68629329D01*
X133539411Y-68687810D01*
X133443512Y-68766512D01*
X133364810Y-68862411D01*
X133313716Y-68958000D01*
X132607301Y-68958000D01*
X132506659Y-68857358D01*
X132378742Y-68771887D01*
X132236609Y-68713013D01*
X132085722Y-68683000D01*
X131931878Y-68683000D01*
X131780991Y-68713013D01*
X131638858Y-68771887D01*
X131510941Y-68857358D01*
X131410299Y-68958000D01*
X131049484Y-68958000D01*
X130998390Y-68862411D01*
X130919688Y-68766512D01*
X130828420Y-68691611D01*
X130846682Y-68689812D01*
X130966380Y-68653502D01*
X131076694Y-68594537D01*
X131173385Y-68515185D01*
X131252737Y-68418494D01*
X131311702Y-68308180D01*
X131348012Y-68188482D01*
X131360272Y-68064000D01*
X131357200Y-67849750D01*
X131198450Y-67691000D01*
X130124200Y-67691000D01*
X130124200Y-67711000D01*
X129870200Y-67711000D01*
X129870200Y-67691000D01*
X128795950Y-67691000D01*
X128637200Y-67849750D01*
X128634128Y-68064000D01*
X128422061Y-68064000D01*
X128413078Y-67972807D01*
X128384145Y-67877425D01*
X128357364Y-67827322D01*
X128337159Y-67789521D01*
X128273927Y-67712473D01*
X128254620Y-67696628D01*
X127621992Y-67064000D01*
X128634128Y-67064000D01*
X128637200Y-67278250D01*
X128795950Y-67437000D01*
X129870200Y-67437000D01*
X129870200Y-66587750D01*
X130124200Y-66587750D01*
X130124200Y-67437000D01*
X131198450Y-67437000D01*
X131357200Y-67278250D01*
X131360272Y-67064000D01*
X131348012Y-66939518D01*
X131311702Y-66819820D01*
X131252737Y-66709506D01*
X131173385Y-66612815D01*
X131076694Y-66533463D01*
X130966380Y-66474498D01*
X130846682Y-66438188D01*
X130722200Y-66425928D01*
X130282950Y-66429000D01*
X130124200Y-66587750D01*
X129870200Y-66587750D01*
X129711450Y-66429000D01*
X129272200Y-66425928D01*
X129147718Y-66438188D01*
X129028020Y-66474498D01*
X128917706Y-66533463D01*
X128821015Y-66612815D01*
X128741663Y-66709506D01*
X128682698Y-66819820D01*
X128646388Y-66939518D01*
X128634128Y-67064000D01*
X127621992Y-67064000D01*
X127468794Y-66910803D01*
X127470843Y-66890000D01*
X127470843Y-65190000D01*
X127463487Y-65115311D01*
X127441701Y-65043492D01*
X127406322Y-64977304D01*
X127358711Y-64919289D01*
X127300696Y-64871678D01*
X127234508Y-64836299D01*
X127162689Y-64814513D01*
X127088000Y-64807157D01*
X125388000Y-64807157D01*
X125313311Y-64814513D01*
X125241492Y-64836299D01*
X125175304Y-64871678D01*
X125117289Y-64919289D01*
X125069678Y-64977304D01*
X125034299Y-65043492D01*
X125012513Y-65115311D01*
X125005157Y-65190000D01*
X124891000Y-65190000D01*
X124891000Y-63931078D01*
X126676200Y-63931078D01*
X126676200Y-64084922D01*
X126706213Y-64235809D01*
X126765087Y-64377942D01*
X126850558Y-64505859D01*
X126959341Y-64614642D01*
X127087258Y-64700113D01*
X127229391Y-64758987D01*
X127380278Y-64789000D01*
X127534122Y-64789000D01*
X127685009Y-64758987D01*
X127827142Y-64700113D01*
X127955059Y-64614642D01*
X128055701Y-64514000D01*
X131718009Y-64514000D01*
X133860001Y-66655993D01*
X133860001Y-66684210D01*
X133767538Y-66693317D01*
X133648821Y-66729329D01*
X133539411Y-66787810D01*
X133443512Y-66866512D01*
X133364810Y-66962411D01*
X133306329Y-67071821D01*
X133270317Y-67190538D01*
X133258157Y-67314000D01*
X133258157Y-67814000D01*
X133270317Y-67937462D01*
X133306329Y-68056179D01*
X133364810Y-68165589D01*
X133443512Y-68261488D01*
X133539411Y-68340190D01*
X133648821Y-68398671D01*
X133767538Y-68434683D01*
X133891000Y-68446843D01*
X134841000Y-68446843D01*
X134964462Y-68434683D01*
X135083179Y-68398671D01*
X135192589Y-68340190D01*
X135288488Y-68261488D01*
X135367190Y-68165589D01*
X135425671Y-68056179D01*
X135461683Y-67937462D01*
X135473843Y-67814000D01*
X135473843Y-67314000D01*
X135461683Y-67190538D01*
X135425671Y-67071821D01*
X135367190Y-66962411D01*
X135288488Y-66866512D01*
X135192589Y-66787810D01*
X135083179Y-66729329D01*
X134964462Y-66693317D01*
X134872000Y-66684210D01*
X134872000Y-66471245D01*
X134874447Y-66446399D01*
X134872000Y-66421553D01*
X134872000Y-66421546D01*
X134864678Y-66347207D01*
X134835745Y-66251825D01*
X134788759Y-66163921D01*
X134725527Y-66086873D01*
X134706220Y-66071028D01*
X133571192Y-64936000D01*
X136689157Y-64936000D01*
X136689157Y-66636000D01*
X136696513Y-66710689D01*
X136718299Y-66782508D01*
X136753678Y-66848696D01*
X136801289Y-66906711D01*
X136859304Y-66954322D01*
X136925492Y-66989701D01*
X136997311Y-67011487D01*
X137072000Y-67018843D01*
X138772000Y-67018843D01*
X138846689Y-67011487D01*
X138918508Y-66989701D01*
X138984696Y-66954322D01*
X139042711Y-66906711D01*
X139090322Y-66848696D01*
X139125701Y-66782508D01*
X139147487Y-66710689D01*
X139154843Y-66636000D01*
X139154843Y-64936000D01*
X139147487Y-64861311D01*
X139125701Y-64789492D01*
X139090322Y-64723304D01*
X139042711Y-64665289D01*
X138984696Y-64617678D01*
X138918508Y-64582299D01*
X138846689Y-64560513D01*
X138772000Y-64553157D01*
X137072000Y-64553157D01*
X136997311Y-64560513D01*
X136925492Y-64582299D01*
X136859304Y-64617678D01*
X136801289Y-64665289D01*
X136753678Y-64723304D01*
X136718299Y-64789492D01*
X136696513Y-64861311D01*
X136689157Y-64936000D01*
X133571192Y-64936000D01*
X132302976Y-63667785D01*
X132287127Y-63648473D01*
X132210079Y-63585241D01*
X132122175Y-63538255D01*
X132026793Y-63509322D01*
X131952454Y-63502000D01*
X131952446Y-63502000D01*
X131927600Y-63499553D01*
X131902754Y-63502000D01*
X128678791Y-63502000D01*
X130460792Y-61720000D01*
X133325672Y-61720000D01*
X133332317Y-61787462D01*
X133368329Y-61906179D01*
X133426810Y-62015589D01*
X133505512Y-62111488D01*
X133601411Y-62190190D01*
X133710821Y-62248671D01*
X133829538Y-62284683D01*
X133952999Y-62296843D01*
X134478001Y-62296843D01*
X134601462Y-62284683D01*
X134720179Y-62248671D01*
X134829589Y-62190190D01*
X134925488Y-62111488D01*
X135004190Y-62015589D01*
X135062671Y-61906179D01*
X135098683Y-61787462D01*
X135110843Y-61664001D01*
X135110843Y-60763999D01*
X135145157Y-60763999D01*
X135145157Y-61664001D01*
X135157317Y-61787462D01*
X135193329Y-61906179D01*
X135251810Y-62015589D01*
X135330512Y-62111488D01*
X135426411Y-62190190D01*
X135534501Y-62247965D01*
X135534501Y-62355672D01*
X135532053Y-62380528D01*
X135541822Y-62479720D01*
X135570755Y-62575102D01*
X135570756Y-62575103D01*
X135617742Y-62663007D01*
X135680974Y-62740055D01*
X135700280Y-62755899D01*
X135870972Y-62926591D01*
X135870972Y-63068922D01*
X135900985Y-63219809D01*
X135959859Y-63361942D01*
X136045330Y-63489859D01*
X136154113Y-63598642D01*
X136282030Y-63684113D01*
X136424163Y-63742987D01*
X136575050Y-63773000D01*
X136728894Y-63773000D01*
X136879781Y-63742987D01*
X137021914Y-63684113D01*
X137149831Y-63598642D01*
X137258614Y-63489859D01*
X137344085Y-63361942D01*
X137402959Y-63219809D01*
X137432972Y-63068922D01*
X137432972Y-62915078D01*
X137402959Y-62764191D01*
X137344085Y-62622058D01*
X137258614Y-62494141D01*
X137149831Y-62385358D01*
X137021914Y-62299887D01*
X136879781Y-62241013D01*
X136728894Y-62211000D01*
X136615656Y-62211000D01*
X136654589Y-62190190D01*
X136750488Y-62111488D01*
X136829190Y-62015589D01*
X136887671Y-61906179D01*
X136923683Y-61787462D01*
X136935843Y-61664001D01*
X136935843Y-60763999D01*
X136923683Y-60640538D01*
X136887671Y-60521821D01*
X136829190Y-60412411D01*
X136750488Y-60316512D01*
X136654589Y-60237810D01*
X136545179Y-60179329D01*
X136426462Y-60143317D01*
X136303001Y-60131157D01*
X135777999Y-60131157D01*
X135654538Y-60143317D01*
X135535821Y-60179329D01*
X135426411Y-60237810D01*
X135330512Y-60316512D01*
X135251810Y-60412411D01*
X135193329Y-60521821D01*
X135157317Y-60640538D01*
X135145157Y-60763999D01*
X135110843Y-60763999D01*
X135098683Y-60640538D01*
X135062671Y-60521821D01*
X135004190Y-60412411D01*
X134925488Y-60316512D01*
X134829589Y-60237810D01*
X134720179Y-60179329D01*
X134601462Y-60143317D01*
X134478001Y-60131157D01*
X133952999Y-60131157D01*
X133829538Y-60143317D01*
X133710821Y-60179329D01*
X133601411Y-60237810D01*
X133505512Y-60316512D01*
X133426810Y-60412411D01*
X133368329Y-60521821D01*
X133332317Y-60640538D01*
X133325672Y-60708000D01*
X130276054Y-60708000D01*
X130251200Y-60705552D01*
X130226346Y-60708000D01*
X130152007Y-60715322D01*
X130056625Y-60744255D01*
X129968721Y-60791241D01*
X129891673Y-60854473D01*
X129875828Y-60873780D01*
X127522609Y-63227000D01*
X127380278Y-63227000D01*
X127229391Y-63257013D01*
X127087258Y-63315887D01*
X126959341Y-63401358D01*
X126850558Y-63510141D01*
X126765087Y-63638058D01*
X126706213Y-63780191D01*
X126676200Y-63931078D01*
X124891000Y-63931078D01*
X124891000Y-58031000D01*
X139269001Y-58031000D01*
X139269000Y-63478832D01*
G37*
%TD.AperFunction*%
%TD*%
M02*
