M48
; DRILL file {KiCad 5.1.9-73d0e3b20d~88~ubuntu20.04.1} date Thu Jun 24 22:40:57 2021
; FORMAT={-:-/ absolute / inch / decimal}
; #@! TF.CreationDate,2021-06-24T22:40:57-04:00
; #@! TF.GenerationSoftware,Kicad,Pcbnew,5.1.9-73d0e3b20d~88~ubuntu20.04.1
; #@! TF.FileFunction,Plated,1,2,PTH
FMAT,2
INCH
T1C0.0157
T2C0.0394
%
G90
G05
T1
X5.018Y-2.52
X5.03Y-3.042
X5.056Y-3.56
X5.074Y-3.364
X5.13Y-2.89
X5.1972Y-2.7348
X5.2Y-2.94
X5.208Y-2.666
X5.232Y-3.142
X5.2525Y-2.8913
X5.318Y-3.354
X5.362Y-2.934
X5.38Y-2.48
T2
X4.97Y-2.6
X4.97Y-2.7
X4.97Y-2.8
X4.97Y-2.9
X4.97Y-3.0
X4.97Y-3.1
X4.97Y-3.2
X4.97Y-3.3
X4.97Y-3.4
X4.97Y-3.5
X5.43Y-2.59
X5.43Y-2.69
X5.43Y-2.79
X5.43Y-2.89
X5.43Y-2.99
X5.43Y-3.09
X5.43Y-3.19
X5.43Y-3.29
X5.43Y-3.39
X5.43Y-3.49
T0
M30
