%TF.GenerationSoftware,KiCad,Pcbnew,5.1.9-73d0e3b20d~88~ubuntu20.04.1*%
%TF.CreationDate,2021-06-24T22:41:13-04:00*%
%TF.ProjectId,stm32_breakout,73746d33-325f-4627-9265-616b6f75742e,rev?*%
%TF.SameCoordinates,Original*%
%TF.FileFunction,Copper,L1,Top*%
%TF.FilePolarity,Positive*%
%FSLAX46Y46*%
G04 Gerber Fmt 4.6, Leading zero omitted, Abs format (unit mm)*
G04 Created by KiCad (PCBNEW 5.1.9-73d0e3b20d~88~ubuntu20.04.1) date 2021-06-24 22:41:13*
%MOMM*%
%LPD*%
G01*
G04 APERTURE LIST*
%TA.AperFunction,SMDPad,CuDef*%
%ADD10R,0.450000X1.380000*%
%TD*%
%TA.AperFunction,SMDPad,CuDef*%
%ADD11R,1.425000X1.550000*%
%TD*%
%TA.AperFunction,SMDPad,CuDef*%
%ADD12R,1.650000X1.300000*%
%TD*%
%TA.AperFunction,SMDPad,CuDef*%
%ADD13R,1.800000X1.900000*%
%TD*%
%TA.AperFunction,SMDPad,CuDef*%
%ADD14R,1.000000X1.900000*%
%TD*%
%TA.AperFunction,ComponentPad*%
%ADD15O,1.700000X1.700000*%
%TD*%
%TA.AperFunction,ComponentPad*%
%ADD16R,1.700000X1.700000*%
%TD*%
%TA.AperFunction,SMDPad,CuDef*%
%ADD17R,3.800000X2.000000*%
%TD*%
%TA.AperFunction,SMDPad,CuDef*%
%ADD18R,1.500000X2.000000*%
%TD*%
%TA.AperFunction,ViaPad*%
%ADD19C,0.800000*%
%TD*%
%TA.AperFunction,Conductor*%
%ADD20C,0.250000*%
%TD*%
%TA.AperFunction,Conductor*%
%ADD21C,0.400000*%
%TD*%
%TA.AperFunction,Conductor*%
%ADD22C,0.254000*%
%TD*%
%TA.AperFunction,Conductor*%
%ADD23C,0.100000*%
%TD*%
G04 APERTURE END LIST*
%TO.P,D1,1*%
%TO.N,GND*%
%TA.AperFunction,SMDPad,CuDef*%
G36*
G01*
X137719750Y-59281000D02*
X138632250Y-59281000D01*
G75*
G02*
X138876000Y-59524750I0J-243750D01*
G01*
X138876000Y-60012250D01*
G75*
G02*
X138632250Y-60256000I-243750J0D01*
G01*
X137719750Y-60256000D01*
G75*
G02*
X137476000Y-60012250I0J243750D01*
G01*
X137476000Y-59524750D01*
G75*
G02*
X137719750Y-59281000I243750J0D01*
G01*
G37*
%TD.AperFunction*%
%TO.P,D1,2*%
%TO.N,Net-(D1-Pad2)*%
%TA.AperFunction,SMDPad,CuDef*%
G36*
G01*
X137719750Y-61156000D02*
X138632250Y-61156000D01*
G75*
G02*
X138876000Y-61399750I0J-243750D01*
G01*
X138876000Y-61887250D01*
G75*
G02*
X138632250Y-62131000I-243750J0D01*
G01*
X137719750Y-62131000D01*
G75*
G02*
X137476000Y-61887250I0J243750D01*
G01*
X137476000Y-61399750D01*
G75*
G02*
X137719750Y-61156000I243750J0D01*
G01*
G37*
%TD.AperFunction*%
%TD*%
D10*
%TO.P,J1,1*%
%TO.N,Net-(C1-Pad2)*%
X133380000Y-62420000D03*
%TO.P,J1,2*%
%TO.N,Net-(J1-Pad2)*%
X132730000Y-62420000D03*
%TO.P,J1,3*%
%TO.N,Net-(J1-Pad3)*%
X132080000Y-62420000D03*
%TO.P,J1,4*%
%TO.N,Net-(J1-Pad4)*%
X131430000Y-62420000D03*
%TO.P,J1,5*%
%TO.N,GND*%
X130780000Y-62420000D03*
D11*
%TO.P,J1,6*%
X134567500Y-62335000D03*
X129592500Y-62335000D03*
D12*
X135455000Y-59760000D03*
X128705000Y-59760000D03*
D13*
X133230000Y-59760000D03*
D14*
X130530000Y-59760000D03*
%TD*%
D15*
%TO.P,J2,10*%
%TO.N,+3V3*%
X137922000Y-88646000D03*
%TO.P,J2,9*%
%TO.N,/PA9*%
X137922000Y-86106000D03*
%TO.P,J2,8*%
%TO.N,/PA10*%
X137922000Y-83566000D03*
%TO.P,J2,7*%
%TO.N,/PA14*%
X137922000Y-81026000D03*
%TO.P,J2,6*%
%TO.N,/PA13*%
X137922000Y-78486000D03*
%TO.P,J2,5*%
%TO.N,/PB9-BOOT0*%
X137922000Y-75946000D03*
%TO.P,J2,4*%
%TO.N,/PC14-OSC32IN*%
X137922000Y-73406000D03*
%TO.P,J2,3*%
%TO.N,/PC15-OSC32_OUT*%
X137922000Y-70866000D03*
%TO.P,J2,2*%
%TO.N,/NRST*%
X137922000Y-68326000D03*
D16*
%TO.P,J2,1*%
%TO.N,Net-(J2-Pad1)*%
X137922000Y-65786000D03*
%TD*%
%TO.P,J3,1*%
%TO.N,/PA0-CK_IN*%
X126238000Y-66040000D03*
D15*
%TO.P,J3,2*%
%TO.N,/PA1*%
X126238000Y-68580000D03*
%TO.P,J3,3*%
%TO.N,/PA2*%
X126238000Y-71120000D03*
%TO.P,J3,4*%
%TO.N,/PA3*%
X126238000Y-73660000D03*
%TO.P,J3,5*%
%TO.N,/PA4*%
X126238000Y-76200000D03*
%TO.P,J3,6*%
%TO.N,/PA6*%
X126238000Y-78740000D03*
%TO.P,J3,7*%
%TO.N,/PA5*%
X126238000Y-81280000D03*
%TO.P,J3,8*%
%TO.N,/PA7*%
X126238000Y-83820000D03*
%TO.P,J3,9*%
%TO.N,/PB1*%
X126238000Y-86360000D03*
%TO.P,J3,10*%
%TO.N,GND*%
X126238000Y-88900000D03*
%TD*%
D17*
%TO.P,U1,2*%
%TO.N,+3V3*%
X132080000Y-71628000D03*
D18*
X132080000Y-65328000D03*
%TO.P,U1,3*%
%TO.N,Net-(C1-Pad2)*%
X129780000Y-65328000D03*
%TO.P,U1,1*%
%TO.N,GND*%
X134380000Y-65328000D03*
%TD*%
%TO.P,U2,1*%
%TO.N,/PB9-BOOT0*%
%TA.AperFunction,SMDPad,CuDef*%
G36*
G01*
X134905000Y-76156000D02*
X135105000Y-76156000D01*
G75*
G02*
X135205000Y-76256000I0J-100000D01*
G01*
X135205000Y-77531000D01*
G75*
G02*
X135105000Y-77631000I-100000J0D01*
G01*
X134905000Y-77631000D01*
G75*
G02*
X134805000Y-77531000I0J100000D01*
G01*
X134805000Y-76256000D01*
G75*
G02*
X134905000Y-76156000I100000J0D01*
G01*
G37*
%TD.AperFunction*%
%TO.P,U2,2*%
%TO.N,/PC14-OSC32IN*%
%TA.AperFunction,SMDPad,CuDef*%
G36*
G01*
X134255000Y-76156000D02*
X134455000Y-76156000D01*
G75*
G02*
X134555000Y-76256000I0J-100000D01*
G01*
X134555000Y-77531000D01*
G75*
G02*
X134455000Y-77631000I-100000J0D01*
G01*
X134255000Y-77631000D01*
G75*
G02*
X134155000Y-77531000I0J100000D01*
G01*
X134155000Y-76256000D01*
G75*
G02*
X134255000Y-76156000I100000J0D01*
G01*
G37*
%TD.AperFunction*%
%TO.P,U2,3*%
%TO.N,/PC15-OSC32_OUT*%
%TA.AperFunction,SMDPad,CuDef*%
G36*
G01*
X133605000Y-76156000D02*
X133805000Y-76156000D01*
G75*
G02*
X133905000Y-76256000I0J-100000D01*
G01*
X133905000Y-77531000D01*
G75*
G02*
X133805000Y-77631000I-100000J0D01*
G01*
X133605000Y-77631000D01*
G75*
G02*
X133505000Y-77531000I0J100000D01*
G01*
X133505000Y-76256000D01*
G75*
G02*
X133605000Y-76156000I100000J0D01*
G01*
G37*
%TD.AperFunction*%
%TO.P,U2,4*%
%TO.N,/NRST*%
%TA.AperFunction,SMDPad,CuDef*%
G36*
G01*
X132955000Y-76156000D02*
X133155000Y-76156000D01*
G75*
G02*
X133255000Y-76256000I0J-100000D01*
G01*
X133255000Y-77531000D01*
G75*
G02*
X133155000Y-77631000I-100000J0D01*
G01*
X132955000Y-77631000D01*
G75*
G02*
X132855000Y-77531000I0J100000D01*
G01*
X132855000Y-76256000D01*
G75*
G02*
X132955000Y-76156000I100000J0D01*
G01*
G37*
%TD.AperFunction*%
%TO.P,U2,5*%
%TO.N,+3V3*%
%TA.AperFunction,SMDPad,CuDef*%
G36*
G01*
X132305000Y-76156000D02*
X132505000Y-76156000D01*
G75*
G02*
X132605000Y-76256000I0J-100000D01*
G01*
X132605000Y-77531000D01*
G75*
G02*
X132505000Y-77631000I-100000J0D01*
G01*
X132305000Y-77631000D01*
G75*
G02*
X132205000Y-77531000I0J100000D01*
G01*
X132205000Y-76256000D01*
G75*
G02*
X132305000Y-76156000I100000J0D01*
G01*
G37*
%TD.AperFunction*%
%TO.P,U2,6*%
%TO.N,/PA0-CK_IN*%
%TA.AperFunction,SMDPad,CuDef*%
G36*
G01*
X131655000Y-76156000D02*
X131855000Y-76156000D01*
G75*
G02*
X131955000Y-76256000I0J-100000D01*
G01*
X131955000Y-77531000D01*
G75*
G02*
X131855000Y-77631000I-100000J0D01*
G01*
X131655000Y-77631000D01*
G75*
G02*
X131555000Y-77531000I0J100000D01*
G01*
X131555000Y-76256000D01*
G75*
G02*
X131655000Y-76156000I100000J0D01*
G01*
G37*
%TD.AperFunction*%
%TO.P,U2,7*%
%TO.N,/PA1*%
%TA.AperFunction,SMDPad,CuDef*%
G36*
G01*
X131005000Y-76156000D02*
X131205000Y-76156000D01*
G75*
G02*
X131305000Y-76256000I0J-100000D01*
G01*
X131305000Y-77531000D01*
G75*
G02*
X131205000Y-77631000I-100000J0D01*
G01*
X131005000Y-77631000D01*
G75*
G02*
X130905000Y-77531000I0J100000D01*
G01*
X130905000Y-76256000D01*
G75*
G02*
X131005000Y-76156000I100000J0D01*
G01*
G37*
%TD.AperFunction*%
%TO.P,U2,8*%
%TO.N,/PA2*%
%TA.AperFunction,SMDPad,CuDef*%
G36*
G01*
X130355000Y-76156000D02*
X130555000Y-76156000D01*
G75*
G02*
X130655000Y-76256000I0J-100000D01*
G01*
X130655000Y-77531000D01*
G75*
G02*
X130555000Y-77631000I-100000J0D01*
G01*
X130355000Y-77631000D01*
G75*
G02*
X130255000Y-77531000I0J100000D01*
G01*
X130255000Y-76256000D01*
G75*
G02*
X130355000Y-76156000I100000J0D01*
G01*
G37*
%TD.AperFunction*%
%TO.P,U2,9*%
%TO.N,/PA3*%
%TA.AperFunction,SMDPad,CuDef*%
G36*
G01*
X129705000Y-76156000D02*
X129905000Y-76156000D01*
G75*
G02*
X130005000Y-76256000I0J-100000D01*
G01*
X130005000Y-77531000D01*
G75*
G02*
X129905000Y-77631000I-100000J0D01*
G01*
X129705000Y-77631000D01*
G75*
G02*
X129605000Y-77531000I0J100000D01*
G01*
X129605000Y-76256000D01*
G75*
G02*
X129705000Y-76156000I100000J0D01*
G01*
G37*
%TD.AperFunction*%
%TO.P,U2,10*%
%TO.N,/PA4*%
%TA.AperFunction,SMDPad,CuDef*%
G36*
G01*
X129055000Y-76156000D02*
X129255000Y-76156000D01*
G75*
G02*
X129355000Y-76256000I0J-100000D01*
G01*
X129355000Y-77531000D01*
G75*
G02*
X129255000Y-77631000I-100000J0D01*
G01*
X129055000Y-77631000D01*
G75*
G02*
X128955000Y-77531000I0J100000D01*
G01*
X128955000Y-76256000D01*
G75*
G02*
X129055000Y-76156000I100000J0D01*
G01*
G37*
%TD.AperFunction*%
%TO.P,U2,11*%
%TO.N,/PA5*%
%TA.AperFunction,SMDPad,CuDef*%
G36*
G01*
X129055000Y-81881000D02*
X129255000Y-81881000D01*
G75*
G02*
X129355000Y-81981000I0J-100000D01*
G01*
X129355000Y-83256000D01*
G75*
G02*
X129255000Y-83356000I-100000J0D01*
G01*
X129055000Y-83356000D01*
G75*
G02*
X128955000Y-83256000I0J100000D01*
G01*
X128955000Y-81981000D01*
G75*
G02*
X129055000Y-81881000I100000J0D01*
G01*
G37*
%TD.AperFunction*%
%TO.P,U2,12*%
%TO.N,/PA6*%
%TA.AperFunction,SMDPad,CuDef*%
G36*
G01*
X129705000Y-81881000D02*
X129905000Y-81881000D01*
G75*
G02*
X130005000Y-81981000I0J-100000D01*
G01*
X130005000Y-83256000D01*
G75*
G02*
X129905000Y-83356000I-100000J0D01*
G01*
X129705000Y-83356000D01*
G75*
G02*
X129605000Y-83256000I0J100000D01*
G01*
X129605000Y-81981000D01*
G75*
G02*
X129705000Y-81881000I100000J0D01*
G01*
G37*
%TD.AperFunction*%
%TO.P,U2,13*%
%TO.N,/PA7*%
%TA.AperFunction,SMDPad,CuDef*%
G36*
G01*
X130355000Y-81881000D02*
X130555000Y-81881000D01*
G75*
G02*
X130655000Y-81981000I0J-100000D01*
G01*
X130655000Y-83256000D01*
G75*
G02*
X130555000Y-83356000I-100000J0D01*
G01*
X130355000Y-83356000D01*
G75*
G02*
X130255000Y-83256000I0J100000D01*
G01*
X130255000Y-81981000D01*
G75*
G02*
X130355000Y-81881000I100000J0D01*
G01*
G37*
%TD.AperFunction*%
%TO.P,U2,14*%
%TO.N,/PB1*%
%TA.AperFunction,SMDPad,CuDef*%
G36*
G01*
X131005000Y-81881000D02*
X131205000Y-81881000D01*
G75*
G02*
X131305000Y-81981000I0J-100000D01*
G01*
X131305000Y-83256000D01*
G75*
G02*
X131205000Y-83356000I-100000J0D01*
G01*
X131005000Y-83356000D01*
G75*
G02*
X130905000Y-83256000I0J100000D01*
G01*
X130905000Y-81981000D01*
G75*
G02*
X131005000Y-81881000I100000J0D01*
G01*
G37*
%TD.AperFunction*%
%TO.P,U2,15*%
%TO.N,GND*%
%TA.AperFunction,SMDPad,CuDef*%
G36*
G01*
X131655000Y-81881000D02*
X131855000Y-81881000D01*
G75*
G02*
X131955000Y-81981000I0J-100000D01*
G01*
X131955000Y-83256000D01*
G75*
G02*
X131855000Y-83356000I-100000J0D01*
G01*
X131655000Y-83356000D01*
G75*
G02*
X131555000Y-83256000I0J100000D01*
G01*
X131555000Y-81981000D01*
G75*
G02*
X131655000Y-81881000I100000J0D01*
G01*
G37*
%TD.AperFunction*%
%TO.P,U2,16*%
%TO.N,+3V3*%
%TA.AperFunction,SMDPad,CuDef*%
G36*
G01*
X132305000Y-81881000D02*
X132505000Y-81881000D01*
G75*
G02*
X132605000Y-81981000I0J-100000D01*
G01*
X132605000Y-83256000D01*
G75*
G02*
X132505000Y-83356000I-100000J0D01*
G01*
X132305000Y-83356000D01*
G75*
G02*
X132205000Y-83256000I0J100000D01*
G01*
X132205000Y-81981000D01*
G75*
G02*
X132305000Y-81881000I100000J0D01*
G01*
G37*
%TD.AperFunction*%
%TO.P,U2,17*%
%TO.N,/PA9*%
%TA.AperFunction,SMDPad,CuDef*%
G36*
G01*
X132955000Y-81881000D02*
X133155000Y-81881000D01*
G75*
G02*
X133255000Y-81981000I0J-100000D01*
G01*
X133255000Y-83256000D01*
G75*
G02*
X133155000Y-83356000I-100000J0D01*
G01*
X132955000Y-83356000D01*
G75*
G02*
X132855000Y-83256000I0J100000D01*
G01*
X132855000Y-81981000D01*
G75*
G02*
X132955000Y-81881000I100000J0D01*
G01*
G37*
%TD.AperFunction*%
%TO.P,U2,18*%
%TO.N,/PA10*%
%TA.AperFunction,SMDPad,CuDef*%
G36*
G01*
X133605000Y-81881000D02*
X133805000Y-81881000D01*
G75*
G02*
X133905000Y-81981000I0J-100000D01*
G01*
X133905000Y-83256000D01*
G75*
G02*
X133805000Y-83356000I-100000J0D01*
G01*
X133605000Y-83356000D01*
G75*
G02*
X133505000Y-83256000I0J100000D01*
G01*
X133505000Y-81981000D01*
G75*
G02*
X133605000Y-81881000I100000J0D01*
G01*
G37*
%TD.AperFunction*%
%TO.P,U2,19*%
%TO.N,/PA13*%
%TA.AperFunction,SMDPad,CuDef*%
G36*
G01*
X134255000Y-81881000D02*
X134455000Y-81881000D01*
G75*
G02*
X134555000Y-81981000I0J-100000D01*
G01*
X134555000Y-83256000D01*
G75*
G02*
X134455000Y-83356000I-100000J0D01*
G01*
X134255000Y-83356000D01*
G75*
G02*
X134155000Y-83256000I0J100000D01*
G01*
X134155000Y-81981000D01*
G75*
G02*
X134255000Y-81881000I100000J0D01*
G01*
G37*
%TD.AperFunction*%
%TO.P,U2,20*%
%TO.N,/PA14*%
%TA.AperFunction,SMDPad,CuDef*%
G36*
G01*
X134905000Y-81881000D02*
X135105000Y-81881000D01*
G75*
G02*
X135205000Y-81981000I0J-100000D01*
G01*
X135205000Y-83256000D01*
G75*
G02*
X135105000Y-83356000I-100000J0D01*
G01*
X134905000Y-83356000D01*
G75*
G02*
X134805000Y-83256000I0J100000D01*
G01*
X134805000Y-81981000D01*
G75*
G02*
X134905000Y-81881000I100000J0D01*
G01*
G37*
%TD.AperFunction*%
%TD*%
D19*
%TO.N,GND*%
X128422400Y-90424000D03*
X135077200Y-85191600D03*
X128879600Y-85445600D03*
X136194800Y-74523600D03*
X127762000Y-77266800D03*
X132008800Y-69464000D03*
%TO.N,+3V3*%
X132892800Y-79806800D03*
X132283200Y-67716400D03*
%TO.N,Net-(D1-Pad2)*%
X136651972Y-62992000D03*
%TO.N,/NRST*%
X133413850Y-73438417D03*
%TO.N,/PA0-CK_IN*%
X132080006Y-74676006D03*
%TO.N,/PA1*%
X130302000Y-73406000D03*
%TO.N,Net-(C1-Pad2)*%
X127457200Y-64008000D03*
%TD*%
D20*
%TO.N,GND*%
X128705000Y-59760000D02*
X130530000Y-59760000D01*
X128705000Y-61447500D02*
X129592500Y-62335000D01*
X128705000Y-59760000D02*
X128705000Y-61447500D01*
X130780000Y-60010000D02*
X130530000Y-59760000D01*
X130780000Y-62420000D02*
X130780000Y-60010000D01*
X130530000Y-59760000D02*
X133230000Y-59760000D01*
X133230000Y-59760000D02*
X135455000Y-59760000D01*
X133230000Y-60769998D02*
X133230000Y-59760000D01*
X134567500Y-62107498D02*
X133230000Y-60769998D01*
X134567500Y-62335000D02*
X134567500Y-62107498D01*
D21*
X131755000Y-82618500D02*
X131755000Y-84409400D01*
D20*
X138486001Y-87281001D02*
X139097001Y-86670001D01*
X131565399Y-87281001D02*
X138486001Y-87281001D01*
X128422400Y-90424000D02*
X131565399Y-87281001D01*
X126802001Y-82644999D02*
X127838012Y-83681010D01*
X125062999Y-83255999D02*
X125673999Y-82644999D01*
X125673999Y-87535001D02*
X125062999Y-86924001D01*
X125062999Y-86924001D02*
X125062999Y-83255999D01*
X133763001Y-87281001D02*
X133509001Y-87535001D01*
X138486001Y-87281001D02*
X133763001Y-87281001D01*
X133509001Y-87535001D02*
X125673999Y-87535001D01*
X125673999Y-82644999D02*
X126802001Y-82644999D01*
X127838012Y-83681010D02*
X129528952Y-83681010D01*
X135877990Y-83681010D02*
X134728952Y-83681010D01*
X137357999Y-82201001D02*
X135877990Y-83681010D01*
X138486001Y-82201001D02*
X137357999Y-82201001D01*
X139097001Y-77921999D02*
X139097001Y-81590001D01*
X139097001Y-81590001D02*
X138486001Y-82201001D01*
X138486001Y-77310999D02*
X139097001Y-77921999D01*
X136373943Y-77310999D02*
X138486001Y-77310999D01*
X129509409Y-87535001D02*
X131879990Y-85164420D01*
X125673999Y-87535001D02*
X129509409Y-87535001D01*
X137357999Y-77310999D02*
X136633008Y-78035990D01*
X138486001Y-77310999D02*
X137357999Y-77310999D01*
X139097001Y-83001999D02*
X138486001Y-82390999D01*
X138486001Y-82390999D02*
X137357999Y-82390999D01*
X136067988Y-83681010D02*
X134631048Y-83681010D01*
X137357999Y-82390999D02*
X136067988Y-83681010D01*
X139097001Y-86670001D02*
X139097001Y-83001999D01*
X139097001Y-85541999D02*
X138441802Y-84886800D01*
X139097001Y-86670001D02*
X139097001Y-85541999D01*
X138441802Y-84886800D02*
X134823200Y-84886800D01*
X129124769Y-85081169D02*
X129124769Y-85200431D01*
X129124769Y-85200431D02*
X128879600Y-85445600D01*
D21*
X126917600Y-59760000D02*
X128705000Y-59760000D01*
D20*
X135455000Y-59760000D02*
X135515200Y-59760000D01*
X135515200Y-59760000D02*
X136804400Y-58470800D01*
X136804400Y-58470800D02*
X138023600Y-58470800D01*
X134555399Y-63717001D02*
X135751401Y-63717001D01*
X135751401Y-63717001D02*
X136144000Y-64109600D01*
X134567500Y-63704900D02*
X134555399Y-63717001D01*
D21*
X134567500Y-62335000D02*
X134567500Y-63704900D01*
X129592500Y-63701500D02*
X129592500Y-62335000D01*
D20*
X134380000Y-64530000D02*
X134380000Y-66040000D01*
X134380000Y-65328000D02*
X134380000Y-66026000D01*
%TO.N,+3V3*%
X132080000Y-71628000D02*
X132080000Y-71221600D01*
X131978400Y-65429600D02*
X132080000Y-65328000D01*
X132405000Y-80294600D02*
X132892800Y-79806800D01*
X132405000Y-82618500D02*
X132405000Y-80294600D01*
X132892800Y-79044800D02*
X132892800Y-79806800D01*
X132405000Y-78557000D02*
X132892800Y-79044800D01*
X132405000Y-76893500D02*
X132405000Y-78557000D01*
X132080000Y-65328000D02*
X132080000Y-67310000D01*
X132283200Y-67513200D02*
X132283200Y-67716400D01*
X132080000Y-67310000D02*
X132283200Y-67513200D01*
X132080000Y-71221600D02*
X130657600Y-69799200D01*
X130657600Y-69799200D02*
X130657600Y-68275200D01*
X131216400Y-67716400D02*
X132283200Y-67716400D01*
X130657600Y-68275200D02*
X131216400Y-67716400D01*
%TO.N,Net-(D1-Pad2)*%
X137414000Y-62992000D02*
X136651972Y-62992000D01*
X138176000Y-62230000D02*
X137414000Y-62992000D01*
X138176000Y-61643500D02*
X138176000Y-62230000D01*
%TO.N,/PB9-BOOT0*%
X135005000Y-76893500D02*
X135952500Y-75946000D01*
X135952500Y-75946000D02*
X137922000Y-75946000D01*
%TO.N,/PB1*%
X130048000Y-86360000D02*
X126238000Y-86360000D01*
X131105000Y-85303000D02*
X130048000Y-86360000D01*
X131105000Y-82618500D02*
X131105000Y-85303000D01*
%TO.N,/PC15-OSC32_OUT*%
X133698988Y-74178599D02*
X137011587Y-70866000D01*
X133698988Y-76887488D02*
X133698988Y-74178599D01*
X137011587Y-70866000D02*
X137922000Y-70866000D01*
X133705000Y-76893500D02*
X133698988Y-76887488D01*
%TO.N,/PC14-OSC32IN*%
X134148999Y-74364999D02*
X135107998Y-73406000D01*
X134148999Y-75061001D02*
X134148999Y-74364999D01*
X134355000Y-75267002D02*
X134148999Y-75061001D01*
X134355000Y-76893500D02*
X134355000Y-75267002D01*
X135107998Y-73406000D02*
X137922000Y-73406000D01*
%TO.N,/PA14*%
X135005000Y-82618500D02*
X135005000Y-81657000D01*
X135636000Y-81026000D02*
X137922000Y-81026000D01*
X135005000Y-81657000D02*
X135636000Y-81026000D01*
%TO.N,/PA13*%
X134355000Y-82618500D02*
X134355000Y-80275000D01*
X136144000Y-78486000D02*
X137922000Y-78486000D01*
X134355000Y-80275000D02*
X136144000Y-78486000D01*
%TO.N,/NRST*%
X133055000Y-73797267D02*
X133413850Y-73438417D01*
X133055000Y-76893500D02*
X133055000Y-73797267D01*
%TO.N,/PA0-CK_IN*%
X131755000Y-75001012D02*
X132080006Y-74676006D01*
X131755000Y-76893500D02*
X131755000Y-75001012D01*
%TO.N,/PA1*%
X131029997Y-74133997D02*
X130302000Y-73406000D01*
X131029997Y-76818497D02*
X131029997Y-74133997D01*
X131105000Y-76893500D02*
X131029997Y-76818497D01*
%TO.N,/PA2*%
X130455000Y-74829000D02*
X126746000Y-71120000D01*
X130455000Y-76893500D02*
X130455000Y-74829000D01*
X126746000Y-71120000D02*
X126238000Y-71120000D01*
%TO.N,/PA3*%
X129805000Y-76893500D02*
X129805000Y-74941000D01*
X129805000Y-74941000D02*
X128524000Y-73660000D01*
X128524000Y-73660000D02*
X126238000Y-73660000D01*
%TO.N,/PA4*%
X129155000Y-76893500D02*
X129155000Y-75815000D01*
X129155000Y-75815000D02*
X128778000Y-75438000D01*
X127000000Y-75438000D02*
X126238000Y-76200000D01*
X128778000Y-75438000D02*
X127000000Y-75438000D01*
%TO.N,/PA5*%
X129155000Y-82618500D02*
X129155000Y-81403000D01*
X129032000Y-81280000D02*
X126238000Y-81280000D01*
X129155000Y-81403000D02*
X129032000Y-81280000D01*
%TO.N,/PA6*%
X129805000Y-82618500D02*
X129805000Y-80021000D01*
X128524000Y-78740000D02*
X126238000Y-78740000D01*
X129805000Y-80021000D02*
X128524000Y-78740000D01*
%TO.N,/PA7*%
X129786402Y-84161798D02*
X126579798Y-84161798D01*
X130455000Y-83493200D02*
X129786402Y-84161798D01*
X130455000Y-82618500D02*
X130455000Y-83493200D01*
X126579798Y-84161798D02*
X126238000Y-83820000D01*
%TO.N,/PA9*%
X133662398Y-86170602D02*
X137857398Y-86170602D01*
X133055000Y-82618500D02*
X133055000Y-85563204D01*
X137857398Y-86170602D02*
X137922000Y-86106000D01*
X133055000Y-85563204D02*
X133662398Y-86170602D01*
%TO.N,/PA10*%
X133705000Y-83391372D02*
X134475426Y-84161798D01*
X134475426Y-84161798D02*
X137326202Y-84161798D01*
X133705000Y-82618500D02*
X133705000Y-83391372D01*
X137326202Y-84161798D02*
X137922000Y-83566000D01*
%TO.N,Net-(C1-Pad2)*%
X129780000Y-65328000D02*
X129780000Y-66155600D01*
X131672999Y-63435001D02*
X129780000Y-65328000D01*
X133215001Y-63435001D02*
X131672999Y-63435001D01*
X133380000Y-63270002D02*
X133215001Y-63435001D01*
X133380000Y-62420000D02*
X133380000Y-63270002D01*
X129780000Y-65328000D02*
X128777200Y-65328000D01*
X128777200Y-65328000D02*
X127457200Y-64008000D01*
%TD*%
D22*
%TO.N,GND*%
X139273000Y-63479023D02*
X139273001Y-91013000D01*
X124887000Y-91013000D01*
X124887000Y-89500308D01*
X124966359Y-89666920D01*
X125140412Y-89900269D01*
X125356645Y-90095178D01*
X125606748Y-90244157D01*
X125881109Y-90341481D01*
X126111000Y-90220814D01*
X126111000Y-89027000D01*
X126365000Y-89027000D01*
X126365000Y-90220814D01*
X126594891Y-90341481D01*
X126869252Y-90244157D01*
X127119355Y-90095178D01*
X127335588Y-89900269D01*
X127509641Y-89666920D01*
X127634825Y-89404099D01*
X127679476Y-89256890D01*
X127558155Y-89027000D01*
X126365000Y-89027000D01*
X126111000Y-89027000D01*
X126091000Y-89027000D01*
X126091000Y-88773000D01*
X126111000Y-88773000D01*
X126111000Y-88753000D01*
X126365000Y-88753000D01*
X126365000Y-88773000D01*
X127558155Y-88773000D01*
X127679476Y-88543110D01*
X127674029Y-88525151D01*
X136695000Y-88525151D01*
X136695000Y-88766849D01*
X136742153Y-89003903D01*
X136834647Y-89227202D01*
X136968927Y-89428167D01*
X137139833Y-89599073D01*
X137340798Y-89733353D01*
X137564097Y-89825847D01*
X137801151Y-89873000D01*
X138042849Y-89873000D01*
X138279903Y-89825847D01*
X138503202Y-89733353D01*
X138704167Y-89599073D01*
X138875073Y-89428167D01*
X139009353Y-89227202D01*
X139101847Y-89003903D01*
X139149000Y-88766849D01*
X139149000Y-88525151D01*
X139101847Y-88288097D01*
X139009353Y-88064798D01*
X138875073Y-87863833D01*
X138704167Y-87692927D01*
X138503202Y-87558647D01*
X138279903Y-87466153D01*
X138042849Y-87419000D01*
X137801151Y-87419000D01*
X137564097Y-87466153D01*
X137340798Y-87558647D01*
X137139833Y-87692927D01*
X136968927Y-87863833D01*
X136834647Y-88064798D01*
X136742153Y-88288097D01*
X136695000Y-88525151D01*
X127674029Y-88525151D01*
X127634825Y-88395901D01*
X127509641Y-88133080D01*
X127335588Y-87899731D01*
X127119355Y-87704822D01*
X126869252Y-87555843D01*
X126701202Y-87496231D01*
X126819202Y-87447353D01*
X127020167Y-87313073D01*
X127191073Y-87142167D01*
X127325353Y-86941202D01*
X127358160Y-86862000D01*
X130023357Y-86862000D01*
X130048000Y-86864427D01*
X130072643Y-86862000D01*
X130072653Y-86862000D01*
X130146409Y-86854736D01*
X130241036Y-86826031D01*
X130328245Y-86779417D01*
X130404684Y-86716684D01*
X130420401Y-86697533D01*
X131442543Y-85675393D01*
X131461684Y-85659684D01*
X131477392Y-85640544D01*
X131477400Y-85640536D01*
X131524417Y-85583246D01*
X131571030Y-85496037D01*
X131571031Y-85496036D01*
X131599736Y-85401409D01*
X131607000Y-85327653D01*
X131607000Y-85327643D01*
X131609427Y-85303000D01*
X131607000Y-85278357D01*
X131607000Y-83947000D01*
X131942750Y-83947000D01*
X131986750Y-83991000D01*
X132088883Y-83979868D01*
X132191642Y-83947000D01*
X132553000Y-83947000D01*
X132553001Y-85538551D01*
X132550573Y-85563204D01*
X132560265Y-85661613D01*
X132588970Y-85756240D01*
X132635584Y-85843449D01*
X132682601Y-85900739D01*
X132682604Y-85900742D01*
X132698317Y-85919888D01*
X132717463Y-85935601D01*
X133290001Y-86508140D01*
X133305714Y-86527286D01*
X133382153Y-86590019D01*
X133469362Y-86636633D01*
X133563989Y-86665338D01*
X133637745Y-86672602D01*
X133637754Y-86672602D01*
X133662397Y-86675029D01*
X133687040Y-86672602D01*
X136828599Y-86672602D01*
X136834647Y-86687202D01*
X136968927Y-86888167D01*
X137139833Y-87059073D01*
X137340798Y-87193353D01*
X137564097Y-87285847D01*
X137801151Y-87333000D01*
X138042849Y-87333000D01*
X138279903Y-87285847D01*
X138503202Y-87193353D01*
X138704167Y-87059073D01*
X138875073Y-86888167D01*
X139009353Y-86687202D01*
X139101847Y-86463903D01*
X139149000Y-86226849D01*
X139149000Y-85985151D01*
X139101847Y-85748097D01*
X139009353Y-85524798D01*
X138875073Y-85323833D01*
X138704167Y-85152927D01*
X138503202Y-85018647D01*
X138279903Y-84926153D01*
X138042849Y-84879000D01*
X137801151Y-84879000D01*
X137564097Y-84926153D01*
X137340798Y-85018647D01*
X137139833Y-85152927D01*
X136968927Y-85323833D01*
X136834647Y-85524798D01*
X136775081Y-85668602D01*
X133870333Y-85668602D01*
X133557000Y-85355270D01*
X133557000Y-83953306D01*
X134103029Y-84499336D01*
X134118742Y-84518482D01*
X134195181Y-84581215D01*
X134282390Y-84627829D01*
X134377017Y-84656534D01*
X134450773Y-84663798D01*
X134450783Y-84663798D01*
X134475426Y-84666225D01*
X134500069Y-84663798D01*
X137301559Y-84663798D01*
X137326202Y-84666225D01*
X137350845Y-84663798D01*
X137350855Y-84663798D01*
X137363102Y-84662592D01*
X137564097Y-84745847D01*
X137801151Y-84793000D01*
X138042849Y-84793000D01*
X138279903Y-84745847D01*
X138503202Y-84653353D01*
X138704167Y-84519073D01*
X138875073Y-84348167D01*
X139009353Y-84147202D01*
X139101847Y-83923903D01*
X139149000Y-83686849D01*
X139149000Y-83445151D01*
X139101847Y-83208097D01*
X139009353Y-82984798D01*
X138875073Y-82783833D01*
X138704167Y-82612927D01*
X138503202Y-82478647D01*
X138279903Y-82386153D01*
X138042849Y-82339000D01*
X137801151Y-82339000D01*
X137564097Y-82386153D01*
X137340798Y-82478647D01*
X137139833Y-82612927D01*
X136968927Y-82783833D01*
X136834647Y-82984798D01*
X136742153Y-83208097D01*
X136695000Y-83445151D01*
X136695000Y-83659798D01*
X135763000Y-83659798D01*
X135763000Y-81608935D01*
X135843936Y-81528000D01*
X136801840Y-81528000D01*
X136834647Y-81607202D01*
X136968927Y-81808167D01*
X137139833Y-81979073D01*
X137340798Y-82113353D01*
X137564097Y-82205847D01*
X137801151Y-82253000D01*
X138042849Y-82253000D01*
X138279903Y-82205847D01*
X138503202Y-82113353D01*
X138704167Y-81979073D01*
X138875073Y-81808167D01*
X139009353Y-81607202D01*
X139101847Y-81383903D01*
X139149000Y-81146849D01*
X139149000Y-80905151D01*
X139101847Y-80668097D01*
X139009353Y-80444798D01*
X138875073Y-80243833D01*
X138704167Y-80072927D01*
X138503202Y-79938647D01*
X138279903Y-79846153D01*
X138042849Y-79799000D01*
X137801151Y-79799000D01*
X137564097Y-79846153D01*
X137340798Y-79938647D01*
X137139833Y-80072927D01*
X136968927Y-80243833D01*
X136834647Y-80444798D01*
X136801840Y-80524000D01*
X135763000Y-80524000D01*
X135763000Y-79576935D01*
X136351935Y-78988000D01*
X136801840Y-78988000D01*
X136834647Y-79067202D01*
X136968927Y-79268167D01*
X137139833Y-79439073D01*
X137340798Y-79573353D01*
X137564097Y-79665847D01*
X137801151Y-79713000D01*
X138042849Y-79713000D01*
X138279903Y-79665847D01*
X138503202Y-79573353D01*
X138704167Y-79439073D01*
X138875073Y-79268167D01*
X139009353Y-79067202D01*
X139101847Y-78843903D01*
X139149000Y-78606849D01*
X139149000Y-78365151D01*
X139101847Y-78128097D01*
X139009353Y-77904798D01*
X138875073Y-77703833D01*
X138704167Y-77532927D01*
X138503202Y-77398647D01*
X138279903Y-77306153D01*
X138042849Y-77259000D01*
X137801151Y-77259000D01*
X137564097Y-77306153D01*
X137340798Y-77398647D01*
X137139833Y-77532927D01*
X136968927Y-77703833D01*
X136834647Y-77904798D01*
X136801840Y-77984000D01*
X136168642Y-77984000D01*
X136143999Y-77981573D01*
X136119356Y-77984000D01*
X136119347Y-77984000D01*
X136045591Y-77991264D01*
X135950964Y-78019969D01*
X135863755Y-78066583D01*
X135787316Y-78129316D01*
X135771603Y-78148462D01*
X135763000Y-78157065D01*
X135763000Y-76845434D01*
X136160435Y-76448000D01*
X136801840Y-76448000D01*
X136834647Y-76527202D01*
X136968927Y-76728167D01*
X137139833Y-76899073D01*
X137340798Y-77033353D01*
X137564097Y-77125847D01*
X137801151Y-77173000D01*
X138042849Y-77173000D01*
X138279903Y-77125847D01*
X138503202Y-77033353D01*
X138704167Y-76899073D01*
X138875073Y-76728167D01*
X139009353Y-76527202D01*
X139101847Y-76303903D01*
X139149000Y-76066849D01*
X139149000Y-75825151D01*
X139101847Y-75588097D01*
X139009353Y-75364798D01*
X138875073Y-75163833D01*
X138704167Y-74992927D01*
X138503202Y-74858647D01*
X138279903Y-74766153D01*
X138042849Y-74719000D01*
X137801151Y-74719000D01*
X137564097Y-74766153D01*
X137340798Y-74858647D01*
X137139833Y-74992927D01*
X136968927Y-75163833D01*
X136834647Y-75364798D01*
X136801840Y-75444000D01*
X135977142Y-75444000D01*
X135952499Y-75441573D01*
X135927856Y-75444000D01*
X135927847Y-75444000D01*
X135854091Y-75451264D01*
X135759464Y-75479969D01*
X135672255Y-75526583D01*
X135595816Y-75589316D01*
X135580103Y-75608462D01*
X135471165Y-75717400D01*
X134857000Y-75717400D01*
X134857000Y-75291644D01*
X134859427Y-75267001D01*
X134857000Y-75242358D01*
X134857000Y-75242349D01*
X134849736Y-75168593D01*
X134821031Y-75073966D01*
X134774417Y-74986757D01*
X134711684Y-74910318D01*
X134692532Y-74894600D01*
X134650999Y-74853067D01*
X134650999Y-74572933D01*
X135315933Y-73908000D01*
X136801840Y-73908000D01*
X136834647Y-73987202D01*
X136968927Y-74188167D01*
X137139833Y-74359073D01*
X137340798Y-74493353D01*
X137564097Y-74585847D01*
X137801151Y-74633000D01*
X138042849Y-74633000D01*
X138279903Y-74585847D01*
X138503202Y-74493353D01*
X138704167Y-74359073D01*
X138875073Y-74188167D01*
X139009353Y-73987202D01*
X139101847Y-73763903D01*
X139149000Y-73526849D01*
X139149000Y-73285151D01*
X139101847Y-73048097D01*
X139009353Y-72824798D01*
X138875073Y-72623833D01*
X138704167Y-72452927D01*
X138503202Y-72318647D01*
X138279903Y-72226153D01*
X138042849Y-72179000D01*
X137801151Y-72179000D01*
X137564097Y-72226153D01*
X137340798Y-72318647D01*
X137139833Y-72452927D01*
X136968927Y-72623833D01*
X136834647Y-72824798D01*
X136801840Y-72904000D01*
X135683521Y-72904000D01*
X136957082Y-71630440D01*
X136968927Y-71648167D01*
X137139833Y-71819073D01*
X137340798Y-71953353D01*
X137564097Y-72045847D01*
X137801151Y-72093000D01*
X138042849Y-72093000D01*
X138279903Y-72045847D01*
X138503202Y-71953353D01*
X138704167Y-71819073D01*
X138875073Y-71648167D01*
X139009353Y-71447202D01*
X139101847Y-71223903D01*
X139149000Y-70986849D01*
X139149000Y-70745151D01*
X139101847Y-70508097D01*
X139009353Y-70284798D01*
X138875073Y-70083833D01*
X138704167Y-69912927D01*
X138503202Y-69778647D01*
X138279903Y-69686153D01*
X138042849Y-69639000D01*
X137801151Y-69639000D01*
X137564097Y-69686153D01*
X137340798Y-69778647D01*
X137139833Y-69912927D01*
X136968927Y-70083833D01*
X136834647Y-70284798D01*
X136777953Y-70421669D01*
X136731342Y-70446583D01*
X136654903Y-70509316D01*
X136639190Y-70528462D01*
X134100362Y-73067291D01*
X134054895Y-72999245D01*
X134124970Y-72977988D01*
X134190463Y-72942981D01*
X134247869Y-72895869D01*
X134294981Y-72838463D01*
X134329988Y-72772970D01*
X134351545Y-72701905D01*
X134358824Y-72628000D01*
X134358824Y-70628000D01*
X134351545Y-70554095D01*
X134329988Y-70483030D01*
X134294981Y-70417537D01*
X134247869Y-70360131D01*
X134190463Y-70313019D01*
X134124970Y-70278012D01*
X134053905Y-70256455D01*
X133980000Y-70249176D01*
X131817511Y-70249176D01*
X131159600Y-69591266D01*
X131159600Y-68483134D01*
X131424335Y-68218400D01*
X131686355Y-68218400D01*
X131787891Y-68319936D01*
X131915152Y-68404969D01*
X132056557Y-68463541D01*
X132206672Y-68493400D01*
X132359728Y-68493400D01*
X132509843Y-68463541D01*
X132651248Y-68404969D01*
X132778509Y-68319936D01*
X132886736Y-68211709D01*
X132891117Y-68205151D01*
X136695000Y-68205151D01*
X136695000Y-68446849D01*
X136742153Y-68683903D01*
X136834647Y-68907202D01*
X136968927Y-69108167D01*
X137139833Y-69279073D01*
X137340798Y-69413353D01*
X137564097Y-69505847D01*
X137801151Y-69553000D01*
X138042849Y-69553000D01*
X138279903Y-69505847D01*
X138503202Y-69413353D01*
X138704167Y-69279073D01*
X138875073Y-69108167D01*
X139009353Y-68907202D01*
X139101847Y-68683903D01*
X139149000Y-68446849D01*
X139149000Y-68205151D01*
X139101847Y-67968097D01*
X139009353Y-67744798D01*
X138875073Y-67543833D01*
X138704167Y-67372927D01*
X138503202Y-67238647D01*
X138279903Y-67146153D01*
X138042849Y-67099000D01*
X137801151Y-67099000D01*
X137564097Y-67146153D01*
X137340798Y-67238647D01*
X137139833Y-67372927D01*
X136968927Y-67543833D01*
X136834647Y-67744798D01*
X136742153Y-67968097D01*
X136695000Y-68205151D01*
X132891117Y-68205151D01*
X132971769Y-68084448D01*
X133030341Y-67943043D01*
X133060200Y-67792928D01*
X133060200Y-67639872D01*
X133030341Y-67489757D01*
X132971769Y-67348352D01*
X132886736Y-67221091D01*
X132778509Y-67112864D01*
X132651248Y-67027831D01*
X132582000Y-66999147D01*
X132582000Y-66706824D01*
X132830000Y-66706824D01*
X132903905Y-66699545D01*
X132974970Y-66677988D01*
X133040463Y-66642981D01*
X133066793Y-66621373D01*
X133099463Y-66682494D01*
X133178815Y-66779185D01*
X133275506Y-66858537D01*
X133385820Y-66917502D01*
X133505518Y-66953812D01*
X133630000Y-66966072D01*
X134094250Y-66963000D01*
X134253000Y-66804250D01*
X134253000Y-65455000D01*
X134507000Y-65455000D01*
X134507000Y-66804250D01*
X134665750Y-66963000D01*
X135130000Y-66966072D01*
X135254482Y-66953812D01*
X135374180Y-66917502D01*
X135484494Y-66858537D01*
X135581185Y-66779185D01*
X135660537Y-66682494D01*
X135719502Y-66572180D01*
X135755812Y-66452482D01*
X135768072Y-66328000D01*
X135765000Y-65613750D01*
X135606250Y-65455000D01*
X134507000Y-65455000D01*
X134253000Y-65455000D01*
X134233000Y-65455000D01*
X134233000Y-65201000D01*
X134253000Y-65201000D01*
X134253000Y-63851750D01*
X134147218Y-63745968D01*
X134281750Y-63745000D01*
X134362150Y-63664600D01*
X134775082Y-63666832D01*
X134800359Y-63692109D01*
X134665750Y-63693000D01*
X134507000Y-63851750D01*
X134507000Y-65201000D01*
X135606250Y-65201000D01*
X135765000Y-65042250D01*
X135765456Y-64936000D01*
X136693176Y-64936000D01*
X136693176Y-66636000D01*
X136700455Y-66709905D01*
X136722012Y-66780970D01*
X136757019Y-66846463D01*
X136804131Y-66903869D01*
X136861537Y-66950981D01*
X136927030Y-66985988D01*
X136998095Y-67007545D01*
X137072000Y-67014824D01*
X138772000Y-67014824D01*
X138845905Y-67007545D01*
X138916970Y-66985988D01*
X138982463Y-66950981D01*
X139039869Y-66903869D01*
X139086981Y-66846463D01*
X139121988Y-66780970D01*
X139143545Y-66709905D01*
X139150824Y-66636000D01*
X139150824Y-64936000D01*
X139143545Y-64862095D01*
X139121988Y-64791030D01*
X139086981Y-64725537D01*
X139039869Y-64668131D01*
X138982463Y-64621019D01*
X138916970Y-64586012D01*
X138845905Y-64564455D01*
X138772000Y-64557176D01*
X137072000Y-64557176D01*
X136998095Y-64564455D01*
X136927030Y-64586012D01*
X136861537Y-64621019D01*
X136804131Y-64668131D01*
X136757019Y-64725537D01*
X136722012Y-64791030D01*
X136700455Y-64862095D01*
X136693176Y-64936000D01*
X135765456Y-64936000D01*
X135768072Y-64328000D01*
X135755812Y-64203518D01*
X135719502Y-64083820D01*
X135660537Y-63973506D01*
X135581185Y-63876815D01*
X135484494Y-63797463D01*
X135374651Y-63738750D01*
X135404482Y-63735812D01*
X135524180Y-63699502D01*
X135577188Y-63671168D01*
X136275504Y-63674943D01*
X136283924Y-63680569D01*
X136425329Y-63739141D01*
X136575444Y-63769000D01*
X136728500Y-63769000D01*
X136878615Y-63739141D01*
X137020020Y-63680569D01*
X137147281Y-63595536D01*
X137248817Y-63494000D01*
X137389357Y-63494000D01*
X137414000Y-63496427D01*
X137438643Y-63494000D01*
X137438653Y-63494000D01*
X137512409Y-63486736D01*
X137607036Y-63458031D01*
X137694245Y-63411417D01*
X137770684Y-63348684D01*
X137786401Y-63329533D01*
X138513543Y-62602393D01*
X138532684Y-62586684D01*
X138548392Y-62567544D01*
X138548400Y-62567536D01*
X138595417Y-62510246D01*
X138595643Y-62509824D01*
X138632250Y-62509824D01*
X138753708Y-62497861D01*
X138870499Y-62462433D01*
X138978134Y-62404901D01*
X139072476Y-62327476D01*
X139149901Y-62233134D01*
X139207433Y-62125499D01*
X139242861Y-62008708D01*
X139254824Y-61887250D01*
X139254824Y-61399750D01*
X139242861Y-61278292D01*
X139207433Y-61161501D01*
X139149901Y-61053866D01*
X139072476Y-60959524D01*
X138980216Y-60883808D01*
X139000482Y-60881812D01*
X139120180Y-60845502D01*
X139230494Y-60786537D01*
X139273000Y-60751653D01*
X139273000Y-63479023D01*
%TA.AperFunction,Conductor*%
D23*
G36*
X139273000Y-63479023D02*
G01*
X139273001Y-91013000D01*
X124887000Y-91013000D01*
X124887000Y-89500308D01*
X124966359Y-89666920D01*
X125140412Y-89900269D01*
X125356645Y-90095178D01*
X125606748Y-90244157D01*
X125881109Y-90341481D01*
X126111000Y-90220814D01*
X126111000Y-89027000D01*
X126365000Y-89027000D01*
X126365000Y-90220814D01*
X126594891Y-90341481D01*
X126869252Y-90244157D01*
X127119355Y-90095178D01*
X127335588Y-89900269D01*
X127509641Y-89666920D01*
X127634825Y-89404099D01*
X127679476Y-89256890D01*
X127558155Y-89027000D01*
X126365000Y-89027000D01*
X126111000Y-89027000D01*
X126091000Y-89027000D01*
X126091000Y-88773000D01*
X126111000Y-88773000D01*
X126111000Y-88753000D01*
X126365000Y-88753000D01*
X126365000Y-88773000D01*
X127558155Y-88773000D01*
X127679476Y-88543110D01*
X127674029Y-88525151D01*
X136695000Y-88525151D01*
X136695000Y-88766849D01*
X136742153Y-89003903D01*
X136834647Y-89227202D01*
X136968927Y-89428167D01*
X137139833Y-89599073D01*
X137340798Y-89733353D01*
X137564097Y-89825847D01*
X137801151Y-89873000D01*
X138042849Y-89873000D01*
X138279903Y-89825847D01*
X138503202Y-89733353D01*
X138704167Y-89599073D01*
X138875073Y-89428167D01*
X139009353Y-89227202D01*
X139101847Y-89003903D01*
X139149000Y-88766849D01*
X139149000Y-88525151D01*
X139101847Y-88288097D01*
X139009353Y-88064798D01*
X138875073Y-87863833D01*
X138704167Y-87692927D01*
X138503202Y-87558647D01*
X138279903Y-87466153D01*
X138042849Y-87419000D01*
X137801151Y-87419000D01*
X137564097Y-87466153D01*
X137340798Y-87558647D01*
X137139833Y-87692927D01*
X136968927Y-87863833D01*
X136834647Y-88064798D01*
X136742153Y-88288097D01*
X136695000Y-88525151D01*
X127674029Y-88525151D01*
X127634825Y-88395901D01*
X127509641Y-88133080D01*
X127335588Y-87899731D01*
X127119355Y-87704822D01*
X126869252Y-87555843D01*
X126701202Y-87496231D01*
X126819202Y-87447353D01*
X127020167Y-87313073D01*
X127191073Y-87142167D01*
X127325353Y-86941202D01*
X127358160Y-86862000D01*
X130023357Y-86862000D01*
X130048000Y-86864427D01*
X130072643Y-86862000D01*
X130072653Y-86862000D01*
X130146409Y-86854736D01*
X130241036Y-86826031D01*
X130328245Y-86779417D01*
X130404684Y-86716684D01*
X130420401Y-86697533D01*
X131442543Y-85675393D01*
X131461684Y-85659684D01*
X131477392Y-85640544D01*
X131477400Y-85640536D01*
X131524417Y-85583246D01*
X131571030Y-85496037D01*
X131571031Y-85496036D01*
X131599736Y-85401409D01*
X131607000Y-85327653D01*
X131607000Y-85327643D01*
X131609427Y-85303000D01*
X131607000Y-85278357D01*
X131607000Y-83947000D01*
X131942750Y-83947000D01*
X131986750Y-83991000D01*
X132088883Y-83979868D01*
X132191642Y-83947000D01*
X132553000Y-83947000D01*
X132553001Y-85538551D01*
X132550573Y-85563204D01*
X132560265Y-85661613D01*
X132588970Y-85756240D01*
X132635584Y-85843449D01*
X132682601Y-85900739D01*
X132682604Y-85900742D01*
X132698317Y-85919888D01*
X132717463Y-85935601D01*
X133290001Y-86508140D01*
X133305714Y-86527286D01*
X133382153Y-86590019D01*
X133469362Y-86636633D01*
X133563989Y-86665338D01*
X133637745Y-86672602D01*
X133637754Y-86672602D01*
X133662397Y-86675029D01*
X133687040Y-86672602D01*
X136828599Y-86672602D01*
X136834647Y-86687202D01*
X136968927Y-86888167D01*
X137139833Y-87059073D01*
X137340798Y-87193353D01*
X137564097Y-87285847D01*
X137801151Y-87333000D01*
X138042849Y-87333000D01*
X138279903Y-87285847D01*
X138503202Y-87193353D01*
X138704167Y-87059073D01*
X138875073Y-86888167D01*
X139009353Y-86687202D01*
X139101847Y-86463903D01*
X139149000Y-86226849D01*
X139149000Y-85985151D01*
X139101847Y-85748097D01*
X139009353Y-85524798D01*
X138875073Y-85323833D01*
X138704167Y-85152927D01*
X138503202Y-85018647D01*
X138279903Y-84926153D01*
X138042849Y-84879000D01*
X137801151Y-84879000D01*
X137564097Y-84926153D01*
X137340798Y-85018647D01*
X137139833Y-85152927D01*
X136968927Y-85323833D01*
X136834647Y-85524798D01*
X136775081Y-85668602D01*
X133870333Y-85668602D01*
X133557000Y-85355270D01*
X133557000Y-83953306D01*
X134103029Y-84499336D01*
X134118742Y-84518482D01*
X134195181Y-84581215D01*
X134282390Y-84627829D01*
X134377017Y-84656534D01*
X134450773Y-84663798D01*
X134450783Y-84663798D01*
X134475426Y-84666225D01*
X134500069Y-84663798D01*
X137301559Y-84663798D01*
X137326202Y-84666225D01*
X137350845Y-84663798D01*
X137350855Y-84663798D01*
X137363102Y-84662592D01*
X137564097Y-84745847D01*
X137801151Y-84793000D01*
X138042849Y-84793000D01*
X138279903Y-84745847D01*
X138503202Y-84653353D01*
X138704167Y-84519073D01*
X138875073Y-84348167D01*
X139009353Y-84147202D01*
X139101847Y-83923903D01*
X139149000Y-83686849D01*
X139149000Y-83445151D01*
X139101847Y-83208097D01*
X139009353Y-82984798D01*
X138875073Y-82783833D01*
X138704167Y-82612927D01*
X138503202Y-82478647D01*
X138279903Y-82386153D01*
X138042849Y-82339000D01*
X137801151Y-82339000D01*
X137564097Y-82386153D01*
X137340798Y-82478647D01*
X137139833Y-82612927D01*
X136968927Y-82783833D01*
X136834647Y-82984798D01*
X136742153Y-83208097D01*
X136695000Y-83445151D01*
X136695000Y-83659798D01*
X135763000Y-83659798D01*
X135763000Y-81608935D01*
X135843936Y-81528000D01*
X136801840Y-81528000D01*
X136834647Y-81607202D01*
X136968927Y-81808167D01*
X137139833Y-81979073D01*
X137340798Y-82113353D01*
X137564097Y-82205847D01*
X137801151Y-82253000D01*
X138042849Y-82253000D01*
X138279903Y-82205847D01*
X138503202Y-82113353D01*
X138704167Y-81979073D01*
X138875073Y-81808167D01*
X139009353Y-81607202D01*
X139101847Y-81383903D01*
X139149000Y-81146849D01*
X139149000Y-80905151D01*
X139101847Y-80668097D01*
X139009353Y-80444798D01*
X138875073Y-80243833D01*
X138704167Y-80072927D01*
X138503202Y-79938647D01*
X138279903Y-79846153D01*
X138042849Y-79799000D01*
X137801151Y-79799000D01*
X137564097Y-79846153D01*
X137340798Y-79938647D01*
X137139833Y-80072927D01*
X136968927Y-80243833D01*
X136834647Y-80444798D01*
X136801840Y-80524000D01*
X135763000Y-80524000D01*
X135763000Y-79576935D01*
X136351935Y-78988000D01*
X136801840Y-78988000D01*
X136834647Y-79067202D01*
X136968927Y-79268167D01*
X137139833Y-79439073D01*
X137340798Y-79573353D01*
X137564097Y-79665847D01*
X137801151Y-79713000D01*
X138042849Y-79713000D01*
X138279903Y-79665847D01*
X138503202Y-79573353D01*
X138704167Y-79439073D01*
X138875073Y-79268167D01*
X139009353Y-79067202D01*
X139101847Y-78843903D01*
X139149000Y-78606849D01*
X139149000Y-78365151D01*
X139101847Y-78128097D01*
X139009353Y-77904798D01*
X138875073Y-77703833D01*
X138704167Y-77532927D01*
X138503202Y-77398647D01*
X138279903Y-77306153D01*
X138042849Y-77259000D01*
X137801151Y-77259000D01*
X137564097Y-77306153D01*
X137340798Y-77398647D01*
X137139833Y-77532927D01*
X136968927Y-77703833D01*
X136834647Y-77904798D01*
X136801840Y-77984000D01*
X136168642Y-77984000D01*
X136143999Y-77981573D01*
X136119356Y-77984000D01*
X136119347Y-77984000D01*
X136045591Y-77991264D01*
X135950964Y-78019969D01*
X135863755Y-78066583D01*
X135787316Y-78129316D01*
X135771603Y-78148462D01*
X135763000Y-78157065D01*
X135763000Y-76845434D01*
X136160435Y-76448000D01*
X136801840Y-76448000D01*
X136834647Y-76527202D01*
X136968927Y-76728167D01*
X137139833Y-76899073D01*
X137340798Y-77033353D01*
X137564097Y-77125847D01*
X137801151Y-77173000D01*
X138042849Y-77173000D01*
X138279903Y-77125847D01*
X138503202Y-77033353D01*
X138704167Y-76899073D01*
X138875073Y-76728167D01*
X139009353Y-76527202D01*
X139101847Y-76303903D01*
X139149000Y-76066849D01*
X139149000Y-75825151D01*
X139101847Y-75588097D01*
X139009353Y-75364798D01*
X138875073Y-75163833D01*
X138704167Y-74992927D01*
X138503202Y-74858647D01*
X138279903Y-74766153D01*
X138042849Y-74719000D01*
X137801151Y-74719000D01*
X137564097Y-74766153D01*
X137340798Y-74858647D01*
X137139833Y-74992927D01*
X136968927Y-75163833D01*
X136834647Y-75364798D01*
X136801840Y-75444000D01*
X135977142Y-75444000D01*
X135952499Y-75441573D01*
X135927856Y-75444000D01*
X135927847Y-75444000D01*
X135854091Y-75451264D01*
X135759464Y-75479969D01*
X135672255Y-75526583D01*
X135595816Y-75589316D01*
X135580103Y-75608462D01*
X135471165Y-75717400D01*
X134857000Y-75717400D01*
X134857000Y-75291644D01*
X134859427Y-75267001D01*
X134857000Y-75242358D01*
X134857000Y-75242349D01*
X134849736Y-75168593D01*
X134821031Y-75073966D01*
X134774417Y-74986757D01*
X134711684Y-74910318D01*
X134692532Y-74894600D01*
X134650999Y-74853067D01*
X134650999Y-74572933D01*
X135315933Y-73908000D01*
X136801840Y-73908000D01*
X136834647Y-73987202D01*
X136968927Y-74188167D01*
X137139833Y-74359073D01*
X137340798Y-74493353D01*
X137564097Y-74585847D01*
X137801151Y-74633000D01*
X138042849Y-74633000D01*
X138279903Y-74585847D01*
X138503202Y-74493353D01*
X138704167Y-74359073D01*
X138875073Y-74188167D01*
X139009353Y-73987202D01*
X139101847Y-73763903D01*
X139149000Y-73526849D01*
X139149000Y-73285151D01*
X139101847Y-73048097D01*
X139009353Y-72824798D01*
X138875073Y-72623833D01*
X138704167Y-72452927D01*
X138503202Y-72318647D01*
X138279903Y-72226153D01*
X138042849Y-72179000D01*
X137801151Y-72179000D01*
X137564097Y-72226153D01*
X137340798Y-72318647D01*
X137139833Y-72452927D01*
X136968927Y-72623833D01*
X136834647Y-72824798D01*
X136801840Y-72904000D01*
X135683521Y-72904000D01*
X136957082Y-71630440D01*
X136968927Y-71648167D01*
X137139833Y-71819073D01*
X137340798Y-71953353D01*
X137564097Y-72045847D01*
X137801151Y-72093000D01*
X138042849Y-72093000D01*
X138279903Y-72045847D01*
X138503202Y-71953353D01*
X138704167Y-71819073D01*
X138875073Y-71648167D01*
X139009353Y-71447202D01*
X139101847Y-71223903D01*
X139149000Y-70986849D01*
X139149000Y-70745151D01*
X139101847Y-70508097D01*
X139009353Y-70284798D01*
X138875073Y-70083833D01*
X138704167Y-69912927D01*
X138503202Y-69778647D01*
X138279903Y-69686153D01*
X138042849Y-69639000D01*
X137801151Y-69639000D01*
X137564097Y-69686153D01*
X137340798Y-69778647D01*
X137139833Y-69912927D01*
X136968927Y-70083833D01*
X136834647Y-70284798D01*
X136777953Y-70421669D01*
X136731342Y-70446583D01*
X136654903Y-70509316D01*
X136639190Y-70528462D01*
X134100362Y-73067291D01*
X134054895Y-72999245D01*
X134124970Y-72977988D01*
X134190463Y-72942981D01*
X134247869Y-72895869D01*
X134294981Y-72838463D01*
X134329988Y-72772970D01*
X134351545Y-72701905D01*
X134358824Y-72628000D01*
X134358824Y-70628000D01*
X134351545Y-70554095D01*
X134329988Y-70483030D01*
X134294981Y-70417537D01*
X134247869Y-70360131D01*
X134190463Y-70313019D01*
X134124970Y-70278012D01*
X134053905Y-70256455D01*
X133980000Y-70249176D01*
X131817511Y-70249176D01*
X131159600Y-69591266D01*
X131159600Y-68483134D01*
X131424335Y-68218400D01*
X131686355Y-68218400D01*
X131787891Y-68319936D01*
X131915152Y-68404969D01*
X132056557Y-68463541D01*
X132206672Y-68493400D01*
X132359728Y-68493400D01*
X132509843Y-68463541D01*
X132651248Y-68404969D01*
X132778509Y-68319936D01*
X132886736Y-68211709D01*
X132891117Y-68205151D01*
X136695000Y-68205151D01*
X136695000Y-68446849D01*
X136742153Y-68683903D01*
X136834647Y-68907202D01*
X136968927Y-69108167D01*
X137139833Y-69279073D01*
X137340798Y-69413353D01*
X137564097Y-69505847D01*
X137801151Y-69553000D01*
X138042849Y-69553000D01*
X138279903Y-69505847D01*
X138503202Y-69413353D01*
X138704167Y-69279073D01*
X138875073Y-69108167D01*
X139009353Y-68907202D01*
X139101847Y-68683903D01*
X139149000Y-68446849D01*
X139149000Y-68205151D01*
X139101847Y-67968097D01*
X139009353Y-67744798D01*
X138875073Y-67543833D01*
X138704167Y-67372927D01*
X138503202Y-67238647D01*
X138279903Y-67146153D01*
X138042849Y-67099000D01*
X137801151Y-67099000D01*
X137564097Y-67146153D01*
X137340798Y-67238647D01*
X137139833Y-67372927D01*
X136968927Y-67543833D01*
X136834647Y-67744798D01*
X136742153Y-67968097D01*
X136695000Y-68205151D01*
X132891117Y-68205151D01*
X132971769Y-68084448D01*
X133030341Y-67943043D01*
X133060200Y-67792928D01*
X133060200Y-67639872D01*
X133030341Y-67489757D01*
X132971769Y-67348352D01*
X132886736Y-67221091D01*
X132778509Y-67112864D01*
X132651248Y-67027831D01*
X132582000Y-66999147D01*
X132582000Y-66706824D01*
X132830000Y-66706824D01*
X132903905Y-66699545D01*
X132974970Y-66677988D01*
X133040463Y-66642981D01*
X133066793Y-66621373D01*
X133099463Y-66682494D01*
X133178815Y-66779185D01*
X133275506Y-66858537D01*
X133385820Y-66917502D01*
X133505518Y-66953812D01*
X133630000Y-66966072D01*
X134094250Y-66963000D01*
X134253000Y-66804250D01*
X134253000Y-65455000D01*
X134507000Y-65455000D01*
X134507000Y-66804250D01*
X134665750Y-66963000D01*
X135130000Y-66966072D01*
X135254482Y-66953812D01*
X135374180Y-66917502D01*
X135484494Y-66858537D01*
X135581185Y-66779185D01*
X135660537Y-66682494D01*
X135719502Y-66572180D01*
X135755812Y-66452482D01*
X135768072Y-66328000D01*
X135765000Y-65613750D01*
X135606250Y-65455000D01*
X134507000Y-65455000D01*
X134253000Y-65455000D01*
X134233000Y-65455000D01*
X134233000Y-65201000D01*
X134253000Y-65201000D01*
X134253000Y-63851750D01*
X134147218Y-63745968D01*
X134281750Y-63745000D01*
X134362150Y-63664600D01*
X134775082Y-63666832D01*
X134800359Y-63692109D01*
X134665750Y-63693000D01*
X134507000Y-63851750D01*
X134507000Y-65201000D01*
X135606250Y-65201000D01*
X135765000Y-65042250D01*
X135765456Y-64936000D01*
X136693176Y-64936000D01*
X136693176Y-66636000D01*
X136700455Y-66709905D01*
X136722012Y-66780970D01*
X136757019Y-66846463D01*
X136804131Y-66903869D01*
X136861537Y-66950981D01*
X136927030Y-66985988D01*
X136998095Y-67007545D01*
X137072000Y-67014824D01*
X138772000Y-67014824D01*
X138845905Y-67007545D01*
X138916970Y-66985988D01*
X138982463Y-66950981D01*
X139039869Y-66903869D01*
X139086981Y-66846463D01*
X139121988Y-66780970D01*
X139143545Y-66709905D01*
X139150824Y-66636000D01*
X139150824Y-64936000D01*
X139143545Y-64862095D01*
X139121988Y-64791030D01*
X139086981Y-64725537D01*
X139039869Y-64668131D01*
X138982463Y-64621019D01*
X138916970Y-64586012D01*
X138845905Y-64564455D01*
X138772000Y-64557176D01*
X137072000Y-64557176D01*
X136998095Y-64564455D01*
X136927030Y-64586012D01*
X136861537Y-64621019D01*
X136804131Y-64668131D01*
X136757019Y-64725537D01*
X136722012Y-64791030D01*
X136700455Y-64862095D01*
X136693176Y-64936000D01*
X135765456Y-64936000D01*
X135768072Y-64328000D01*
X135755812Y-64203518D01*
X135719502Y-64083820D01*
X135660537Y-63973506D01*
X135581185Y-63876815D01*
X135484494Y-63797463D01*
X135374651Y-63738750D01*
X135404482Y-63735812D01*
X135524180Y-63699502D01*
X135577188Y-63671168D01*
X136275504Y-63674943D01*
X136283924Y-63680569D01*
X136425329Y-63739141D01*
X136575444Y-63769000D01*
X136728500Y-63769000D01*
X136878615Y-63739141D01*
X137020020Y-63680569D01*
X137147281Y-63595536D01*
X137248817Y-63494000D01*
X137389357Y-63494000D01*
X137414000Y-63496427D01*
X137438643Y-63494000D01*
X137438653Y-63494000D01*
X137512409Y-63486736D01*
X137607036Y-63458031D01*
X137694245Y-63411417D01*
X137770684Y-63348684D01*
X137786401Y-63329533D01*
X138513543Y-62602393D01*
X138532684Y-62586684D01*
X138548392Y-62567544D01*
X138548400Y-62567536D01*
X138595417Y-62510246D01*
X138595643Y-62509824D01*
X138632250Y-62509824D01*
X138753708Y-62497861D01*
X138870499Y-62462433D01*
X138978134Y-62404901D01*
X139072476Y-62327476D01*
X139149901Y-62233134D01*
X139207433Y-62125499D01*
X139242861Y-62008708D01*
X139254824Y-61887250D01*
X139254824Y-61399750D01*
X139242861Y-61278292D01*
X139207433Y-61161501D01*
X139149901Y-61053866D01*
X139072476Y-60959524D01*
X138980216Y-60883808D01*
X139000482Y-60881812D01*
X139120180Y-60845502D01*
X139230494Y-60786537D01*
X139273000Y-60751653D01*
X139273000Y-63479023D01*
G37*
%TD.AperFunction*%
D22*
X139273001Y-58785347D02*
X139230494Y-58750463D01*
X139120180Y-58691498D01*
X139000482Y-58655188D01*
X138876000Y-58642928D01*
X138461750Y-58646000D01*
X138303000Y-58804750D01*
X138303000Y-59641500D01*
X138323000Y-59641500D01*
X138323000Y-59895500D01*
X138303000Y-59895500D01*
X138303000Y-59915500D01*
X138049000Y-59915500D01*
X138049000Y-59895500D01*
X138029000Y-59895500D01*
X138029000Y-59641500D01*
X138049000Y-59641500D01*
X138049000Y-58804750D01*
X137890250Y-58646000D01*
X137476000Y-58642928D01*
X137351518Y-58655188D01*
X137231820Y-58691498D01*
X137121506Y-58750463D01*
X137024815Y-58829815D01*
X136945463Y-58926506D01*
X136907073Y-58998327D01*
X136905812Y-58985518D01*
X136887776Y-58926060D01*
X136880594Y-58164802D01*
X136878160Y-58141224D01*
X136870933Y-58117399D01*
X136859197Y-58095443D01*
X136843403Y-58076197D01*
X136824157Y-58060403D01*
X136802201Y-58048667D01*
X136778376Y-58041440D01*
X136753600Y-58039000D01*
X127406400Y-58039000D01*
X127381624Y-58041440D01*
X127357799Y-58048667D01*
X127335843Y-58060403D01*
X127316597Y-58076197D01*
X127300803Y-58095443D01*
X127289067Y-58117399D01*
X127281840Y-58141224D01*
X127279400Y-58166000D01*
X127279400Y-58902405D01*
X127254188Y-58985518D01*
X127241928Y-59110000D01*
X127245000Y-59474250D01*
X127279400Y-59508650D01*
X127279400Y-60011350D01*
X127245000Y-60045750D01*
X127241928Y-60410000D01*
X127254188Y-60534482D01*
X127279400Y-60617595D01*
X127279400Y-63251144D01*
X127230557Y-63260859D01*
X127089152Y-63319431D01*
X126961891Y-63404464D01*
X126853664Y-63512691D01*
X126768631Y-63639952D01*
X126710059Y-63781357D01*
X126680200Y-63931472D01*
X126680200Y-64084528D01*
X126710059Y-64234643D01*
X126768631Y-64376048D01*
X126853664Y-64503309D01*
X126961891Y-64611536D01*
X127089152Y-64696569D01*
X127230557Y-64755141D01*
X127380672Y-64785000D01*
X127524266Y-64785000D01*
X128404803Y-65665538D01*
X128420516Y-65684684D01*
X128496955Y-65747417D01*
X128584164Y-65794031D01*
X128651176Y-65814359D01*
X128651176Y-66328000D01*
X128658455Y-66401905D01*
X128680012Y-66472970D01*
X128715019Y-66538463D01*
X128762131Y-66595869D01*
X128819537Y-66642981D01*
X128885030Y-66677988D01*
X128956095Y-66699545D01*
X129030000Y-66706824D01*
X130530000Y-66706824D01*
X130603905Y-66699545D01*
X130674970Y-66677988D01*
X130740463Y-66642981D01*
X130797869Y-66595869D01*
X130844981Y-66538463D01*
X130879988Y-66472970D01*
X130901545Y-66401905D01*
X130908824Y-66328000D01*
X130908824Y-64909111D01*
X130951176Y-64866759D01*
X130951176Y-66328000D01*
X130958455Y-66401905D01*
X130980012Y-66472970D01*
X131015019Y-66538463D01*
X131062131Y-66595869D01*
X131119537Y-66642981D01*
X131185030Y-66677988D01*
X131256095Y-66699545D01*
X131330000Y-66706824D01*
X131578001Y-66706824D01*
X131578001Y-67214400D01*
X131241045Y-67214400D01*
X131216400Y-67211973D01*
X131191754Y-67214400D01*
X131191747Y-67214400D01*
X131126832Y-67220793D01*
X131117990Y-67221664D01*
X131023363Y-67250369D01*
X130936154Y-67296983D01*
X130878865Y-67344000D01*
X130878862Y-67344003D01*
X130859716Y-67359716D01*
X130844003Y-67378862D01*
X130320063Y-67902803D01*
X130300917Y-67918516D01*
X130285204Y-67937662D01*
X130285201Y-67937665D01*
X130238184Y-67994955D01*
X130191570Y-68082164D01*
X130162865Y-68176791D01*
X130153173Y-68275200D01*
X130155601Y-68299853D01*
X130155600Y-69774557D01*
X130153173Y-69799200D01*
X130155600Y-69823843D01*
X130155600Y-69823852D01*
X130162864Y-69897608D01*
X130191569Y-69992235D01*
X130238183Y-70079445D01*
X130300916Y-70155884D01*
X130320067Y-70171601D01*
X130397642Y-70249176D01*
X130180000Y-70249176D01*
X130106095Y-70256455D01*
X130035030Y-70278012D01*
X129969537Y-70313019D01*
X129912131Y-70360131D01*
X129865019Y-70417537D01*
X129830012Y-70483030D01*
X129808455Y-70554095D01*
X129801176Y-70628000D01*
X129801176Y-72628000D01*
X129808455Y-72701905D01*
X129830012Y-72772970D01*
X129835491Y-72783220D01*
X129806691Y-72802464D01*
X129698464Y-72910691D01*
X129613431Y-73037952D01*
X129554859Y-73179357D01*
X129548294Y-73212360D01*
X127465000Y-71129066D01*
X127465000Y-70999151D01*
X127417847Y-70762097D01*
X127325353Y-70538798D01*
X127191073Y-70337833D01*
X127020167Y-70166927D01*
X126819202Y-70032647D01*
X126595903Y-69940153D01*
X126358849Y-69893000D01*
X126117151Y-69893000D01*
X125880097Y-69940153D01*
X125656798Y-70032647D01*
X125455833Y-70166927D01*
X125284927Y-70337833D01*
X125150647Y-70538798D01*
X125058153Y-70762097D01*
X125011000Y-70999151D01*
X125011000Y-71240849D01*
X125058153Y-71477903D01*
X125150647Y-71701202D01*
X125284927Y-71902167D01*
X125455833Y-72073073D01*
X125656798Y-72207353D01*
X125880097Y-72299847D01*
X126117151Y-72347000D01*
X126358849Y-72347000D01*
X126595903Y-72299847D01*
X126819202Y-72207353D01*
X127001567Y-72085501D01*
X128074066Y-73158000D01*
X127358160Y-73158000D01*
X127325353Y-73078798D01*
X127191073Y-72877833D01*
X127020167Y-72706927D01*
X126819202Y-72572647D01*
X126595903Y-72480153D01*
X126358849Y-72433000D01*
X126117151Y-72433000D01*
X125880097Y-72480153D01*
X125656798Y-72572647D01*
X125455833Y-72706927D01*
X125284927Y-72877833D01*
X125150647Y-73078798D01*
X125058153Y-73302097D01*
X125011000Y-73539151D01*
X125011000Y-73780849D01*
X125058153Y-74017903D01*
X125150647Y-74241202D01*
X125284927Y-74442167D01*
X125455833Y-74613073D01*
X125656798Y-74747353D01*
X125880097Y-74839847D01*
X126117151Y-74887000D01*
X126358849Y-74887000D01*
X126595903Y-74839847D01*
X126819202Y-74747353D01*
X127020167Y-74613073D01*
X127191073Y-74442167D01*
X127325353Y-74241202D01*
X127358160Y-74162000D01*
X128316066Y-74162000D01*
X129303001Y-75148936D01*
X129303001Y-75253066D01*
X129150401Y-75100467D01*
X129134684Y-75081316D01*
X129058245Y-75018583D01*
X128971036Y-74971969D01*
X128876409Y-74943264D01*
X128802653Y-74936000D01*
X128802643Y-74936000D01*
X128778000Y-74933573D01*
X128753357Y-74936000D01*
X127024643Y-74936000D01*
X127000000Y-74933573D01*
X126975357Y-74936000D01*
X126975347Y-74936000D01*
X126901591Y-74943264D01*
X126806964Y-74971969D01*
X126767754Y-74992927D01*
X126719754Y-75018583D01*
X126676940Y-75053720D01*
X126595903Y-75020153D01*
X126358849Y-74973000D01*
X126117151Y-74973000D01*
X125880097Y-75020153D01*
X125656798Y-75112647D01*
X125455833Y-75246927D01*
X125284927Y-75417833D01*
X125150647Y-75618798D01*
X125058153Y-75842097D01*
X125011000Y-76079151D01*
X125011000Y-76320849D01*
X125058153Y-76557903D01*
X125150647Y-76781202D01*
X125284927Y-76982167D01*
X125455833Y-77153073D01*
X125656798Y-77287353D01*
X125880097Y-77379847D01*
X126117151Y-77427000D01*
X126358849Y-77427000D01*
X126595903Y-77379847D01*
X126819202Y-77287353D01*
X127020167Y-77153073D01*
X127191073Y-76982167D01*
X127325353Y-76781202D01*
X127417847Y-76557903D01*
X127465000Y-76320849D01*
X127465000Y-76079151D01*
X127437321Y-75940000D01*
X128447800Y-75940000D01*
X128447800Y-78238000D01*
X127358160Y-78238000D01*
X127325353Y-78158798D01*
X127191073Y-77957833D01*
X127020167Y-77786927D01*
X126819202Y-77652647D01*
X126595903Y-77560153D01*
X126358849Y-77513000D01*
X126117151Y-77513000D01*
X125880097Y-77560153D01*
X125656798Y-77652647D01*
X125455833Y-77786927D01*
X125284927Y-77957833D01*
X125150647Y-78158798D01*
X125058153Y-78382097D01*
X125011000Y-78619151D01*
X125011000Y-78860849D01*
X125058153Y-79097903D01*
X125150647Y-79321202D01*
X125284927Y-79522167D01*
X125455833Y-79693073D01*
X125656798Y-79827353D01*
X125880097Y-79919847D01*
X126117151Y-79967000D01*
X126358849Y-79967000D01*
X126595903Y-79919847D01*
X126819202Y-79827353D01*
X127020167Y-79693073D01*
X127191073Y-79522167D01*
X127325353Y-79321202D01*
X127358160Y-79242000D01*
X128316066Y-79242000D01*
X128447800Y-79373734D01*
X128447800Y-80778000D01*
X127358160Y-80778000D01*
X127325353Y-80698798D01*
X127191073Y-80497833D01*
X127020167Y-80326927D01*
X126819202Y-80192647D01*
X126595903Y-80100153D01*
X126358849Y-80053000D01*
X126117151Y-80053000D01*
X125880097Y-80100153D01*
X125656798Y-80192647D01*
X125455833Y-80326927D01*
X125284927Y-80497833D01*
X125150647Y-80698798D01*
X125058153Y-80922097D01*
X125011000Y-81159151D01*
X125011000Y-81400849D01*
X125058153Y-81637903D01*
X125150647Y-81861202D01*
X125284927Y-82062167D01*
X125455833Y-82233073D01*
X125656798Y-82367353D01*
X125880097Y-82459847D01*
X126117151Y-82507000D01*
X126358849Y-82507000D01*
X126595903Y-82459847D01*
X126819202Y-82367353D01*
X127020167Y-82233073D01*
X127191073Y-82062167D01*
X127325353Y-81861202D01*
X127358160Y-81782000D01*
X128447800Y-81782000D01*
X128447800Y-83659798D01*
X127457172Y-83659798D01*
X127417847Y-83462097D01*
X127325353Y-83238798D01*
X127191073Y-83037833D01*
X127020167Y-82866927D01*
X126819202Y-82732647D01*
X126595903Y-82640153D01*
X126358849Y-82593000D01*
X126117151Y-82593000D01*
X125880097Y-82640153D01*
X125656798Y-82732647D01*
X125455833Y-82866927D01*
X125284927Y-83037833D01*
X125150647Y-83238798D01*
X125058153Y-83462097D01*
X125011000Y-83699151D01*
X125011000Y-83940849D01*
X125058153Y-84177903D01*
X125150647Y-84401202D01*
X125284927Y-84602167D01*
X125455833Y-84773073D01*
X125656798Y-84907353D01*
X125880097Y-84999847D01*
X126117151Y-85047000D01*
X126358849Y-85047000D01*
X126595903Y-84999847D01*
X126819202Y-84907353D01*
X127020167Y-84773073D01*
X127129442Y-84663798D01*
X129761759Y-84663798D01*
X129786402Y-84666225D01*
X129811045Y-84663798D01*
X129811055Y-84663798D01*
X129884811Y-84656534D01*
X129979438Y-84627829D01*
X130066647Y-84581215D01*
X130143086Y-84518482D01*
X130158803Y-84499331D01*
X130603001Y-84055134D01*
X130603001Y-85095063D01*
X129840066Y-85858000D01*
X127358160Y-85858000D01*
X127325353Y-85778798D01*
X127191073Y-85577833D01*
X127020167Y-85406927D01*
X126819202Y-85272647D01*
X126595903Y-85180153D01*
X126358849Y-85133000D01*
X126117151Y-85133000D01*
X125880097Y-85180153D01*
X125656798Y-85272647D01*
X125455833Y-85406927D01*
X125284927Y-85577833D01*
X125150647Y-85778798D01*
X125058153Y-86002097D01*
X125011000Y-86239151D01*
X125011000Y-86480849D01*
X125058153Y-86717903D01*
X125150647Y-86941202D01*
X125284927Y-87142167D01*
X125455833Y-87313073D01*
X125656798Y-87447353D01*
X125774798Y-87496231D01*
X125606748Y-87555843D01*
X125356645Y-87704822D01*
X125140412Y-87899731D01*
X124966359Y-88133080D01*
X124887000Y-88299692D01*
X124887000Y-68459151D01*
X125011000Y-68459151D01*
X125011000Y-68700849D01*
X125058153Y-68937903D01*
X125150647Y-69161202D01*
X125284927Y-69362167D01*
X125455833Y-69533073D01*
X125656798Y-69667353D01*
X125880097Y-69759847D01*
X126117151Y-69807000D01*
X126358849Y-69807000D01*
X126595903Y-69759847D01*
X126819202Y-69667353D01*
X127020167Y-69533073D01*
X127191073Y-69362167D01*
X127325353Y-69161202D01*
X127417847Y-68937903D01*
X127465000Y-68700849D01*
X127465000Y-68459151D01*
X127417847Y-68222097D01*
X127325353Y-67998798D01*
X127191073Y-67797833D01*
X127020167Y-67626927D01*
X126819202Y-67492647D01*
X126595903Y-67400153D01*
X126358849Y-67353000D01*
X126117151Y-67353000D01*
X125880097Y-67400153D01*
X125656798Y-67492647D01*
X125455833Y-67626927D01*
X125284927Y-67797833D01*
X125150647Y-67998798D01*
X125058153Y-68222097D01*
X125011000Y-68459151D01*
X124887000Y-68459151D01*
X124887000Y-65190000D01*
X125009176Y-65190000D01*
X125009176Y-66890000D01*
X125016455Y-66963905D01*
X125038012Y-67034970D01*
X125073019Y-67100463D01*
X125120131Y-67157869D01*
X125177537Y-67204981D01*
X125243030Y-67239988D01*
X125314095Y-67261545D01*
X125388000Y-67268824D01*
X127088000Y-67268824D01*
X127161905Y-67261545D01*
X127232970Y-67239988D01*
X127298463Y-67204981D01*
X127355869Y-67157869D01*
X127402981Y-67100463D01*
X127437988Y-67034970D01*
X127459545Y-66963905D01*
X127466824Y-66890000D01*
X127466824Y-65190000D01*
X127459545Y-65116095D01*
X127437988Y-65045030D01*
X127402981Y-64979537D01*
X127355869Y-64922131D01*
X127298463Y-64875019D01*
X127232970Y-64840012D01*
X127161905Y-64818455D01*
X127088000Y-64811176D01*
X125388000Y-64811176D01*
X125314095Y-64818455D01*
X125243030Y-64840012D01*
X125177537Y-64875019D01*
X125120131Y-64922131D01*
X125073019Y-64979537D01*
X125038012Y-65045030D01*
X125016455Y-65116095D01*
X125009176Y-65190000D01*
X124887000Y-65190000D01*
X124887000Y-58027000D01*
X139273001Y-58027000D01*
X139273001Y-58785347D01*
%TA.AperFunction,Conductor*%
D23*
G36*
X139273001Y-58785347D02*
G01*
X139230494Y-58750463D01*
X139120180Y-58691498D01*
X139000482Y-58655188D01*
X138876000Y-58642928D01*
X138461750Y-58646000D01*
X138303000Y-58804750D01*
X138303000Y-59641500D01*
X138323000Y-59641500D01*
X138323000Y-59895500D01*
X138303000Y-59895500D01*
X138303000Y-59915500D01*
X138049000Y-59915500D01*
X138049000Y-59895500D01*
X138029000Y-59895500D01*
X138029000Y-59641500D01*
X138049000Y-59641500D01*
X138049000Y-58804750D01*
X137890250Y-58646000D01*
X137476000Y-58642928D01*
X137351518Y-58655188D01*
X137231820Y-58691498D01*
X137121506Y-58750463D01*
X137024815Y-58829815D01*
X136945463Y-58926506D01*
X136907073Y-58998327D01*
X136905812Y-58985518D01*
X136887776Y-58926060D01*
X136880594Y-58164802D01*
X136878160Y-58141224D01*
X136870933Y-58117399D01*
X136859197Y-58095443D01*
X136843403Y-58076197D01*
X136824157Y-58060403D01*
X136802201Y-58048667D01*
X136778376Y-58041440D01*
X136753600Y-58039000D01*
X127406400Y-58039000D01*
X127381624Y-58041440D01*
X127357799Y-58048667D01*
X127335843Y-58060403D01*
X127316597Y-58076197D01*
X127300803Y-58095443D01*
X127289067Y-58117399D01*
X127281840Y-58141224D01*
X127279400Y-58166000D01*
X127279400Y-58902405D01*
X127254188Y-58985518D01*
X127241928Y-59110000D01*
X127245000Y-59474250D01*
X127279400Y-59508650D01*
X127279400Y-60011350D01*
X127245000Y-60045750D01*
X127241928Y-60410000D01*
X127254188Y-60534482D01*
X127279400Y-60617595D01*
X127279400Y-63251144D01*
X127230557Y-63260859D01*
X127089152Y-63319431D01*
X126961891Y-63404464D01*
X126853664Y-63512691D01*
X126768631Y-63639952D01*
X126710059Y-63781357D01*
X126680200Y-63931472D01*
X126680200Y-64084528D01*
X126710059Y-64234643D01*
X126768631Y-64376048D01*
X126853664Y-64503309D01*
X126961891Y-64611536D01*
X127089152Y-64696569D01*
X127230557Y-64755141D01*
X127380672Y-64785000D01*
X127524266Y-64785000D01*
X128404803Y-65665538D01*
X128420516Y-65684684D01*
X128496955Y-65747417D01*
X128584164Y-65794031D01*
X128651176Y-65814359D01*
X128651176Y-66328000D01*
X128658455Y-66401905D01*
X128680012Y-66472970D01*
X128715019Y-66538463D01*
X128762131Y-66595869D01*
X128819537Y-66642981D01*
X128885030Y-66677988D01*
X128956095Y-66699545D01*
X129030000Y-66706824D01*
X130530000Y-66706824D01*
X130603905Y-66699545D01*
X130674970Y-66677988D01*
X130740463Y-66642981D01*
X130797869Y-66595869D01*
X130844981Y-66538463D01*
X130879988Y-66472970D01*
X130901545Y-66401905D01*
X130908824Y-66328000D01*
X130908824Y-64909111D01*
X130951176Y-64866759D01*
X130951176Y-66328000D01*
X130958455Y-66401905D01*
X130980012Y-66472970D01*
X131015019Y-66538463D01*
X131062131Y-66595869D01*
X131119537Y-66642981D01*
X131185030Y-66677988D01*
X131256095Y-66699545D01*
X131330000Y-66706824D01*
X131578001Y-66706824D01*
X131578001Y-67214400D01*
X131241045Y-67214400D01*
X131216400Y-67211973D01*
X131191754Y-67214400D01*
X131191747Y-67214400D01*
X131126832Y-67220793D01*
X131117990Y-67221664D01*
X131023363Y-67250369D01*
X130936154Y-67296983D01*
X130878865Y-67344000D01*
X130878862Y-67344003D01*
X130859716Y-67359716D01*
X130844003Y-67378862D01*
X130320063Y-67902803D01*
X130300917Y-67918516D01*
X130285204Y-67937662D01*
X130285201Y-67937665D01*
X130238184Y-67994955D01*
X130191570Y-68082164D01*
X130162865Y-68176791D01*
X130153173Y-68275200D01*
X130155601Y-68299853D01*
X130155600Y-69774557D01*
X130153173Y-69799200D01*
X130155600Y-69823843D01*
X130155600Y-69823852D01*
X130162864Y-69897608D01*
X130191569Y-69992235D01*
X130238183Y-70079445D01*
X130300916Y-70155884D01*
X130320067Y-70171601D01*
X130397642Y-70249176D01*
X130180000Y-70249176D01*
X130106095Y-70256455D01*
X130035030Y-70278012D01*
X129969537Y-70313019D01*
X129912131Y-70360131D01*
X129865019Y-70417537D01*
X129830012Y-70483030D01*
X129808455Y-70554095D01*
X129801176Y-70628000D01*
X129801176Y-72628000D01*
X129808455Y-72701905D01*
X129830012Y-72772970D01*
X129835491Y-72783220D01*
X129806691Y-72802464D01*
X129698464Y-72910691D01*
X129613431Y-73037952D01*
X129554859Y-73179357D01*
X129548294Y-73212360D01*
X127465000Y-71129066D01*
X127465000Y-70999151D01*
X127417847Y-70762097D01*
X127325353Y-70538798D01*
X127191073Y-70337833D01*
X127020167Y-70166927D01*
X126819202Y-70032647D01*
X126595903Y-69940153D01*
X126358849Y-69893000D01*
X126117151Y-69893000D01*
X125880097Y-69940153D01*
X125656798Y-70032647D01*
X125455833Y-70166927D01*
X125284927Y-70337833D01*
X125150647Y-70538798D01*
X125058153Y-70762097D01*
X125011000Y-70999151D01*
X125011000Y-71240849D01*
X125058153Y-71477903D01*
X125150647Y-71701202D01*
X125284927Y-71902167D01*
X125455833Y-72073073D01*
X125656798Y-72207353D01*
X125880097Y-72299847D01*
X126117151Y-72347000D01*
X126358849Y-72347000D01*
X126595903Y-72299847D01*
X126819202Y-72207353D01*
X127001567Y-72085501D01*
X128074066Y-73158000D01*
X127358160Y-73158000D01*
X127325353Y-73078798D01*
X127191073Y-72877833D01*
X127020167Y-72706927D01*
X126819202Y-72572647D01*
X126595903Y-72480153D01*
X126358849Y-72433000D01*
X126117151Y-72433000D01*
X125880097Y-72480153D01*
X125656798Y-72572647D01*
X125455833Y-72706927D01*
X125284927Y-72877833D01*
X125150647Y-73078798D01*
X125058153Y-73302097D01*
X125011000Y-73539151D01*
X125011000Y-73780849D01*
X125058153Y-74017903D01*
X125150647Y-74241202D01*
X125284927Y-74442167D01*
X125455833Y-74613073D01*
X125656798Y-74747353D01*
X125880097Y-74839847D01*
X126117151Y-74887000D01*
X126358849Y-74887000D01*
X126595903Y-74839847D01*
X126819202Y-74747353D01*
X127020167Y-74613073D01*
X127191073Y-74442167D01*
X127325353Y-74241202D01*
X127358160Y-74162000D01*
X128316066Y-74162000D01*
X129303001Y-75148936D01*
X129303001Y-75253066D01*
X129150401Y-75100467D01*
X129134684Y-75081316D01*
X129058245Y-75018583D01*
X128971036Y-74971969D01*
X128876409Y-74943264D01*
X128802653Y-74936000D01*
X128802643Y-74936000D01*
X128778000Y-74933573D01*
X128753357Y-74936000D01*
X127024643Y-74936000D01*
X127000000Y-74933573D01*
X126975357Y-74936000D01*
X126975347Y-74936000D01*
X126901591Y-74943264D01*
X126806964Y-74971969D01*
X126767754Y-74992927D01*
X126719754Y-75018583D01*
X126676940Y-75053720D01*
X126595903Y-75020153D01*
X126358849Y-74973000D01*
X126117151Y-74973000D01*
X125880097Y-75020153D01*
X125656798Y-75112647D01*
X125455833Y-75246927D01*
X125284927Y-75417833D01*
X125150647Y-75618798D01*
X125058153Y-75842097D01*
X125011000Y-76079151D01*
X125011000Y-76320849D01*
X125058153Y-76557903D01*
X125150647Y-76781202D01*
X125284927Y-76982167D01*
X125455833Y-77153073D01*
X125656798Y-77287353D01*
X125880097Y-77379847D01*
X126117151Y-77427000D01*
X126358849Y-77427000D01*
X126595903Y-77379847D01*
X126819202Y-77287353D01*
X127020167Y-77153073D01*
X127191073Y-76982167D01*
X127325353Y-76781202D01*
X127417847Y-76557903D01*
X127465000Y-76320849D01*
X127465000Y-76079151D01*
X127437321Y-75940000D01*
X128447800Y-75940000D01*
X128447800Y-78238000D01*
X127358160Y-78238000D01*
X127325353Y-78158798D01*
X127191073Y-77957833D01*
X127020167Y-77786927D01*
X126819202Y-77652647D01*
X126595903Y-77560153D01*
X126358849Y-77513000D01*
X126117151Y-77513000D01*
X125880097Y-77560153D01*
X125656798Y-77652647D01*
X125455833Y-77786927D01*
X125284927Y-77957833D01*
X125150647Y-78158798D01*
X125058153Y-78382097D01*
X125011000Y-78619151D01*
X125011000Y-78860849D01*
X125058153Y-79097903D01*
X125150647Y-79321202D01*
X125284927Y-79522167D01*
X125455833Y-79693073D01*
X125656798Y-79827353D01*
X125880097Y-79919847D01*
X126117151Y-79967000D01*
X126358849Y-79967000D01*
X126595903Y-79919847D01*
X126819202Y-79827353D01*
X127020167Y-79693073D01*
X127191073Y-79522167D01*
X127325353Y-79321202D01*
X127358160Y-79242000D01*
X128316066Y-79242000D01*
X128447800Y-79373734D01*
X128447800Y-80778000D01*
X127358160Y-80778000D01*
X127325353Y-80698798D01*
X127191073Y-80497833D01*
X127020167Y-80326927D01*
X126819202Y-80192647D01*
X126595903Y-80100153D01*
X126358849Y-80053000D01*
X126117151Y-80053000D01*
X125880097Y-80100153D01*
X125656798Y-80192647D01*
X125455833Y-80326927D01*
X125284927Y-80497833D01*
X125150647Y-80698798D01*
X125058153Y-80922097D01*
X125011000Y-81159151D01*
X125011000Y-81400849D01*
X125058153Y-81637903D01*
X125150647Y-81861202D01*
X125284927Y-82062167D01*
X125455833Y-82233073D01*
X125656798Y-82367353D01*
X125880097Y-82459847D01*
X126117151Y-82507000D01*
X126358849Y-82507000D01*
X126595903Y-82459847D01*
X126819202Y-82367353D01*
X127020167Y-82233073D01*
X127191073Y-82062167D01*
X127325353Y-81861202D01*
X127358160Y-81782000D01*
X128447800Y-81782000D01*
X128447800Y-83659798D01*
X127457172Y-83659798D01*
X127417847Y-83462097D01*
X127325353Y-83238798D01*
X127191073Y-83037833D01*
X127020167Y-82866927D01*
X126819202Y-82732647D01*
X126595903Y-82640153D01*
X126358849Y-82593000D01*
X126117151Y-82593000D01*
X125880097Y-82640153D01*
X125656798Y-82732647D01*
X125455833Y-82866927D01*
X125284927Y-83037833D01*
X125150647Y-83238798D01*
X125058153Y-83462097D01*
X125011000Y-83699151D01*
X125011000Y-83940849D01*
X125058153Y-84177903D01*
X125150647Y-84401202D01*
X125284927Y-84602167D01*
X125455833Y-84773073D01*
X125656798Y-84907353D01*
X125880097Y-84999847D01*
X126117151Y-85047000D01*
X126358849Y-85047000D01*
X126595903Y-84999847D01*
X126819202Y-84907353D01*
X127020167Y-84773073D01*
X127129442Y-84663798D01*
X129761759Y-84663798D01*
X129786402Y-84666225D01*
X129811045Y-84663798D01*
X129811055Y-84663798D01*
X129884811Y-84656534D01*
X129979438Y-84627829D01*
X130066647Y-84581215D01*
X130143086Y-84518482D01*
X130158803Y-84499331D01*
X130603001Y-84055134D01*
X130603001Y-85095063D01*
X129840066Y-85858000D01*
X127358160Y-85858000D01*
X127325353Y-85778798D01*
X127191073Y-85577833D01*
X127020167Y-85406927D01*
X126819202Y-85272647D01*
X126595903Y-85180153D01*
X126358849Y-85133000D01*
X126117151Y-85133000D01*
X125880097Y-85180153D01*
X125656798Y-85272647D01*
X125455833Y-85406927D01*
X125284927Y-85577833D01*
X125150647Y-85778798D01*
X125058153Y-86002097D01*
X125011000Y-86239151D01*
X125011000Y-86480849D01*
X125058153Y-86717903D01*
X125150647Y-86941202D01*
X125284927Y-87142167D01*
X125455833Y-87313073D01*
X125656798Y-87447353D01*
X125774798Y-87496231D01*
X125606748Y-87555843D01*
X125356645Y-87704822D01*
X125140412Y-87899731D01*
X124966359Y-88133080D01*
X124887000Y-88299692D01*
X124887000Y-68459151D01*
X125011000Y-68459151D01*
X125011000Y-68700849D01*
X125058153Y-68937903D01*
X125150647Y-69161202D01*
X125284927Y-69362167D01*
X125455833Y-69533073D01*
X125656798Y-69667353D01*
X125880097Y-69759847D01*
X126117151Y-69807000D01*
X126358849Y-69807000D01*
X126595903Y-69759847D01*
X126819202Y-69667353D01*
X127020167Y-69533073D01*
X127191073Y-69362167D01*
X127325353Y-69161202D01*
X127417847Y-68937903D01*
X127465000Y-68700849D01*
X127465000Y-68459151D01*
X127417847Y-68222097D01*
X127325353Y-67998798D01*
X127191073Y-67797833D01*
X127020167Y-67626927D01*
X126819202Y-67492647D01*
X126595903Y-67400153D01*
X126358849Y-67353000D01*
X126117151Y-67353000D01*
X125880097Y-67400153D01*
X125656798Y-67492647D01*
X125455833Y-67626927D01*
X125284927Y-67797833D01*
X125150647Y-67998798D01*
X125058153Y-68222097D01*
X125011000Y-68459151D01*
X124887000Y-68459151D01*
X124887000Y-65190000D01*
X125009176Y-65190000D01*
X125009176Y-66890000D01*
X125016455Y-66963905D01*
X125038012Y-67034970D01*
X125073019Y-67100463D01*
X125120131Y-67157869D01*
X125177537Y-67204981D01*
X125243030Y-67239988D01*
X125314095Y-67261545D01*
X125388000Y-67268824D01*
X127088000Y-67268824D01*
X127161905Y-67261545D01*
X127232970Y-67239988D01*
X127298463Y-67204981D01*
X127355869Y-67157869D01*
X127402981Y-67100463D01*
X127437988Y-67034970D01*
X127459545Y-66963905D01*
X127466824Y-66890000D01*
X127466824Y-65190000D01*
X127459545Y-65116095D01*
X127437988Y-65045030D01*
X127402981Y-64979537D01*
X127355869Y-64922131D01*
X127298463Y-64875019D01*
X127232970Y-64840012D01*
X127161905Y-64818455D01*
X127088000Y-64811176D01*
X125388000Y-64811176D01*
X125314095Y-64818455D01*
X125243030Y-64840012D01*
X125177537Y-64875019D01*
X125120131Y-64922131D01*
X125073019Y-64979537D01*
X125038012Y-65045030D01*
X125016455Y-65116095D01*
X125009176Y-65190000D01*
X124887000Y-65190000D01*
X124887000Y-58027000D01*
X139273001Y-58027000D01*
X139273001Y-58785347D01*
G37*
%TD.AperFunction*%
D22*
X128516324Y-63633001D02*
X128525506Y-63640537D01*
X128635820Y-63699502D01*
X128755518Y-63735812D01*
X128880000Y-63748072D01*
X129306750Y-63745000D01*
X129413897Y-63637853D01*
X129773044Y-63639794D01*
X129878250Y-63745000D01*
X130305000Y-63748072D01*
X130429482Y-63735812D01*
X130432086Y-63735022D01*
X130523250Y-63745000D01*
X130591218Y-63677032D01*
X130651995Y-63644545D01*
X130652998Y-63644550D01*
X130652998Y-63745000D01*
X130653064Y-63745000D01*
X130448889Y-63949176D01*
X129030000Y-63949176D01*
X128956095Y-63956455D01*
X128885030Y-63978012D01*
X128819537Y-64013019D01*
X128762131Y-64060131D01*
X128715019Y-64117537D01*
X128680012Y-64183030D01*
X128658455Y-64254095D01*
X128651176Y-64328000D01*
X128651176Y-64492041D01*
X128234200Y-64075066D01*
X128234200Y-63931472D01*
X128204341Y-63781357D01*
X128145769Y-63639952D01*
X128139765Y-63630966D01*
X128516324Y-63633001D01*
%TA.AperFunction,Conductor*%
D23*
G36*
X128516324Y-63633001D02*
G01*
X128525506Y-63640537D01*
X128635820Y-63699502D01*
X128755518Y-63735812D01*
X128880000Y-63748072D01*
X129306750Y-63745000D01*
X129413897Y-63637853D01*
X129773044Y-63639794D01*
X129878250Y-63745000D01*
X130305000Y-63748072D01*
X130429482Y-63735812D01*
X130432086Y-63735022D01*
X130523250Y-63745000D01*
X130591218Y-63677032D01*
X130651995Y-63644545D01*
X130652998Y-63644550D01*
X130652998Y-63745000D01*
X130653064Y-63745000D01*
X130448889Y-63949176D01*
X129030000Y-63949176D01*
X128956095Y-63956455D01*
X128885030Y-63978012D01*
X128819537Y-64013019D01*
X128762131Y-64060131D01*
X128715019Y-64117537D01*
X128680012Y-64183030D01*
X128658455Y-64254095D01*
X128651176Y-64328000D01*
X128651176Y-64492041D01*
X128234200Y-64075066D01*
X128234200Y-63931472D01*
X128204341Y-63781357D01*
X128145769Y-63639952D01*
X128139765Y-63630966D01*
X128516324Y-63633001D01*
G37*
%TD.AperFunction*%
%TD*%
D22*
%TO.N,GND*%
X139269000Y-63478833D02*
X139269001Y-91009000D01*
X124891000Y-91009000D01*
X124891000Y-89508705D01*
X124966359Y-89666920D01*
X125140412Y-89900269D01*
X125356645Y-90095178D01*
X125606748Y-90244157D01*
X125881109Y-90341481D01*
X126111000Y-90220814D01*
X126111000Y-89027000D01*
X126365000Y-89027000D01*
X126365000Y-90220814D01*
X126594891Y-90341481D01*
X126869252Y-90244157D01*
X127119355Y-90095178D01*
X127335588Y-89900269D01*
X127509641Y-89666920D01*
X127634825Y-89404099D01*
X127679476Y-89256890D01*
X127558155Y-89027000D01*
X126365000Y-89027000D01*
X126111000Y-89027000D01*
X126091000Y-89027000D01*
X126091000Y-88773000D01*
X126111000Y-88773000D01*
X126111000Y-88753000D01*
X126365000Y-88753000D01*
X126365000Y-88773000D01*
X127558155Y-88773000D01*
X127679476Y-88543110D01*
X127673910Y-88524757D01*
X136691000Y-88524757D01*
X136691000Y-88767243D01*
X136738307Y-89005069D01*
X136831102Y-89229097D01*
X136965820Y-89430717D01*
X137137283Y-89602180D01*
X137338903Y-89736898D01*
X137562931Y-89829693D01*
X137800757Y-89877000D01*
X138043243Y-89877000D01*
X138281069Y-89829693D01*
X138505097Y-89736898D01*
X138706717Y-89602180D01*
X138878180Y-89430717D01*
X139012898Y-89229097D01*
X139105693Y-89005069D01*
X139153000Y-88767243D01*
X139153000Y-88524757D01*
X139105693Y-88286931D01*
X139012898Y-88062903D01*
X138878180Y-87861283D01*
X138706717Y-87689820D01*
X138505097Y-87555102D01*
X138281069Y-87462307D01*
X138043243Y-87415000D01*
X137800757Y-87415000D01*
X137562931Y-87462307D01*
X137338903Y-87555102D01*
X137137283Y-87689820D01*
X136965820Y-87861283D01*
X136831102Y-88062903D01*
X136738307Y-88286931D01*
X136691000Y-88524757D01*
X127673910Y-88524757D01*
X127634825Y-88395901D01*
X127509641Y-88133080D01*
X127335588Y-87899731D01*
X127119355Y-87704822D01*
X126869252Y-87555843D01*
X126706832Y-87498228D01*
X126821097Y-87450898D01*
X127022717Y-87316180D01*
X127194180Y-87144717D01*
X127328898Y-86943097D01*
X127360832Y-86866000D01*
X130023154Y-86866000D01*
X130048000Y-86868447D01*
X130072846Y-86866000D01*
X130072854Y-86866000D01*
X130147193Y-86858678D01*
X130242575Y-86829745D01*
X130330479Y-86782759D01*
X130407527Y-86719527D01*
X130423376Y-86700215D01*
X131445220Y-85678372D01*
X131464527Y-85662527D01*
X131527759Y-85585479D01*
X131574745Y-85497575D01*
X131603678Y-85402193D01*
X131611000Y-85327854D01*
X131613448Y-85303000D01*
X131611000Y-85278146D01*
X131611000Y-83947000D01*
X131942750Y-83947000D01*
X131986750Y-83991000D01*
X132088883Y-83979868D01*
X132191642Y-83947000D01*
X132549000Y-83947000D01*
X132549001Y-85538348D01*
X132546553Y-85563204D01*
X132556322Y-85662396D01*
X132585255Y-85757778D01*
X132595478Y-85776903D01*
X132632242Y-85845683D01*
X132695474Y-85922731D01*
X132714780Y-85938575D01*
X133287026Y-86510822D01*
X133302871Y-86530129D01*
X133379919Y-86593361D01*
X133467823Y-86640347D01*
X133541005Y-86662546D01*
X133563204Y-86669280D01*
X133573092Y-86670254D01*
X133637544Y-86676602D01*
X133637551Y-86676602D01*
X133662397Y-86679049D01*
X133687243Y-86676602D01*
X136825926Y-86676602D01*
X136831102Y-86689097D01*
X136965820Y-86890717D01*
X137137283Y-87062180D01*
X137338903Y-87196898D01*
X137562931Y-87289693D01*
X137800757Y-87337000D01*
X138043243Y-87337000D01*
X138281069Y-87289693D01*
X138505097Y-87196898D01*
X138706717Y-87062180D01*
X138878180Y-86890717D01*
X139012898Y-86689097D01*
X139105693Y-86465069D01*
X139153000Y-86227243D01*
X139153000Y-85984757D01*
X139105693Y-85746931D01*
X139012898Y-85522903D01*
X138878180Y-85321283D01*
X138706717Y-85149820D01*
X138505097Y-85015102D01*
X138281069Y-84922307D01*
X138043243Y-84875000D01*
X137800757Y-84875000D01*
X137562931Y-84922307D01*
X137338903Y-85015102D01*
X137137283Y-85149820D01*
X136965820Y-85321283D01*
X136831102Y-85522903D01*
X136772409Y-85664602D01*
X133871990Y-85664602D01*
X133561000Y-85353613D01*
X133561000Y-83962963D01*
X134100054Y-84502018D01*
X134115899Y-84521325D01*
X134192947Y-84584557D01*
X134280849Y-84631542D01*
X134280851Y-84631543D01*
X134376233Y-84660476D01*
X134475426Y-84670246D01*
X134500280Y-84667798D01*
X137301356Y-84667798D01*
X137326202Y-84670245D01*
X137351048Y-84667798D01*
X137351056Y-84667798D01*
X137362497Y-84666671D01*
X137562931Y-84749693D01*
X137800757Y-84797000D01*
X138043243Y-84797000D01*
X138281069Y-84749693D01*
X138505097Y-84656898D01*
X138706717Y-84522180D01*
X138878180Y-84350717D01*
X139012898Y-84149097D01*
X139105693Y-83925069D01*
X139153000Y-83687243D01*
X139153000Y-83444757D01*
X139105693Y-83206931D01*
X139012898Y-82982903D01*
X138878180Y-82781283D01*
X138706717Y-82609820D01*
X138505097Y-82475102D01*
X138281069Y-82382307D01*
X138043243Y-82335000D01*
X137800757Y-82335000D01*
X137562931Y-82382307D01*
X137338903Y-82475102D01*
X137137283Y-82609820D01*
X136965820Y-82781283D01*
X136831102Y-82982903D01*
X136738307Y-83206931D01*
X136691000Y-83444757D01*
X136691000Y-83655798D01*
X135763000Y-83655798D01*
X135763000Y-81614592D01*
X135845592Y-81532000D01*
X136799168Y-81532000D01*
X136831102Y-81609097D01*
X136965820Y-81810717D01*
X137137283Y-81982180D01*
X137338903Y-82116898D01*
X137562931Y-82209693D01*
X137800757Y-82257000D01*
X138043243Y-82257000D01*
X138281069Y-82209693D01*
X138505097Y-82116898D01*
X138706717Y-81982180D01*
X138878180Y-81810717D01*
X139012898Y-81609097D01*
X139105693Y-81385069D01*
X139153000Y-81147243D01*
X139153000Y-80904757D01*
X139105693Y-80666931D01*
X139012898Y-80442903D01*
X138878180Y-80241283D01*
X138706717Y-80069820D01*
X138505097Y-79935102D01*
X138281069Y-79842307D01*
X138043243Y-79795000D01*
X137800757Y-79795000D01*
X137562931Y-79842307D01*
X137338903Y-79935102D01*
X137137283Y-80069820D01*
X136965820Y-80241283D01*
X136831102Y-80442903D01*
X136799168Y-80520000D01*
X135763000Y-80520000D01*
X135763000Y-79582592D01*
X136353592Y-78992000D01*
X136799168Y-78992000D01*
X136831102Y-79069097D01*
X136965820Y-79270717D01*
X137137283Y-79442180D01*
X137338903Y-79576898D01*
X137562931Y-79669693D01*
X137800757Y-79717000D01*
X138043243Y-79717000D01*
X138281069Y-79669693D01*
X138505097Y-79576898D01*
X138706717Y-79442180D01*
X138878180Y-79270717D01*
X139012898Y-79069097D01*
X139105693Y-78845069D01*
X139153000Y-78607243D01*
X139153000Y-78364757D01*
X139105693Y-78126931D01*
X139012898Y-77902903D01*
X138878180Y-77701283D01*
X138706717Y-77529820D01*
X138505097Y-77395102D01*
X138281069Y-77302307D01*
X138043243Y-77255000D01*
X137800757Y-77255000D01*
X137562931Y-77302307D01*
X137338903Y-77395102D01*
X137137283Y-77529820D01*
X136965820Y-77701283D01*
X136831102Y-77902903D01*
X136799168Y-77980000D01*
X136168845Y-77980000D01*
X136143999Y-77977553D01*
X136119153Y-77980000D01*
X136119146Y-77980000D01*
X136044807Y-77987322D01*
X135949425Y-78016255D01*
X135861521Y-78063241D01*
X135784473Y-78126473D01*
X135768628Y-78145780D01*
X135763000Y-78151408D01*
X135763000Y-76851091D01*
X136162092Y-76452000D01*
X136799168Y-76452000D01*
X136831102Y-76529097D01*
X136965820Y-76730717D01*
X137137283Y-76902180D01*
X137338903Y-77036898D01*
X137562931Y-77129693D01*
X137800757Y-77177000D01*
X138043243Y-77177000D01*
X138281069Y-77129693D01*
X138505097Y-77036898D01*
X138706717Y-76902180D01*
X138878180Y-76730717D01*
X139012898Y-76529097D01*
X139105693Y-76305069D01*
X139153000Y-76067243D01*
X139153000Y-75824757D01*
X139105693Y-75586931D01*
X139012898Y-75362903D01*
X138878180Y-75161283D01*
X138706717Y-74989820D01*
X138505097Y-74855102D01*
X138281069Y-74762307D01*
X138043243Y-74715000D01*
X137800757Y-74715000D01*
X137562931Y-74762307D01*
X137338903Y-74855102D01*
X137137283Y-74989820D01*
X136965820Y-75161283D01*
X136831102Y-75362903D01*
X136799168Y-75440000D01*
X135977345Y-75440000D01*
X135952499Y-75437553D01*
X135927653Y-75440000D01*
X135927646Y-75440000D01*
X135863194Y-75446348D01*
X135853306Y-75447322D01*
X135846298Y-75449448D01*
X135757925Y-75476255D01*
X135670021Y-75523241D01*
X135592973Y-75586473D01*
X135577128Y-75605780D01*
X135465508Y-75717400D01*
X134861000Y-75717400D01*
X134861000Y-75291847D01*
X134863447Y-75267001D01*
X134861000Y-75242155D01*
X134861000Y-75242148D01*
X134854652Y-75177696D01*
X134853678Y-75167808D01*
X134843900Y-75135574D01*
X134824745Y-75072427D01*
X134777759Y-74984523D01*
X134714527Y-74907475D01*
X134695215Y-74891626D01*
X134654999Y-74851410D01*
X134654999Y-74574590D01*
X135317590Y-73912000D01*
X136799168Y-73912000D01*
X136831102Y-73989097D01*
X136965820Y-74190717D01*
X137137283Y-74362180D01*
X137338903Y-74496898D01*
X137562931Y-74589693D01*
X137800757Y-74637000D01*
X138043243Y-74637000D01*
X138281069Y-74589693D01*
X138505097Y-74496898D01*
X138706717Y-74362180D01*
X138878180Y-74190717D01*
X139012898Y-73989097D01*
X139105693Y-73765069D01*
X139153000Y-73527243D01*
X139153000Y-73284757D01*
X139105693Y-73046931D01*
X139012898Y-72822903D01*
X138878180Y-72621283D01*
X138706717Y-72449820D01*
X138505097Y-72315102D01*
X138281069Y-72222307D01*
X138043243Y-72175000D01*
X137800757Y-72175000D01*
X137562931Y-72222307D01*
X137338903Y-72315102D01*
X137137283Y-72449820D01*
X136965820Y-72621283D01*
X136831102Y-72822903D01*
X136799168Y-72900000D01*
X135693178Y-72900000D01*
X136956464Y-71636715D01*
X136965820Y-71650717D01*
X137137283Y-71822180D01*
X137338903Y-71956898D01*
X137562931Y-72049693D01*
X137800757Y-72097000D01*
X138043243Y-72097000D01*
X138281069Y-72049693D01*
X138505097Y-71956898D01*
X138706717Y-71822180D01*
X138878180Y-71650717D01*
X139012898Y-71449097D01*
X139105693Y-71225069D01*
X139153000Y-70987243D01*
X139153000Y-70744757D01*
X139105693Y-70506931D01*
X139012898Y-70282903D01*
X138878180Y-70081283D01*
X138706717Y-69909820D01*
X138505097Y-69775102D01*
X138281069Y-69682307D01*
X138043243Y-69635000D01*
X137800757Y-69635000D01*
X137562931Y-69682307D01*
X137338903Y-69775102D01*
X137137283Y-69909820D01*
X136965820Y-70081283D01*
X136831102Y-70282903D01*
X136774806Y-70418815D01*
X136729108Y-70443241D01*
X136652060Y-70506473D01*
X136636215Y-70525780D01*
X134100979Y-73061016D01*
X134061217Y-73001507D01*
X134126508Y-72981701D01*
X134192696Y-72946322D01*
X134250711Y-72898711D01*
X134298322Y-72840696D01*
X134333701Y-72774508D01*
X134355487Y-72702689D01*
X134362843Y-72628000D01*
X134362843Y-70628000D01*
X134355487Y-70553311D01*
X134333701Y-70481492D01*
X134298322Y-70415304D01*
X134250711Y-70357289D01*
X134192696Y-70309678D01*
X134126508Y-70274299D01*
X134054689Y-70252513D01*
X133980000Y-70245157D01*
X131819149Y-70245157D01*
X131163600Y-69589609D01*
X131163600Y-68484791D01*
X131425992Y-68222400D01*
X131684699Y-68222400D01*
X131785341Y-68323042D01*
X131913258Y-68408513D01*
X132055391Y-68467387D01*
X132206278Y-68497400D01*
X132360122Y-68497400D01*
X132511009Y-68467387D01*
X132653142Y-68408513D01*
X132781059Y-68323042D01*
X132889842Y-68214259D01*
X132896191Y-68204757D01*
X136691000Y-68204757D01*
X136691000Y-68447243D01*
X136738307Y-68685069D01*
X136831102Y-68909097D01*
X136965820Y-69110717D01*
X137137283Y-69282180D01*
X137338903Y-69416898D01*
X137562931Y-69509693D01*
X137800757Y-69557000D01*
X138043243Y-69557000D01*
X138281069Y-69509693D01*
X138505097Y-69416898D01*
X138706717Y-69282180D01*
X138878180Y-69110717D01*
X139012898Y-68909097D01*
X139105693Y-68685069D01*
X139153000Y-68447243D01*
X139153000Y-68204757D01*
X139105693Y-67966931D01*
X139012898Y-67742903D01*
X138878180Y-67541283D01*
X138706717Y-67369820D01*
X138505097Y-67235102D01*
X138281069Y-67142307D01*
X138043243Y-67095000D01*
X137800757Y-67095000D01*
X137562931Y-67142307D01*
X137338903Y-67235102D01*
X137137283Y-67369820D01*
X136965820Y-67541283D01*
X136831102Y-67742903D01*
X136738307Y-67966931D01*
X136691000Y-68204757D01*
X132896191Y-68204757D01*
X132975313Y-68086342D01*
X133034187Y-67944209D01*
X133064200Y-67793322D01*
X133064200Y-67639478D01*
X133034187Y-67488591D01*
X132975313Y-67346458D01*
X132889842Y-67218541D01*
X132781059Y-67109758D01*
X132653142Y-67024287D01*
X132586000Y-66996476D01*
X132586000Y-66710843D01*
X132830000Y-66710843D01*
X132904689Y-66703487D01*
X132976508Y-66681701D01*
X133042696Y-66646322D01*
X133068715Y-66624969D01*
X133099463Y-66682494D01*
X133178815Y-66779185D01*
X133275506Y-66858537D01*
X133385820Y-66917502D01*
X133505518Y-66953812D01*
X133630000Y-66966072D01*
X134094250Y-66963000D01*
X134253000Y-66804250D01*
X134253000Y-65455000D01*
X134507000Y-65455000D01*
X134507000Y-66804250D01*
X134665750Y-66963000D01*
X135130000Y-66966072D01*
X135254482Y-66953812D01*
X135374180Y-66917502D01*
X135484494Y-66858537D01*
X135581185Y-66779185D01*
X135660537Y-66682494D01*
X135719502Y-66572180D01*
X135755812Y-66452482D01*
X135768072Y-66328000D01*
X135765000Y-65613750D01*
X135606250Y-65455000D01*
X134507000Y-65455000D01*
X134253000Y-65455000D01*
X134233000Y-65455000D01*
X134233000Y-65201000D01*
X134253000Y-65201000D01*
X134253000Y-63851750D01*
X134147218Y-63745968D01*
X134281750Y-63745000D01*
X134362150Y-63664600D01*
X134775082Y-63666832D01*
X134800359Y-63692109D01*
X134665750Y-63693000D01*
X134507000Y-63851750D01*
X134507000Y-65201000D01*
X135606250Y-65201000D01*
X135765000Y-65042250D01*
X135765456Y-64936000D01*
X136689157Y-64936000D01*
X136689157Y-66636000D01*
X136696513Y-66710689D01*
X136718299Y-66782508D01*
X136753678Y-66848696D01*
X136801289Y-66906711D01*
X136859304Y-66954322D01*
X136925492Y-66989701D01*
X136997311Y-67011487D01*
X137072000Y-67018843D01*
X138772000Y-67018843D01*
X138846689Y-67011487D01*
X138918508Y-66989701D01*
X138984696Y-66954322D01*
X139042711Y-66906711D01*
X139090322Y-66848696D01*
X139125701Y-66782508D01*
X139147487Y-66710689D01*
X139154843Y-66636000D01*
X139154843Y-64936000D01*
X139147487Y-64861311D01*
X139125701Y-64789492D01*
X139090322Y-64723304D01*
X139042711Y-64665289D01*
X138984696Y-64617678D01*
X138918508Y-64582299D01*
X138846689Y-64560513D01*
X138772000Y-64553157D01*
X137072000Y-64553157D01*
X136997311Y-64560513D01*
X136925492Y-64582299D01*
X136859304Y-64617678D01*
X136801289Y-64665289D01*
X136753678Y-64723304D01*
X136718299Y-64789492D01*
X136696513Y-64861311D01*
X136689157Y-64936000D01*
X135765456Y-64936000D01*
X135768072Y-64328000D01*
X135755812Y-64203518D01*
X135719502Y-64083820D01*
X135660537Y-63973506D01*
X135581185Y-63876815D01*
X135484494Y-63797463D01*
X135374651Y-63738750D01*
X135404482Y-63735812D01*
X135524180Y-63699502D01*
X135577188Y-63671168D01*
X136268247Y-63674904D01*
X136282030Y-63684113D01*
X136424163Y-63742987D01*
X136575050Y-63773000D01*
X136728894Y-63773000D01*
X136879781Y-63742987D01*
X137021914Y-63684113D01*
X137149831Y-63598642D01*
X137250473Y-63498000D01*
X137389154Y-63498000D01*
X137414000Y-63500447D01*
X137438846Y-63498000D01*
X137438854Y-63498000D01*
X137513193Y-63490678D01*
X137608575Y-63461745D01*
X137696479Y-63414759D01*
X137773527Y-63351527D01*
X137789376Y-63332215D01*
X138516220Y-62605372D01*
X138535527Y-62589527D01*
X138597640Y-62513843D01*
X138632250Y-62513843D01*
X138754492Y-62501803D01*
X138872037Y-62466146D01*
X138980366Y-62408243D01*
X139075318Y-62330318D01*
X139153243Y-62235366D01*
X139211146Y-62127037D01*
X139246803Y-62009492D01*
X139258843Y-61887250D01*
X139258843Y-61399750D01*
X139246803Y-61277508D01*
X139211146Y-61159963D01*
X139153243Y-61051634D01*
X139075318Y-60956682D01*
X138985845Y-60883254D01*
X139000482Y-60881812D01*
X139120180Y-60845502D01*
X139230494Y-60786537D01*
X139269000Y-60754936D01*
X139269000Y-63478833D01*
%TA.AperFunction,Conductor*%
D23*
G36*
X139269000Y-63478833D02*
G01*
X139269001Y-91009000D01*
X124891000Y-91009000D01*
X124891000Y-89508705D01*
X124966359Y-89666920D01*
X125140412Y-89900269D01*
X125356645Y-90095178D01*
X125606748Y-90244157D01*
X125881109Y-90341481D01*
X126111000Y-90220814D01*
X126111000Y-89027000D01*
X126365000Y-89027000D01*
X126365000Y-90220814D01*
X126594891Y-90341481D01*
X126869252Y-90244157D01*
X127119355Y-90095178D01*
X127335588Y-89900269D01*
X127509641Y-89666920D01*
X127634825Y-89404099D01*
X127679476Y-89256890D01*
X127558155Y-89027000D01*
X126365000Y-89027000D01*
X126111000Y-89027000D01*
X126091000Y-89027000D01*
X126091000Y-88773000D01*
X126111000Y-88773000D01*
X126111000Y-88753000D01*
X126365000Y-88753000D01*
X126365000Y-88773000D01*
X127558155Y-88773000D01*
X127679476Y-88543110D01*
X127673910Y-88524757D01*
X136691000Y-88524757D01*
X136691000Y-88767243D01*
X136738307Y-89005069D01*
X136831102Y-89229097D01*
X136965820Y-89430717D01*
X137137283Y-89602180D01*
X137338903Y-89736898D01*
X137562931Y-89829693D01*
X137800757Y-89877000D01*
X138043243Y-89877000D01*
X138281069Y-89829693D01*
X138505097Y-89736898D01*
X138706717Y-89602180D01*
X138878180Y-89430717D01*
X139012898Y-89229097D01*
X139105693Y-89005069D01*
X139153000Y-88767243D01*
X139153000Y-88524757D01*
X139105693Y-88286931D01*
X139012898Y-88062903D01*
X138878180Y-87861283D01*
X138706717Y-87689820D01*
X138505097Y-87555102D01*
X138281069Y-87462307D01*
X138043243Y-87415000D01*
X137800757Y-87415000D01*
X137562931Y-87462307D01*
X137338903Y-87555102D01*
X137137283Y-87689820D01*
X136965820Y-87861283D01*
X136831102Y-88062903D01*
X136738307Y-88286931D01*
X136691000Y-88524757D01*
X127673910Y-88524757D01*
X127634825Y-88395901D01*
X127509641Y-88133080D01*
X127335588Y-87899731D01*
X127119355Y-87704822D01*
X126869252Y-87555843D01*
X126706832Y-87498228D01*
X126821097Y-87450898D01*
X127022717Y-87316180D01*
X127194180Y-87144717D01*
X127328898Y-86943097D01*
X127360832Y-86866000D01*
X130023154Y-86866000D01*
X130048000Y-86868447D01*
X130072846Y-86866000D01*
X130072854Y-86866000D01*
X130147193Y-86858678D01*
X130242575Y-86829745D01*
X130330479Y-86782759D01*
X130407527Y-86719527D01*
X130423376Y-86700215D01*
X131445220Y-85678372D01*
X131464527Y-85662527D01*
X131527759Y-85585479D01*
X131574745Y-85497575D01*
X131603678Y-85402193D01*
X131611000Y-85327854D01*
X131613448Y-85303000D01*
X131611000Y-85278146D01*
X131611000Y-83947000D01*
X131942750Y-83947000D01*
X131986750Y-83991000D01*
X132088883Y-83979868D01*
X132191642Y-83947000D01*
X132549000Y-83947000D01*
X132549001Y-85538348D01*
X132546553Y-85563204D01*
X132556322Y-85662396D01*
X132585255Y-85757778D01*
X132595478Y-85776903D01*
X132632242Y-85845683D01*
X132695474Y-85922731D01*
X132714780Y-85938575D01*
X133287026Y-86510822D01*
X133302871Y-86530129D01*
X133379919Y-86593361D01*
X133467823Y-86640347D01*
X133541005Y-86662546D01*
X133563204Y-86669280D01*
X133573092Y-86670254D01*
X133637544Y-86676602D01*
X133637551Y-86676602D01*
X133662397Y-86679049D01*
X133687243Y-86676602D01*
X136825926Y-86676602D01*
X136831102Y-86689097D01*
X136965820Y-86890717D01*
X137137283Y-87062180D01*
X137338903Y-87196898D01*
X137562931Y-87289693D01*
X137800757Y-87337000D01*
X138043243Y-87337000D01*
X138281069Y-87289693D01*
X138505097Y-87196898D01*
X138706717Y-87062180D01*
X138878180Y-86890717D01*
X139012898Y-86689097D01*
X139105693Y-86465069D01*
X139153000Y-86227243D01*
X139153000Y-85984757D01*
X139105693Y-85746931D01*
X139012898Y-85522903D01*
X138878180Y-85321283D01*
X138706717Y-85149820D01*
X138505097Y-85015102D01*
X138281069Y-84922307D01*
X138043243Y-84875000D01*
X137800757Y-84875000D01*
X137562931Y-84922307D01*
X137338903Y-85015102D01*
X137137283Y-85149820D01*
X136965820Y-85321283D01*
X136831102Y-85522903D01*
X136772409Y-85664602D01*
X133871990Y-85664602D01*
X133561000Y-85353613D01*
X133561000Y-83962963D01*
X134100054Y-84502018D01*
X134115899Y-84521325D01*
X134192947Y-84584557D01*
X134280849Y-84631542D01*
X134280851Y-84631543D01*
X134376233Y-84660476D01*
X134475426Y-84670246D01*
X134500280Y-84667798D01*
X137301356Y-84667798D01*
X137326202Y-84670245D01*
X137351048Y-84667798D01*
X137351056Y-84667798D01*
X137362497Y-84666671D01*
X137562931Y-84749693D01*
X137800757Y-84797000D01*
X138043243Y-84797000D01*
X138281069Y-84749693D01*
X138505097Y-84656898D01*
X138706717Y-84522180D01*
X138878180Y-84350717D01*
X139012898Y-84149097D01*
X139105693Y-83925069D01*
X139153000Y-83687243D01*
X139153000Y-83444757D01*
X139105693Y-83206931D01*
X139012898Y-82982903D01*
X138878180Y-82781283D01*
X138706717Y-82609820D01*
X138505097Y-82475102D01*
X138281069Y-82382307D01*
X138043243Y-82335000D01*
X137800757Y-82335000D01*
X137562931Y-82382307D01*
X137338903Y-82475102D01*
X137137283Y-82609820D01*
X136965820Y-82781283D01*
X136831102Y-82982903D01*
X136738307Y-83206931D01*
X136691000Y-83444757D01*
X136691000Y-83655798D01*
X135763000Y-83655798D01*
X135763000Y-81614592D01*
X135845592Y-81532000D01*
X136799168Y-81532000D01*
X136831102Y-81609097D01*
X136965820Y-81810717D01*
X137137283Y-81982180D01*
X137338903Y-82116898D01*
X137562931Y-82209693D01*
X137800757Y-82257000D01*
X138043243Y-82257000D01*
X138281069Y-82209693D01*
X138505097Y-82116898D01*
X138706717Y-81982180D01*
X138878180Y-81810717D01*
X139012898Y-81609097D01*
X139105693Y-81385069D01*
X139153000Y-81147243D01*
X139153000Y-80904757D01*
X139105693Y-80666931D01*
X139012898Y-80442903D01*
X138878180Y-80241283D01*
X138706717Y-80069820D01*
X138505097Y-79935102D01*
X138281069Y-79842307D01*
X138043243Y-79795000D01*
X137800757Y-79795000D01*
X137562931Y-79842307D01*
X137338903Y-79935102D01*
X137137283Y-80069820D01*
X136965820Y-80241283D01*
X136831102Y-80442903D01*
X136799168Y-80520000D01*
X135763000Y-80520000D01*
X135763000Y-79582592D01*
X136353592Y-78992000D01*
X136799168Y-78992000D01*
X136831102Y-79069097D01*
X136965820Y-79270717D01*
X137137283Y-79442180D01*
X137338903Y-79576898D01*
X137562931Y-79669693D01*
X137800757Y-79717000D01*
X138043243Y-79717000D01*
X138281069Y-79669693D01*
X138505097Y-79576898D01*
X138706717Y-79442180D01*
X138878180Y-79270717D01*
X139012898Y-79069097D01*
X139105693Y-78845069D01*
X139153000Y-78607243D01*
X139153000Y-78364757D01*
X139105693Y-78126931D01*
X139012898Y-77902903D01*
X138878180Y-77701283D01*
X138706717Y-77529820D01*
X138505097Y-77395102D01*
X138281069Y-77302307D01*
X138043243Y-77255000D01*
X137800757Y-77255000D01*
X137562931Y-77302307D01*
X137338903Y-77395102D01*
X137137283Y-77529820D01*
X136965820Y-77701283D01*
X136831102Y-77902903D01*
X136799168Y-77980000D01*
X136168845Y-77980000D01*
X136143999Y-77977553D01*
X136119153Y-77980000D01*
X136119146Y-77980000D01*
X136044807Y-77987322D01*
X135949425Y-78016255D01*
X135861521Y-78063241D01*
X135784473Y-78126473D01*
X135768628Y-78145780D01*
X135763000Y-78151408D01*
X135763000Y-76851091D01*
X136162092Y-76452000D01*
X136799168Y-76452000D01*
X136831102Y-76529097D01*
X136965820Y-76730717D01*
X137137283Y-76902180D01*
X137338903Y-77036898D01*
X137562931Y-77129693D01*
X137800757Y-77177000D01*
X138043243Y-77177000D01*
X138281069Y-77129693D01*
X138505097Y-77036898D01*
X138706717Y-76902180D01*
X138878180Y-76730717D01*
X139012898Y-76529097D01*
X139105693Y-76305069D01*
X139153000Y-76067243D01*
X139153000Y-75824757D01*
X139105693Y-75586931D01*
X139012898Y-75362903D01*
X138878180Y-75161283D01*
X138706717Y-74989820D01*
X138505097Y-74855102D01*
X138281069Y-74762307D01*
X138043243Y-74715000D01*
X137800757Y-74715000D01*
X137562931Y-74762307D01*
X137338903Y-74855102D01*
X137137283Y-74989820D01*
X136965820Y-75161283D01*
X136831102Y-75362903D01*
X136799168Y-75440000D01*
X135977345Y-75440000D01*
X135952499Y-75437553D01*
X135927653Y-75440000D01*
X135927646Y-75440000D01*
X135863194Y-75446348D01*
X135853306Y-75447322D01*
X135846298Y-75449448D01*
X135757925Y-75476255D01*
X135670021Y-75523241D01*
X135592973Y-75586473D01*
X135577128Y-75605780D01*
X135465508Y-75717400D01*
X134861000Y-75717400D01*
X134861000Y-75291847D01*
X134863447Y-75267001D01*
X134861000Y-75242155D01*
X134861000Y-75242148D01*
X134854652Y-75177696D01*
X134853678Y-75167808D01*
X134843900Y-75135574D01*
X134824745Y-75072427D01*
X134777759Y-74984523D01*
X134714527Y-74907475D01*
X134695215Y-74891626D01*
X134654999Y-74851410D01*
X134654999Y-74574590D01*
X135317590Y-73912000D01*
X136799168Y-73912000D01*
X136831102Y-73989097D01*
X136965820Y-74190717D01*
X137137283Y-74362180D01*
X137338903Y-74496898D01*
X137562931Y-74589693D01*
X137800757Y-74637000D01*
X138043243Y-74637000D01*
X138281069Y-74589693D01*
X138505097Y-74496898D01*
X138706717Y-74362180D01*
X138878180Y-74190717D01*
X139012898Y-73989097D01*
X139105693Y-73765069D01*
X139153000Y-73527243D01*
X139153000Y-73284757D01*
X139105693Y-73046931D01*
X139012898Y-72822903D01*
X138878180Y-72621283D01*
X138706717Y-72449820D01*
X138505097Y-72315102D01*
X138281069Y-72222307D01*
X138043243Y-72175000D01*
X137800757Y-72175000D01*
X137562931Y-72222307D01*
X137338903Y-72315102D01*
X137137283Y-72449820D01*
X136965820Y-72621283D01*
X136831102Y-72822903D01*
X136799168Y-72900000D01*
X135693178Y-72900000D01*
X136956464Y-71636715D01*
X136965820Y-71650717D01*
X137137283Y-71822180D01*
X137338903Y-71956898D01*
X137562931Y-72049693D01*
X137800757Y-72097000D01*
X138043243Y-72097000D01*
X138281069Y-72049693D01*
X138505097Y-71956898D01*
X138706717Y-71822180D01*
X138878180Y-71650717D01*
X139012898Y-71449097D01*
X139105693Y-71225069D01*
X139153000Y-70987243D01*
X139153000Y-70744757D01*
X139105693Y-70506931D01*
X139012898Y-70282903D01*
X138878180Y-70081283D01*
X138706717Y-69909820D01*
X138505097Y-69775102D01*
X138281069Y-69682307D01*
X138043243Y-69635000D01*
X137800757Y-69635000D01*
X137562931Y-69682307D01*
X137338903Y-69775102D01*
X137137283Y-69909820D01*
X136965820Y-70081283D01*
X136831102Y-70282903D01*
X136774806Y-70418815D01*
X136729108Y-70443241D01*
X136652060Y-70506473D01*
X136636215Y-70525780D01*
X134100979Y-73061016D01*
X134061217Y-73001507D01*
X134126508Y-72981701D01*
X134192696Y-72946322D01*
X134250711Y-72898711D01*
X134298322Y-72840696D01*
X134333701Y-72774508D01*
X134355487Y-72702689D01*
X134362843Y-72628000D01*
X134362843Y-70628000D01*
X134355487Y-70553311D01*
X134333701Y-70481492D01*
X134298322Y-70415304D01*
X134250711Y-70357289D01*
X134192696Y-70309678D01*
X134126508Y-70274299D01*
X134054689Y-70252513D01*
X133980000Y-70245157D01*
X131819149Y-70245157D01*
X131163600Y-69589609D01*
X131163600Y-68484791D01*
X131425992Y-68222400D01*
X131684699Y-68222400D01*
X131785341Y-68323042D01*
X131913258Y-68408513D01*
X132055391Y-68467387D01*
X132206278Y-68497400D01*
X132360122Y-68497400D01*
X132511009Y-68467387D01*
X132653142Y-68408513D01*
X132781059Y-68323042D01*
X132889842Y-68214259D01*
X132896191Y-68204757D01*
X136691000Y-68204757D01*
X136691000Y-68447243D01*
X136738307Y-68685069D01*
X136831102Y-68909097D01*
X136965820Y-69110717D01*
X137137283Y-69282180D01*
X137338903Y-69416898D01*
X137562931Y-69509693D01*
X137800757Y-69557000D01*
X138043243Y-69557000D01*
X138281069Y-69509693D01*
X138505097Y-69416898D01*
X138706717Y-69282180D01*
X138878180Y-69110717D01*
X139012898Y-68909097D01*
X139105693Y-68685069D01*
X139153000Y-68447243D01*
X139153000Y-68204757D01*
X139105693Y-67966931D01*
X139012898Y-67742903D01*
X138878180Y-67541283D01*
X138706717Y-67369820D01*
X138505097Y-67235102D01*
X138281069Y-67142307D01*
X138043243Y-67095000D01*
X137800757Y-67095000D01*
X137562931Y-67142307D01*
X137338903Y-67235102D01*
X137137283Y-67369820D01*
X136965820Y-67541283D01*
X136831102Y-67742903D01*
X136738307Y-67966931D01*
X136691000Y-68204757D01*
X132896191Y-68204757D01*
X132975313Y-68086342D01*
X133034187Y-67944209D01*
X133064200Y-67793322D01*
X133064200Y-67639478D01*
X133034187Y-67488591D01*
X132975313Y-67346458D01*
X132889842Y-67218541D01*
X132781059Y-67109758D01*
X132653142Y-67024287D01*
X132586000Y-66996476D01*
X132586000Y-66710843D01*
X132830000Y-66710843D01*
X132904689Y-66703487D01*
X132976508Y-66681701D01*
X133042696Y-66646322D01*
X133068715Y-66624969D01*
X133099463Y-66682494D01*
X133178815Y-66779185D01*
X133275506Y-66858537D01*
X133385820Y-66917502D01*
X133505518Y-66953812D01*
X133630000Y-66966072D01*
X134094250Y-66963000D01*
X134253000Y-66804250D01*
X134253000Y-65455000D01*
X134507000Y-65455000D01*
X134507000Y-66804250D01*
X134665750Y-66963000D01*
X135130000Y-66966072D01*
X135254482Y-66953812D01*
X135374180Y-66917502D01*
X135484494Y-66858537D01*
X135581185Y-66779185D01*
X135660537Y-66682494D01*
X135719502Y-66572180D01*
X135755812Y-66452482D01*
X135768072Y-66328000D01*
X135765000Y-65613750D01*
X135606250Y-65455000D01*
X134507000Y-65455000D01*
X134253000Y-65455000D01*
X134233000Y-65455000D01*
X134233000Y-65201000D01*
X134253000Y-65201000D01*
X134253000Y-63851750D01*
X134147218Y-63745968D01*
X134281750Y-63745000D01*
X134362150Y-63664600D01*
X134775082Y-63666832D01*
X134800359Y-63692109D01*
X134665750Y-63693000D01*
X134507000Y-63851750D01*
X134507000Y-65201000D01*
X135606250Y-65201000D01*
X135765000Y-65042250D01*
X135765456Y-64936000D01*
X136689157Y-64936000D01*
X136689157Y-66636000D01*
X136696513Y-66710689D01*
X136718299Y-66782508D01*
X136753678Y-66848696D01*
X136801289Y-66906711D01*
X136859304Y-66954322D01*
X136925492Y-66989701D01*
X136997311Y-67011487D01*
X137072000Y-67018843D01*
X138772000Y-67018843D01*
X138846689Y-67011487D01*
X138918508Y-66989701D01*
X138984696Y-66954322D01*
X139042711Y-66906711D01*
X139090322Y-66848696D01*
X139125701Y-66782508D01*
X139147487Y-66710689D01*
X139154843Y-66636000D01*
X139154843Y-64936000D01*
X139147487Y-64861311D01*
X139125701Y-64789492D01*
X139090322Y-64723304D01*
X139042711Y-64665289D01*
X138984696Y-64617678D01*
X138918508Y-64582299D01*
X138846689Y-64560513D01*
X138772000Y-64553157D01*
X137072000Y-64553157D01*
X136997311Y-64560513D01*
X136925492Y-64582299D01*
X136859304Y-64617678D01*
X136801289Y-64665289D01*
X136753678Y-64723304D01*
X136718299Y-64789492D01*
X136696513Y-64861311D01*
X136689157Y-64936000D01*
X135765456Y-64936000D01*
X135768072Y-64328000D01*
X135755812Y-64203518D01*
X135719502Y-64083820D01*
X135660537Y-63973506D01*
X135581185Y-63876815D01*
X135484494Y-63797463D01*
X135374651Y-63738750D01*
X135404482Y-63735812D01*
X135524180Y-63699502D01*
X135577188Y-63671168D01*
X136268247Y-63674904D01*
X136282030Y-63684113D01*
X136424163Y-63742987D01*
X136575050Y-63773000D01*
X136728894Y-63773000D01*
X136879781Y-63742987D01*
X137021914Y-63684113D01*
X137149831Y-63598642D01*
X137250473Y-63498000D01*
X137389154Y-63498000D01*
X137414000Y-63500447D01*
X137438846Y-63498000D01*
X137438854Y-63498000D01*
X137513193Y-63490678D01*
X137608575Y-63461745D01*
X137696479Y-63414759D01*
X137773527Y-63351527D01*
X137789376Y-63332215D01*
X138516220Y-62605372D01*
X138535527Y-62589527D01*
X138597640Y-62513843D01*
X138632250Y-62513843D01*
X138754492Y-62501803D01*
X138872037Y-62466146D01*
X138980366Y-62408243D01*
X139075318Y-62330318D01*
X139153243Y-62235366D01*
X139211146Y-62127037D01*
X139246803Y-62009492D01*
X139258843Y-61887250D01*
X139258843Y-61399750D01*
X139246803Y-61277508D01*
X139211146Y-61159963D01*
X139153243Y-61051634D01*
X139075318Y-60956682D01*
X138985845Y-60883254D01*
X139000482Y-60881812D01*
X139120180Y-60845502D01*
X139230494Y-60786537D01*
X139269000Y-60754936D01*
X139269000Y-63478833D01*
G37*
%TD.AperFunction*%
D22*
X139269001Y-58782065D02*
X139230494Y-58750463D01*
X139120180Y-58691498D01*
X139000482Y-58655188D01*
X138876000Y-58642928D01*
X138461750Y-58646000D01*
X138303000Y-58804750D01*
X138303000Y-59641500D01*
X138323000Y-59641500D01*
X138323000Y-59895500D01*
X138303000Y-59895500D01*
X138303000Y-59915500D01*
X138049000Y-59915500D01*
X138049000Y-59895500D01*
X138029000Y-59895500D01*
X138029000Y-59641500D01*
X138049000Y-59641500D01*
X138049000Y-58804750D01*
X137890250Y-58646000D01*
X137476000Y-58642928D01*
X137351518Y-58655188D01*
X137231820Y-58691498D01*
X137121506Y-58750463D01*
X137024815Y-58829815D01*
X136945463Y-58926506D01*
X136907073Y-58998327D01*
X136905812Y-58985518D01*
X136887776Y-58926060D01*
X136880594Y-58164802D01*
X136878160Y-58141224D01*
X136870933Y-58117399D01*
X136859197Y-58095443D01*
X136843403Y-58076197D01*
X136824157Y-58060403D01*
X136802201Y-58048667D01*
X136778376Y-58041440D01*
X136753600Y-58039000D01*
X127406400Y-58039000D01*
X127381624Y-58041440D01*
X127357799Y-58048667D01*
X127335843Y-58060403D01*
X127316597Y-58076197D01*
X127300803Y-58095443D01*
X127289067Y-58117399D01*
X127281840Y-58141224D01*
X127279400Y-58166000D01*
X127279400Y-58902405D01*
X127254188Y-58985518D01*
X127241928Y-59110000D01*
X127245000Y-59474250D01*
X127279400Y-59508650D01*
X127279400Y-60011350D01*
X127245000Y-60045750D01*
X127241928Y-60410000D01*
X127254188Y-60534482D01*
X127279400Y-60617595D01*
X127279400Y-63247066D01*
X127229391Y-63257013D01*
X127087258Y-63315887D01*
X126959341Y-63401358D01*
X126850558Y-63510141D01*
X126765087Y-63638058D01*
X126706213Y-63780191D01*
X126676200Y-63931078D01*
X126676200Y-64084922D01*
X126706213Y-64235809D01*
X126765087Y-64377942D01*
X126850558Y-64505859D01*
X126959341Y-64614642D01*
X127087258Y-64700113D01*
X127229391Y-64758987D01*
X127380278Y-64789000D01*
X127522609Y-64789000D01*
X128401828Y-65668220D01*
X128417673Y-65687527D01*
X128494721Y-65750759D01*
X128566502Y-65789127D01*
X128582625Y-65797745D01*
X128647157Y-65817320D01*
X128647157Y-66328000D01*
X128654513Y-66402689D01*
X128676299Y-66474508D01*
X128711678Y-66540696D01*
X128759289Y-66598711D01*
X128817304Y-66646322D01*
X128883492Y-66681701D01*
X128955311Y-66703487D01*
X129030000Y-66710843D01*
X130530000Y-66710843D01*
X130604689Y-66703487D01*
X130676508Y-66681701D01*
X130742696Y-66646322D01*
X130800711Y-66598711D01*
X130848322Y-66540696D01*
X130883701Y-66474508D01*
X130905487Y-66402689D01*
X130912843Y-66328000D01*
X130912843Y-64910748D01*
X130947157Y-64876434D01*
X130947157Y-66328000D01*
X130954513Y-66402689D01*
X130976299Y-66474508D01*
X131011678Y-66540696D01*
X131059289Y-66598711D01*
X131117304Y-66646322D01*
X131183492Y-66681701D01*
X131255311Y-66703487D01*
X131330000Y-66710843D01*
X131574001Y-66710843D01*
X131574001Y-67210400D01*
X131241254Y-67210400D01*
X131216400Y-67207952D01*
X131191546Y-67210400D01*
X131117207Y-67217722D01*
X131021825Y-67246655D01*
X130933921Y-67293641D01*
X130856873Y-67356873D01*
X130841028Y-67376180D01*
X130317380Y-67899829D01*
X130298074Y-67915673D01*
X130234842Y-67992721D01*
X130219381Y-68021647D01*
X130187855Y-68080626D01*
X130158922Y-68176008D01*
X130149153Y-68275200D01*
X130151601Y-68300056D01*
X130151600Y-69774353D01*
X130149153Y-69799200D01*
X130151600Y-69824046D01*
X130151600Y-69824053D01*
X130158922Y-69898392D01*
X130187855Y-69993774D01*
X130234841Y-70081679D01*
X130298073Y-70158727D01*
X130317385Y-70174576D01*
X130387966Y-70245157D01*
X130180000Y-70245157D01*
X130105311Y-70252513D01*
X130033492Y-70274299D01*
X129967304Y-70309678D01*
X129909289Y-70357289D01*
X129861678Y-70415304D01*
X129826299Y-70481492D01*
X129804513Y-70553311D01*
X129797157Y-70628000D01*
X129797157Y-72628000D01*
X129804513Y-72702689D01*
X129826299Y-72774508D01*
X129830255Y-72781909D01*
X129804141Y-72799358D01*
X129695358Y-72908141D01*
X129609887Y-73036058D01*
X129551013Y-73178191D01*
X129545832Y-73204240D01*
X127469000Y-71127409D01*
X127469000Y-70998757D01*
X127421693Y-70760931D01*
X127328898Y-70536903D01*
X127194180Y-70335283D01*
X127022717Y-70163820D01*
X126821097Y-70029102D01*
X126597069Y-69936307D01*
X126359243Y-69889000D01*
X126116757Y-69889000D01*
X125878931Y-69936307D01*
X125654903Y-70029102D01*
X125453283Y-70163820D01*
X125281820Y-70335283D01*
X125147102Y-70536903D01*
X125054307Y-70760931D01*
X125007000Y-70998757D01*
X125007000Y-71241243D01*
X125054307Y-71479069D01*
X125147102Y-71703097D01*
X125281820Y-71904717D01*
X125453283Y-72076180D01*
X125654903Y-72210898D01*
X125878931Y-72303693D01*
X126116757Y-72351000D01*
X126359243Y-72351000D01*
X126597069Y-72303693D01*
X126821097Y-72210898D01*
X127001060Y-72090651D01*
X128064409Y-73154000D01*
X127360832Y-73154000D01*
X127328898Y-73076903D01*
X127194180Y-72875283D01*
X127022717Y-72703820D01*
X126821097Y-72569102D01*
X126597069Y-72476307D01*
X126359243Y-72429000D01*
X126116757Y-72429000D01*
X125878931Y-72476307D01*
X125654903Y-72569102D01*
X125453283Y-72703820D01*
X125281820Y-72875283D01*
X125147102Y-73076903D01*
X125054307Y-73300931D01*
X125007000Y-73538757D01*
X125007000Y-73781243D01*
X125054307Y-74019069D01*
X125147102Y-74243097D01*
X125281820Y-74444717D01*
X125453283Y-74616180D01*
X125654903Y-74750898D01*
X125878931Y-74843693D01*
X126116757Y-74891000D01*
X126359243Y-74891000D01*
X126597069Y-74843693D01*
X126821097Y-74750898D01*
X127022717Y-74616180D01*
X127194180Y-74444717D01*
X127328898Y-74243097D01*
X127360832Y-74166000D01*
X128314409Y-74166000D01*
X129299001Y-75150593D01*
X129299001Y-75243409D01*
X129153376Y-75097785D01*
X129137527Y-75078473D01*
X129060479Y-75015241D01*
X128972575Y-74968255D01*
X128877193Y-74939322D01*
X128802854Y-74932000D01*
X128802846Y-74932000D01*
X128778000Y-74929553D01*
X128753154Y-74932000D01*
X127024854Y-74932000D01*
X127000000Y-74929552D01*
X126975146Y-74932000D01*
X126900807Y-74939322D01*
X126805425Y-74968255D01*
X126717521Y-75015241D01*
X126676255Y-75049107D01*
X126597069Y-75016307D01*
X126359243Y-74969000D01*
X126116757Y-74969000D01*
X125878931Y-75016307D01*
X125654903Y-75109102D01*
X125453283Y-75243820D01*
X125281820Y-75415283D01*
X125147102Y-75616903D01*
X125054307Y-75840931D01*
X125007000Y-76078757D01*
X125007000Y-76321243D01*
X125054307Y-76559069D01*
X125147102Y-76783097D01*
X125281820Y-76984717D01*
X125453283Y-77156180D01*
X125654903Y-77290898D01*
X125878931Y-77383693D01*
X126116757Y-77431000D01*
X126359243Y-77431000D01*
X126597069Y-77383693D01*
X126821097Y-77290898D01*
X127022717Y-77156180D01*
X127194180Y-76984717D01*
X127328898Y-76783097D01*
X127421693Y-76559069D01*
X127469000Y-76321243D01*
X127469000Y-76078757D01*
X127442195Y-75944000D01*
X128447800Y-75944000D01*
X128447800Y-78234000D01*
X127360832Y-78234000D01*
X127328898Y-78156903D01*
X127194180Y-77955283D01*
X127022717Y-77783820D01*
X126821097Y-77649102D01*
X126597069Y-77556307D01*
X126359243Y-77509000D01*
X126116757Y-77509000D01*
X125878931Y-77556307D01*
X125654903Y-77649102D01*
X125453283Y-77783820D01*
X125281820Y-77955283D01*
X125147102Y-78156903D01*
X125054307Y-78380931D01*
X125007000Y-78618757D01*
X125007000Y-78861243D01*
X125054307Y-79099069D01*
X125147102Y-79323097D01*
X125281820Y-79524717D01*
X125453283Y-79696180D01*
X125654903Y-79830898D01*
X125878931Y-79923693D01*
X126116757Y-79971000D01*
X126359243Y-79971000D01*
X126597069Y-79923693D01*
X126821097Y-79830898D01*
X127022717Y-79696180D01*
X127194180Y-79524717D01*
X127328898Y-79323097D01*
X127360832Y-79246000D01*
X128314409Y-79246000D01*
X128447800Y-79379391D01*
X128447800Y-80774000D01*
X127360832Y-80774000D01*
X127328898Y-80696903D01*
X127194180Y-80495283D01*
X127022717Y-80323820D01*
X126821097Y-80189102D01*
X126597069Y-80096307D01*
X126359243Y-80049000D01*
X126116757Y-80049000D01*
X125878931Y-80096307D01*
X125654903Y-80189102D01*
X125453283Y-80323820D01*
X125281820Y-80495283D01*
X125147102Y-80696903D01*
X125054307Y-80920931D01*
X125007000Y-81158757D01*
X125007000Y-81401243D01*
X125054307Y-81639069D01*
X125147102Y-81863097D01*
X125281820Y-82064717D01*
X125453283Y-82236180D01*
X125654903Y-82370898D01*
X125878931Y-82463693D01*
X126116757Y-82511000D01*
X126359243Y-82511000D01*
X126597069Y-82463693D01*
X126821097Y-82370898D01*
X127022717Y-82236180D01*
X127194180Y-82064717D01*
X127328898Y-81863097D01*
X127360832Y-81786000D01*
X128447800Y-81786000D01*
X128447800Y-83655798D01*
X127460455Y-83655798D01*
X127421693Y-83460931D01*
X127328898Y-83236903D01*
X127194180Y-83035283D01*
X127022717Y-82863820D01*
X126821097Y-82729102D01*
X126597069Y-82636307D01*
X126359243Y-82589000D01*
X126116757Y-82589000D01*
X125878931Y-82636307D01*
X125654903Y-82729102D01*
X125453283Y-82863820D01*
X125281820Y-83035283D01*
X125147102Y-83236903D01*
X125054307Y-83460931D01*
X125007000Y-83698757D01*
X125007000Y-83941243D01*
X125054307Y-84179069D01*
X125147102Y-84403097D01*
X125281820Y-84604717D01*
X125453283Y-84776180D01*
X125654903Y-84910898D01*
X125878931Y-85003693D01*
X126116757Y-85051000D01*
X126359243Y-85051000D01*
X126597069Y-85003693D01*
X126821097Y-84910898D01*
X127022717Y-84776180D01*
X127131099Y-84667798D01*
X129761556Y-84667798D01*
X129786402Y-84670245D01*
X129811248Y-84667798D01*
X129811256Y-84667798D01*
X129885595Y-84660476D01*
X129980977Y-84631543D01*
X130068881Y-84584557D01*
X130145929Y-84521325D01*
X130161778Y-84502013D01*
X130599001Y-84064791D01*
X130599001Y-85093407D01*
X129838409Y-85854000D01*
X127360832Y-85854000D01*
X127328898Y-85776903D01*
X127194180Y-85575283D01*
X127022717Y-85403820D01*
X126821097Y-85269102D01*
X126597069Y-85176307D01*
X126359243Y-85129000D01*
X126116757Y-85129000D01*
X125878931Y-85176307D01*
X125654903Y-85269102D01*
X125453283Y-85403820D01*
X125281820Y-85575283D01*
X125147102Y-85776903D01*
X125054307Y-86000931D01*
X125007000Y-86238757D01*
X125007000Y-86481243D01*
X125054307Y-86719069D01*
X125147102Y-86943097D01*
X125281820Y-87144717D01*
X125453283Y-87316180D01*
X125654903Y-87450898D01*
X125769168Y-87498228D01*
X125606748Y-87555843D01*
X125356645Y-87704822D01*
X125140412Y-87899731D01*
X124966359Y-88133080D01*
X124891000Y-88291295D01*
X124891000Y-68458757D01*
X125007000Y-68458757D01*
X125007000Y-68701243D01*
X125054307Y-68939069D01*
X125147102Y-69163097D01*
X125281820Y-69364717D01*
X125453283Y-69536180D01*
X125654903Y-69670898D01*
X125878931Y-69763693D01*
X126116757Y-69811000D01*
X126359243Y-69811000D01*
X126597069Y-69763693D01*
X126821097Y-69670898D01*
X127022717Y-69536180D01*
X127194180Y-69364717D01*
X127328898Y-69163097D01*
X127421693Y-68939069D01*
X127469000Y-68701243D01*
X127469000Y-68458757D01*
X127421693Y-68220931D01*
X127328898Y-67996903D01*
X127194180Y-67795283D01*
X127022717Y-67623820D01*
X126821097Y-67489102D01*
X126597069Y-67396307D01*
X126359243Y-67349000D01*
X126116757Y-67349000D01*
X125878931Y-67396307D01*
X125654903Y-67489102D01*
X125453283Y-67623820D01*
X125281820Y-67795283D01*
X125147102Y-67996903D01*
X125054307Y-68220931D01*
X125007000Y-68458757D01*
X124891000Y-68458757D01*
X124891000Y-65190000D01*
X125005157Y-65190000D01*
X125005157Y-66890000D01*
X125012513Y-66964689D01*
X125034299Y-67036508D01*
X125069678Y-67102696D01*
X125117289Y-67160711D01*
X125175304Y-67208322D01*
X125241492Y-67243701D01*
X125313311Y-67265487D01*
X125388000Y-67272843D01*
X127088000Y-67272843D01*
X127162689Y-67265487D01*
X127234508Y-67243701D01*
X127300696Y-67208322D01*
X127358711Y-67160711D01*
X127406322Y-67102696D01*
X127441701Y-67036508D01*
X127463487Y-66964689D01*
X127470843Y-66890000D01*
X127470843Y-65190000D01*
X127463487Y-65115311D01*
X127441701Y-65043492D01*
X127406322Y-64977304D01*
X127358711Y-64919289D01*
X127300696Y-64871678D01*
X127234508Y-64836299D01*
X127162689Y-64814513D01*
X127088000Y-64807157D01*
X125388000Y-64807157D01*
X125313311Y-64814513D01*
X125241492Y-64836299D01*
X125175304Y-64871678D01*
X125117289Y-64919289D01*
X125069678Y-64977304D01*
X125034299Y-65043492D01*
X125012513Y-65115311D01*
X125005157Y-65190000D01*
X124891000Y-65190000D01*
X124891000Y-58031000D01*
X139269001Y-58031000D01*
X139269001Y-58782065D01*
%TA.AperFunction,Conductor*%
D23*
G36*
X139269001Y-58782065D02*
G01*
X139230494Y-58750463D01*
X139120180Y-58691498D01*
X139000482Y-58655188D01*
X138876000Y-58642928D01*
X138461750Y-58646000D01*
X138303000Y-58804750D01*
X138303000Y-59641500D01*
X138323000Y-59641500D01*
X138323000Y-59895500D01*
X138303000Y-59895500D01*
X138303000Y-59915500D01*
X138049000Y-59915500D01*
X138049000Y-59895500D01*
X138029000Y-59895500D01*
X138029000Y-59641500D01*
X138049000Y-59641500D01*
X138049000Y-58804750D01*
X137890250Y-58646000D01*
X137476000Y-58642928D01*
X137351518Y-58655188D01*
X137231820Y-58691498D01*
X137121506Y-58750463D01*
X137024815Y-58829815D01*
X136945463Y-58926506D01*
X136907073Y-58998327D01*
X136905812Y-58985518D01*
X136887776Y-58926060D01*
X136880594Y-58164802D01*
X136878160Y-58141224D01*
X136870933Y-58117399D01*
X136859197Y-58095443D01*
X136843403Y-58076197D01*
X136824157Y-58060403D01*
X136802201Y-58048667D01*
X136778376Y-58041440D01*
X136753600Y-58039000D01*
X127406400Y-58039000D01*
X127381624Y-58041440D01*
X127357799Y-58048667D01*
X127335843Y-58060403D01*
X127316597Y-58076197D01*
X127300803Y-58095443D01*
X127289067Y-58117399D01*
X127281840Y-58141224D01*
X127279400Y-58166000D01*
X127279400Y-58902405D01*
X127254188Y-58985518D01*
X127241928Y-59110000D01*
X127245000Y-59474250D01*
X127279400Y-59508650D01*
X127279400Y-60011350D01*
X127245000Y-60045750D01*
X127241928Y-60410000D01*
X127254188Y-60534482D01*
X127279400Y-60617595D01*
X127279400Y-63247066D01*
X127229391Y-63257013D01*
X127087258Y-63315887D01*
X126959341Y-63401358D01*
X126850558Y-63510141D01*
X126765087Y-63638058D01*
X126706213Y-63780191D01*
X126676200Y-63931078D01*
X126676200Y-64084922D01*
X126706213Y-64235809D01*
X126765087Y-64377942D01*
X126850558Y-64505859D01*
X126959341Y-64614642D01*
X127087258Y-64700113D01*
X127229391Y-64758987D01*
X127380278Y-64789000D01*
X127522609Y-64789000D01*
X128401828Y-65668220D01*
X128417673Y-65687527D01*
X128494721Y-65750759D01*
X128566502Y-65789127D01*
X128582625Y-65797745D01*
X128647157Y-65817320D01*
X128647157Y-66328000D01*
X128654513Y-66402689D01*
X128676299Y-66474508D01*
X128711678Y-66540696D01*
X128759289Y-66598711D01*
X128817304Y-66646322D01*
X128883492Y-66681701D01*
X128955311Y-66703487D01*
X129030000Y-66710843D01*
X130530000Y-66710843D01*
X130604689Y-66703487D01*
X130676508Y-66681701D01*
X130742696Y-66646322D01*
X130800711Y-66598711D01*
X130848322Y-66540696D01*
X130883701Y-66474508D01*
X130905487Y-66402689D01*
X130912843Y-66328000D01*
X130912843Y-64910748D01*
X130947157Y-64876434D01*
X130947157Y-66328000D01*
X130954513Y-66402689D01*
X130976299Y-66474508D01*
X131011678Y-66540696D01*
X131059289Y-66598711D01*
X131117304Y-66646322D01*
X131183492Y-66681701D01*
X131255311Y-66703487D01*
X131330000Y-66710843D01*
X131574001Y-66710843D01*
X131574001Y-67210400D01*
X131241254Y-67210400D01*
X131216400Y-67207952D01*
X131191546Y-67210400D01*
X131117207Y-67217722D01*
X131021825Y-67246655D01*
X130933921Y-67293641D01*
X130856873Y-67356873D01*
X130841028Y-67376180D01*
X130317380Y-67899829D01*
X130298074Y-67915673D01*
X130234842Y-67992721D01*
X130219381Y-68021647D01*
X130187855Y-68080626D01*
X130158922Y-68176008D01*
X130149153Y-68275200D01*
X130151601Y-68300056D01*
X130151600Y-69774353D01*
X130149153Y-69799200D01*
X130151600Y-69824046D01*
X130151600Y-69824053D01*
X130158922Y-69898392D01*
X130187855Y-69993774D01*
X130234841Y-70081679D01*
X130298073Y-70158727D01*
X130317385Y-70174576D01*
X130387966Y-70245157D01*
X130180000Y-70245157D01*
X130105311Y-70252513D01*
X130033492Y-70274299D01*
X129967304Y-70309678D01*
X129909289Y-70357289D01*
X129861678Y-70415304D01*
X129826299Y-70481492D01*
X129804513Y-70553311D01*
X129797157Y-70628000D01*
X129797157Y-72628000D01*
X129804513Y-72702689D01*
X129826299Y-72774508D01*
X129830255Y-72781909D01*
X129804141Y-72799358D01*
X129695358Y-72908141D01*
X129609887Y-73036058D01*
X129551013Y-73178191D01*
X129545832Y-73204240D01*
X127469000Y-71127409D01*
X127469000Y-70998757D01*
X127421693Y-70760931D01*
X127328898Y-70536903D01*
X127194180Y-70335283D01*
X127022717Y-70163820D01*
X126821097Y-70029102D01*
X126597069Y-69936307D01*
X126359243Y-69889000D01*
X126116757Y-69889000D01*
X125878931Y-69936307D01*
X125654903Y-70029102D01*
X125453283Y-70163820D01*
X125281820Y-70335283D01*
X125147102Y-70536903D01*
X125054307Y-70760931D01*
X125007000Y-70998757D01*
X125007000Y-71241243D01*
X125054307Y-71479069D01*
X125147102Y-71703097D01*
X125281820Y-71904717D01*
X125453283Y-72076180D01*
X125654903Y-72210898D01*
X125878931Y-72303693D01*
X126116757Y-72351000D01*
X126359243Y-72351000D01*
X126597069Y-72303693D01*
X126821097Y-72210898D01*
X127001060Y-72090651D01*
X128064409Y-73154000D01*
X127360832Y-73154000D01*
X127328898Y-73076903D01*
X127194180Y-72875283D01*
X127022717Y-72703820D01*
X126821097Y-72569102D01*
X126597069Y-72476307D01*
X126359243Y-72429000D01*
X126116757Y-72429000D01*
X125878931Y-72476307D01*
X125654903Y-72569102D01*
X125453283Y-72703820D01*
X125281820Y-72875283D01*
X125147102Y-73076903D01*
X125054307Y-73300931D01*
X125007000Y-73538757D01*
X125007000Y-73781243D01*
X125054307Y-74019069D01*
X125147102Y-74243097D01*
X125281820Y-74444717D01*
X125453283Y-74616180D01*
X125654903Y-74750898D01*
X125878931Y-74843693D01*
X126116757Y-74891000D01*
X126359243Y-74891000D01*
X126597069Y-74843693D01*
X126821097Y-74750898D01*
X127022717Y-74616180D01*
X127194180Y-74444717D01*
X127328898Y-74243097D01*
X127360832Y-74166000D01*
X128314409Y-74166000D01*
X129299001Y-75150593D01*
X129299001Y-75243409D01*
X129153376Y-75097785D01*
X129137527Y-75078473D01*
X129060479Y-75015241D01*
X128972575Y-74968255D01*
X128877193Y-74939322D01*
X128802854Y-74932000D01*
X128802846Y-74932000D01*
X128778000Y-74929553D01*
X128753154Y-74932000D01*
X127024854Y-74932000D01*
X127000000Y-74929552D01*
X126975146Y-74932000D01*
X126900807Y-74939322D01*
X126805425Y-74968255D01*
X126717521Y-75015241D01*
X126676255Y-75049107D01*
X126597069Y-75016307D01*
X126359243Y-74969000D01*
X126116757Y-74969000D01*
X125878931Y-75016307D01*
X125654903Y-75109102D01*
X125453283Y-75243820D01*
X125281820Y-75415283D01*
X125147102Y-75616903D01*
X125054307Y-75840931D01*
X125007000Y-76078757D01*
X125007000Y-76321243D01*
X125054307Y-76559069D01*
X125147102Y-76783097D01*
X125281820Y-76984717D01*
X125453283Y-77156180D01*
X125654903Y-77290898D01*
X125878931Y-77383693D01*
X126116757Y-77431000D01*
X126359243Y-77431000D01*
X126597069Y-77383693D01*
X126821097Y-77290898D01*
X127022717Y-77156180D01*
X127194180Y-76984717D01*
X127328898Y-76783097D01*
X127421693Y-76559069D01*
X127469000Y-76321243D01*
X127469000Y-76078757D01*
X127442195Y-75944000D01*
X128447800Y-75944000D01*
X128447800Y-78234000D01*
X127360832Y-78234000D01*
X127328898Y-78156903D01*
X127194180Y-77955283D01*
X127022717Y-77783820D01*
X126821097Y-77649102D01*
X126597069Y-77556307D01*
X126359243Y-77509000D01*
X126116757Y-77509000D01*
X125878931Y-77556307D01*
X125654903Y-77649102D01*
X125453283Y-77783820D01*
X125281820Y-77955283D01*
X125147102Y-78156903D01*
X125054307Y-78380931D01*
X125007000Y-78618757D01*
X125007000Y-78861243D01*
X125054307Y-79099069D01*
X125147102Y-79323097D01*
X125281820Y-79524717D01*
X125453283Y-79696180D01*
X125654903Y-79830898D01*
X125878931Y-79923693D01*
X126116757Y-79971000D01*
X126359243Y-79971000D01*
X126597069Y-79923693D01*
X126821097Y-79830898D01*
X127022717Y-79696180D01*
X127194180Y-79524717D01*
X127328898Y-79323097D01*
X127360832Y-79246000D01*
X128314409Y-79246000D01*
X128447800Y-79379391D01*
X128447800Y-80774000D01*
X127360832Y-80774000D01*
X127328898Y-80696903D01*
X127194180Y-80495283D01*
X127022717Y-80323820D01*
X126821097Y-80189102D01*
X126597069Y-80096307D01*
X126359243Y-80049000D01*
X126116757Y-80049000D01*
X125878931Y-80096307D01*
X125654903Y-80189102D01*
X125453283Y-80323820D01*
X125281820Y-80495283D01*
X125147102Y-80696903D01*
X125054307Y-80920931D01*
X125007000Y-81158757D01*
X125007000Y-81401243D01*
X125054307Y-81639069D01*
X125147102Y-81863097D01*
X125281820Y-82064717D01*
X125453283Y-82236180D01*
X125654903Y-82370898D01*
X125878931Y-82463693D01*
X126116757Y-82511000D01*
X126359243Y-82511000D01*
X126597069Y-82463693D01*
X126821097Y-82370898D01*
X127022717Y-82236180D01*
X127194180Y-82064717D01*
X127328898Y-81863097D01*
X127360832Y-81786000D01*
X128447800Y-81786000D01*
X128447800Y-83655798D01*
X127460455Y-83655798D01*
X127421693Y-83460931D01*
X127328898Y-83236903D01*
X127194180Y-83035283D01*
X127022717Y-82863820D01*
X126821097Y-82729102D01*
X126597069Y-82636307D01*
X126359243Y-82589000D01*
X126116757Y-82589000D01*
X125878931Y-82636307D01*
X125654903Y-82729102D01*
X125453283Y-82863820D01*
X125281820Y-83035283D01*
X125147102Y-83236903D01*
X125054307Y-83460931D01*
X125007000Y-83698757D01*
X125007000Y-83941243D01*
X125054307Y-84179069D01*
X125147102Y-84403097D01*
X125281820Y-84604717D01*
X125453283Y-84776180D01*
X125654903Y-84910898D01*
X125878931Y-85003693D01*
X126116757Y-85051000D01*
X126359243Y-85051000D01*
X126597069Y-85003693D01*
X126821097Y-84910898D01*
X127022717Y-84776180D01*
X127131099Y-84667798D01*
X129761556Y-84667798D01*
X129786402Y-84670245D01*
X129811248Y-84667798D01*
X129811256Y-84667798D01*
X129885595Y-84660476D01*
X129980977Y-84631543D01*
X130068881Y-84584557D01*
X130145929Y-84521325D01*
X130161778Y-84502013D01*
X130599001Y-84064791D01*
X130599001Y-85093407D01*
X129838409Y-85854000D01*
X127360832Y-85854000D01*
X127328898Y-85776903D01*
X127194180Y-85575283D01*
X127022717Y-85403820D01*
X126821097Y-85269102D01*
X126597069Y-85176307D01*
X126359243Y-85129000D01*
X126116757Y-85129000D01*
X125878931Y-85176307D01*
X125654903Y-85269102D01*
X125453283Y-85403820D01*
X125281820Y-85575283D01*
X125147102Y-85776903D01*
X125054307Y-86000931D01*
X125007000Y-86238757D01*
X125007000Y-86481243D01*
X125054307Y-86719069D01*
X125147102Y-86943097D01*
X125281820Y-87144717D01*
X125453283Y-87316180D01*
X125654903Y-87450898D01*
X125769168Y-87498228D01*
X125606748Y-87555843D01*
X125356645Y-87704822D01*
X125140412Y-87899731D01*
X124966359Y-88133080D01*
X124891000Y-88291295D01*
X124891000Y-68458757D01*
X125007000Y-68458757D01*
X125007000Y-68701243D01*
X125054307Y-68939069D01*
X125147102Y-69163097D01*
X125281820Y-69364717D01*
X125453283Y-69536180D01*
X125654903Y-69670898D01*
X125878931Y-69763693D01*
X126116757Y-69811000D01*
X126359243Y-69811000D01*
X126597069Y-69763693D01*
X126821097Y-69670898D01*
X127022717Y-69536180D01*
X127194180Y-69364717D01*
X127328898Y-69163097D01*
X127421693Y-68939069D01*
X127469000Y-68701243D01*
X127469000Y-68458757D01*
X127421693Y-68220931D01*
X127328898Y-67996903D01*
X127194180Y-67795283D01*
X127022717Y-67623820D01*
X126821097Y-67489102D01*
X126597069Y-67396307D01*
X126359243Y-67349000D01*
X126116757Y-67349000D01*
X125878931Y-67396307D01*
X125654903Y-67489102D01*
X125453283Y-67623820D01*
X125281820Y-67795283D01*
X125147102Y-67996903D01*
X125054307Y-68220931D01*
X125007000Y-68458757D01*
X124891000Y-68458757D01*
X124891000Y-65190000D01*
X125005157Y-65190000D01*
X125005157Y-66890000D01*
X125012513Y-66964689D01*
X125034299Y-67036508D01*
X125069678Y-67102696D01*
X125117289Y-67160711D01*
X125175304Y-67208322D01*
X125241492Y-67243701D01*
X125313311Y-67265487D01*
X125388000Y-67272843D01*
X127088000Y-67272843D01*
X127162689Y-67265487D01*
X127234508Y-67243701D01*
X127300696Y-67208322D01*
X127358711Y-67160711D01*
X127406322Y-67102696D01*
X127441701Y-67036508D01*
X127463487Y-66964689D01*
X127470843Y-66890000D01*
X127470843Y-65190000D01*
X127463487Y-65115311D01*
X127441701Y-65043492D01*
X127406322Y-64977304D01*
X127358711Y-64919289D01*
X127300696Y-64871678D01*
X127234508Y-64836299D01*
X127162689Y-64814513D01*
X127088000Y-64807157D01*
X125388000Y-64807157D01*
X125313311Y-64814513D01*
X125241492Y-64836299D01*
X125175304Y-64871678D01*
X125117289Y-64919289D01*
X125069678Y-64977304D01*
X125034299Y-65043492D01*
X125012513Y-65115311D01*
X125005157Y-65190000D01*
X124891000Y-65190000D01*
X124891000Y-58031000D01*
X139269001Y-58031000D01*
X139269001Y-58782065D01*
G37*
%TD.AperFunction*%
D22*
X128516324Y-63633001D02*
X128525506Y-63640537D01*
X128635820Y-63699502D01*
X128755518Y-63735812D01*
X128880000Y-63748072D01*
X129306750Y-63745000D01*
X129413897Y-63637853D01*
X129773044Y-63639794D01*
X129878250Y-63745000D01*
X130305000Y-63748072D01*
X130429482Y-63735812D01*
X130432086Y-63735022D01*
X130523250Y-63745000D01*
X130591218Y-63677032D01*
X130651995Y-63644545D01*
X130652998Y-63644550D01*
X130652998Y-63739410D01*
X130447251Y-63945157D01*
X129030000Y-63945157D01*
X128955311Y-63952513D01*
X128883492Y-63974299D01*
X128817304Y-64009678D01*
X128759289Y-64057289D01*
X128711678Y-64115304D01*
X128676299Y-64181492D01*
X128654513Y-64253311D01*
X128647157Y-64328000D01*
X128647157Y-64482365D01*
X128238200Y-64073409D01*
X128238200Y-63931078D01*
X128208187Y-63780191D01*
X128149313Y-63638058D01*
X128144592Y-63630992D01*
X128516324Y-63633001D01*
%TA.AperFunction,Conductor*%
D23*
G36*
X128516324Y-63633001D02*
G01*
X128525506Y-63640537D01*
X128635820Y-63699502D01*
X128755518Y-63735812D01*
X128880000Y-63748072D01*
X129306750Y-63745000D01*
X129413897Y-63637853D01*
X129773044Y-63639794D01*
X129878250Y-63745000D01*
X130305000Y-63748072D01*
X130429482Y-63735812D01*
X130432086Y-63735022D01*
X130523250Y-63745000D01*
X130591218Y-63677032D01*
X130651995Y-63644545D01*
X130652998Y-63644550D01*
X130652998Y-63739410D01*
X130447251Y-63945157D01*
X129030000Y-63945157D01*
X128955311Y-63952513D01*
X128883492Y-63974299D01*
X128817304Y-64009678D01*
X128759289Y-64057289D01*
X128711678Y-64115304D01*
X128676299Y-64181492D01*
X128654513Y-64253311D01*
X128647157Y-64328000D01*
X128647157Y-64482365D01*
X128238200Y-64073409D01*
X128238200Y-63931078D01*
X128208187Y-63780191D01*
X128149313Y-63638058D01*
X128144592Y-63630992D01*
X128516324Y-63633001D01*
G37*
%TD.AperFunction*%
%TD*%
M02*
