%TF.GenerationSoftware,KiCad,Pcbnew,5.1.9-73d0e3b20d~88~ubuntu20.04.1*%
%TF.CreationDate,2021-07-12T22:59:01-04:00*%
%TF.ProjectId,stm32_breakout,73746d33-325f-4627-9265-616b6f75742e,rev?*%
%TF.SameCoordinates,Original*%
%TF.FileFunction,Soldermask,Top*%
%TF.FilePolarity,Negative*%
%FSLAX46Y46*%
G04 Gerber Fmt 4.6, Leading zero omitted, Abs format (unit mm)*
G04 Created by KiCad (PCBNEW 5.1.9-73d0e3b20d~88~ubuntu20.04.1) date 2021-07-12 22:59:01*
%MOMM*%
%LPD*%
G01*
G04 APERTURE LIST*
%ADD10R,1.700000X1.700000*%
%ADD11O,1.700000X1.700000*%
%ADD12R,0.650000X1.220000*%
%ADD13R,0.450000X1.380000*%
%ADD14R,1.425000X1.550000*%
%ADD15R,1.650000X1.300000*%
%ADD16R,1.800000X1.900000*%
%ADD17R,1.000000X1.900000*%
G04 APERTURE END LIST*
D10*
%TO.C,J3*%
X129540000Y-69850000D03*
D11*
X129540000Y-72390000D03*
X129540000Y-74930000D03*
X129540000Y-77470000D03*
X129540000Y-80010000D03*
X129540000Y-82550000D03*
X129540000Y-85090000D03*
X129540000Y-87630000D03*
X129540000Y-90170000D03*
X129540000Y-92710000D03*
%TD*%
D12*
%TO.C,U1*%
X138110000Y-72245000D03*
X136210000Y-72245000D03*
X136210000Y-69625000D03*
X137160000Y-69625000D03*
X138110000Y-69625000D03*
%TD*%
%TO.C,C1*%
G36*
G01*
X133825000Y-71120000D02*
X132875000Y-71120000D01*
G75*
G02*
X132625000Y-70870000I0J250000D01*
G01*
X132625000Y-70370000D01*
G75*
G02*
X132875000Y-70120000I250000J0D01*
G01*
X133825000Y-70120000D01*
G75*
G02*
X134075000Y-70370000I0J-250000D01*
G01*
X134075000Y-70870000D01*
G75*
G02*
X133825000Y-71120000I-250000J0D01*
G01*
G37*
G36*
G01*
X133825000Y-73020000D02*
X132875000Y-73020000D01*
G75*
G02*
X132625000Y-72770000I0J250000D01*
G01*
X132625000Y-72270000D01*
G75*
G02*
X132875000Y-72020000I250000J0D01*
G01*
X133825000Y-72020000D01*
G75*
G02*
X134075000Y-72270000I0J-250000D01*
G01*
X134075000Y-72770000D01*
G75*
G02*
X133825000Y-73020000I-250000J0D01*
G01*
G37*
%TD*%
%TO.C,D1*%
G36*
G01*
X142418750Y-63272000D02*
X143331250Y-63272000D01*
G75*
G02*
X143575000Y-63515750I0J-243750D01*
G01*
X143575000Y-64003250D01*
G75*
G02*
X143331250Y-64247000I-243750J0D01*
G01*
X142418750Y-64247000D01*
G75*
G02*
X142175000Y-64003250I0J243750D01*
G01*
X142175000Y-63515750D01*
G75*
G02*
X142418750Y-63272000I243750J0D01*
G01*
G37*
G36*
G01*
X142418750Y-65147000D02*
X143331250Y-65147000D01*
G75*
G02*
X143575000Y-65390750I0J-243750D01*
G01*
X143575000Y-65878250D01*
G75*
G02*
X143331250Y-66122000I-243750J0D01*
G01*
X142418750Y-66122000D01*
G75*
G02*
X142175000Y-65878250I0J243750D01*
G01*
X142175000Y-65390750D01*
G75*
G02*
X142418750Y-65147000I243750J0D01*
G01*
G37*
%TD*%
D13*
%TO.C,J1*%
X137190000Y-66230000D03*
X136540000Y-66230000D03*
X135890000Y-66230000D03*
X135240000Y-66230000D03*
X134590000Y-66230000D03*
D14*
X138377500Y-66145000D03*
X133402500Y-66145000D03*
D15*
X139265000Y-63570000D03*
X132515000Y-63570000D03*
D16*
X137040000Y-63570000D03*
D17*
X134340000Y-63570000D03*
%TD*%
D11*
%TO.C,J2*%
X142240000Y-92710000D03*
X142240000Y-90170000D03*
X142240000Y-87630000D03*
X142240000Y-85090000D03*
X142240000Y-82550000D03*
X142240000Y-80010000D03*
X142240000Y-77470000D03*
X142240000Y-74930000D03*
X142240000Y-72390000D03*
D10*
X142240000Y-69850000D03*
%TD*%
%TO.C,U2*%
G36*
G01*
X138715000Y-79966000D02*
X138915000Y-79966000D01*
G75*
G02*
X139015000Y-80066000I0J-100000D01*
G01*
X139015000Y-81341000D01*
G75*
G02*
X138915000Y-81441000I-100000J0D01*
G01*
X138715000Y-81441000D01*
G75*
G02*
X138615000Y-81341000I0J100000D01*
G01*
X138615000Y-80066000D01*
G75*
G02*
X138715000Y-79966000I100000J0D01*
G01*
G37*
G36*
G01*
X138065000Y-79966000D02*
X138265000Y-79966000D01*
G75*
G02*
X138365000Y-80066000I0J-100000D01*
G01*
X138365000Y-81341000D01*
G75*
G02*
X138265000Y-81441000I-100000J0D01*
G01*
X138065000Y-81441000D01*
G75*
G02*
X137965000Y-81341000I0J100000D01*
G01*
X137965000Y-80066000D01*
G75*
G02*
X138065000Y-79966000I100000J0D01*
G01*
G37*
G36*
G01*
X137415000Y-79966000D02*
X137615000Y-79966000D01*
G75*
G02*
X137715000Y-80066000I0J-100000D01*
G01*
X137715000Y-81341000D01*
G75*
G02*
X137615000Y-81441000I-100000J0D01*
G01*
X137415000Y-81441000D01*
G75*
G02*
X137315000Y-81341000I0J100000D01*
G01*
X137315000Y-80066000D01*
G75*
G02*
X137415000Y-79966000I100000J0D01*
G01*
G37*
G36*
G01*
X136765000Y-79966000D02*
X136965000Y-79966000D01*
G75*
G02*
X137065000Y-80066000I0J-100000D01*
G01*
X137065000Y-81341000D01*
G75*
G02*
X136965000Y-81441000I-100000J0D01*
G01*
X136765000Y-81441000D01*
G75*
G02*
X136665000Y-81341000I0J100000D01*
G01*
X136665000Y-80066000D01*
G75*
G02*
X136765000Y-79966000I100000J0D01*
G01*
G37*
G36*
G01*
X136115000Y-79966000D02*
X136315000Y-79966000D01*
G75*
G02*
X136415000Y-80066000I0J-100000D01*
G01*
X136415000Y-81341000D01*
G75*
G02*
X136315000Y-81441000I-100000J0D01*
G01*
X136115000Y-81441000D01*
G75*
G02*
X136015000Y-81341000I0J100000D01*
G01*
X136015000Y-80066000D01*
G75*
G02*
X136115000Y-79966000I100000J0D01*
G01*
G37*
G36*
G01*
X135465000Y-79966000D02*
X135665000Y-79966000D01*
G75*
G02*
X135765000Y-80066000I0J-100000D01*
G01*
X135765000Y-81341000D01*
G75*
G02*
X135665000Y-81441000I-100000J0D01*
G01*
X135465000Y-81441000D01*
G75*
G02*
X135365000Y-81341000I0J100000D01*
G01*
X135365000Y-80066000D01*
G75*
G02*
X135465000Y-79966000I100000J0D01*
G01*
G37*
G36*
G01*
X134815000Y-79966000D02*
X135015000Y-79966000D01*
G75*
G02*
X135115000Y-80066000I0J-100000D01*
G01*
X135115000Y-81341000D01*
G75*
G02*
X135015000Y-81441000I-100000J0D01*
G01*
X134815000Y-81441000D01*
G75*
G02*
X134715000Y-81341000I0J100000D01*
G01*
X134715000Y-80066000D01*
G75*
G02*
X134815000Y-79966000I100000J0D01*
G01*
G37*
G36*
G01*
X134165000Y-79966000D02*
X134365000Y-79966000D01*
G75*
G02*
X134465000Y-80066000I0J-100000D01*
G01*
X134465000Y-81341000D01*
G75*
G02*
X134365000Y-81441000I-100000J0D01*
G01*
X134165000Y-81441000D01*
G75*
G02*
X134065000Y-81341000I0J100000D01*
G01*
X134065000Y-80066000D01*
G75*
G02*
X134165000Y-79966000I100000J0D01*
G01*
G37*
G36*
G01*
X133515000Y-79966000D02*
X133715000Y-79966000D01*
G75*
G02*
X133815000Y-80066000I0J-100000D01*
G01*
X133815000Y-81341000D01*
G75*
G02*
X133715000Y-81441000I-100000J0D01*
G01*
X133515000Y-81441000D01*
G75*
G02*
X133415000Y-81341000I0J100000D01*
G01*
X133415000Y-80066000D01*
G75*
G02*
X133515000Y-79966000I100000J0D01*
G01*
G37*
G36*
G01*
X132865000Y-79966000D02*
X133065000Y-79966000D01*
G75*
G02*
X133165000Y-80066000I0J-100000D01*
G01*
X133165000Y-81341000D01*
G75*
G02*
X133065000Y-81441000I-100000J0D01*
G01*
X132865000Y-81441000D01*
G75*
G02*
X132765000Y-81341000I0J100000D01*
G01*
X132765000Y-80066000D01*
G75*
G02*
X132865000Y-79966000I100000J0D01*
G01*
G37*
G36*
G01*
X132865000Y-85691000D02*
X133065000Y-85691000D01*
G75*
G02*
X133165000Y-85791000I0J-100000D01*
G01*
X133165000Y-87066000D01*
G75*
G02*
X133065000Y-87166000I-100000J0D01*
G01*
X132865000Y-87166000D01*
G75*
G02*
X132765000Y-87066000I0J100000D01*
G01*
X132765000Y-85791000D01*
G75*
G02*
X132865000Y-85691000I100000J0D01*
G01*
G37*
G36*
G01*
X133515000Y-85691000D02*
X133715000Y-85691000D01*
G75*
G02*
X133815000Y-85791000I0J-100000D01*
G01*
X133815000Y-87066000D01*
G75*
G02*
X133715000Y-87166000I-100000J0D01*
G01*
X133515000Y-87166000D01*
G75*
G02*
X133415000Y-87066000I0J100000D01*
G01*
X133415000Y-85791000D01*
G75*
G02*
X133515000Y-85691000I100000J0D01*
G01*
G37*
G36*
G01*
X134165000Y-85691000D02*
X134365000Y-85691000D01*
G75*
G02*
X134465000Y-85791000I0J-100000D01*
G01*
X134465000Y-87066000D01*
G75*
G02*
X134365000Y-87166000I-100000J0D01*
G01*
X134165000Y-87166000D01*
G75*
G02*
X134065000Y-87066000I0J100000D01*
G01*
X134065000Y-85791000D01*
G75*
G02*
X134165000Y-85691000I100000J0D01*
G01*
G37*
G36*
G01*
X134815000Y-85691000D02*
X135015000Y-85691000D01*
G75*
G02*
X135115000Y-85791000I0J-100000D01*
G01*
X135115000Y-87066000D01*
G75*
G02*
X135015000Y-87166000I-100000J0D01*
G01*
X134815000Y-87166000D01*
G75*
G02*
X134715000Y-87066000I0J100000D01*
G01*
X134715000Y-85791000D01*
G75*
G02*
X134815000Y-85691000I100000J0D01*
G01*
G37*
G36*
G01*
X135465000Y-85691000D02*
X135665000Y-85691000D01*
G75*
G02*
X135765000Y-85791000I0J-100000D01*
G01*
X135765000Y-87066000D01*
G75*
G02*
X135665000Y-87166000I-100000J0D01*
G01*
X135465000Y-87166000D01*
G75*
G02*
X135365000Y-87066000I0J100000D01*
G01*
X135365000Y-85791000D01*
G75*
G02*
X135465000Y-85691000I100000J0D01*
G01*
G37*
G36*
G01*
X136115000Y-85691000D02*
X136315000Y-85691000D01*
G75*
G02*
X136415000Y-85791000I0J-100000D01*
G01*
X136415000Y-87066000D01*
G75*
G02*
X136315000Y-87166000I-100000J0D01*
G01*
X136115000Y-87166000D01*
G75*
G02*
X136015000Y-87066000I0J100000D01*
G01*
X136015000Y-85791000D01*
G75*
G02*
X136115000Y-85691000I100000J0D01*
G01*
G37*
G36*
G01*
X136765000Y-85691000D02*
X136965000Y-85691000D01*
G75*
G02*
X137065000Y-85791000I0J-100000D01*
G01*
X137065000Y-87066000D01*
G75*
G02*
X136965000Y-87166000I-100000J0D01*
G01*
X136765000Y-87166000D01*
G75*
G02*
X136665000Y-87066000I0J100000D01*
G01*
X136665000Y-85791000D01*
G75*
G02*
X136765000Y-85691000I100000J0D01*
G01*
G37*
G36*
G01*
X137415000Y-85691000D02*
X137615000Y-85691000D01*
G75*
G02*
X137715000Y-85791000I0J-100000D01*
G01*
X137715000Y-87066000D01*
G75*
G02*
X137615000Y-87166000I-100000J0D01*
G01*
X137415000Y-87166000D01*
G75*
G02*
X137315000Y-87066000I0J100000D01*
G01*
X137315000Y-85791000D01*
G75*
G02*
X137415000Y-85691000I100000J0D01*
G01*
G37*
G36*
G01*
X138065000Y-85691000D02*
X138265000Y-85691000D01*
G75*
G02*
X138365000Y-85791000I0J-100000D01*
G01*
X138365000Y-87066000D01*
G75*
G02*
X138265000Y-87166000I-100000J0D01*
G01*
X138065000Y-87166000D01*
G75*
G02*
X137965000Y-87066000I0J100000D01*
G01*
X137965000Y-85791000D01*
G75*
G02*
X138065000Y-85691000I100000J0D01*
G01*
G37*
G36*
G01*
X138715000Y-85691000D02*
X138915000Y-85691000D01*
G75*
G02*
X139015000Y-85791000I0J-100000D01*
G01*
X139015000Y-87066000D01*
G75*
G02*
X138915000Y-87166000I-100000J0D01*
G01*
X138715000Y-87166000D01*
G75*
G02*
X138615000Y-87066000I0J100000D01*
G01*
X138615000Y-85791000D01*
G75*
G02*
X138715000Y-85691000I100000J0D01*
G01*
G37*
%TD*%
M02*
