M48
; DRILL file {KiCad 5.1.9-73d0e3b20d~88~ubuntu20.04.1} date Mon Jul 12 22:55:00 2021
; FORMAT={-:-/ absolute / inch / decimal}
; #@! TF.CreationDate,2021-07-12T22:55:00-04:00
; #@! TF.GenerationSoftware,Kicad,Pcbnew,5.1.9-73d0e3b20d~88~ubuntu20.04.1
FMAT,2
INCH
T1C0.0157
T2C0.0394
%
G90
G05
T1
X5.1025Y-2.6427
X5.18Y-3.192
X5.206Y-3.71
X5.224Y-3.514
X5.28Y-3.04
X5.35Y-3.09
X5.3626Y-2.9951
X5.382Y-3.292
X5.4025Y-3.0413
X5.468Y-3.504
X5.47Y-2.9002
X5.4934Y-2.8443
X5.512Y-3.084
X5.53Y-2.63
T2
X5.1Y-2.75
X5.1Y-2.85
X5.1Y-2.95
X5.1Y-3.05
X5.1Y-3.15
X5.1Y-3.25
X5.1Y-3.35
X5.1Y-3.45
X5.1Y-3.55
X5.1Y-3.65
X5.6Y-2.75
X5.6Y-2.85
X5.6Y-2.95
X5.6Y-3.05
X5.6Y-3.15
X5.6Y-3.25
X5.6Y-3.35
X5.6Y-3.45
X5.6Y-3.55
X5.6Y-3.65
T0
M30
